<?xml version="1.0" encoding="UTF-8"?>
<svg version="1.1" xmlns="http://www.w3.org/2000/svg" width="1080" height="2252">
<path d="M0 0 C356.4 0 712.8 0 1080 0 C1080 743.16 1080 1486.32 1080 2252 C723.6 2252 367.2 2252 0 2252 C0 1508.84 0 765.68 0 0 Z " fill="#F9F9F9" transform="translate(0,0)"/>
<path d="M0 0 C356.4 0 712.8 0 1080 0 C1080 49.83 1080 99.66 1080 151 C723.6 151 367.2 151 0 151 C0 101.17 0 51.34 0 0 Z " fill="#212121" transform="translate(0,0)"/>
<path d="M0 0 C0.67727761 -0.00140232 1.35455521 -0.00280463 2.05235638 -0.00424945 C4.35490095 -0.00776936 6.65738012 -0.00407232 8.95992386 -0.00049198 C10.62126865 -0.00153372 12.28261322 -0.00301393 13.94395727 -0.00489634 C18.55210747 -0.00882307 23.16023697 -0.00644346 27.76838686 -0.00311839 C32.76547664 -0.00059828 37.76256306 -0.00383497 42.75965238 -0.00636172 C51.53190987 -0.00998695 60.30416121 -0.00985558 69.076419 -0.00731456 C82.12075748 -0.00354627 95.16509073 -0.00545841 108.20942917 -0.00852287 C130.14922007 -0.01349427 152.08900899 -0.01366344 174.02880013 -0.01094615 C174.69761696 -0.01086336 175.36643378 -0.01078056 176.05551779 -0.01069526 C176.72539795 -0.01061233 177.39527812 -0.0105294 178.08545768 -0.01044396 C198.46939652 -0.00792375 218.85333437 -0.00726799 239.23727334 -0.0084666 C240.6007053 -0.00854408 241.96413727 -0.00862124 243.32756924 -0.00869807 C248.80625089 -0.00900852 254.28493254 -0.00932719 259.76361418 -0.00965784 C275.08030323 -0.01057499 290.39699227 -0.01114548 305.71368134 -0.01144397 C306.76004063 -0.01146444 306.76004063 -0.01146444 307.82753849 -0.01148532 C330.06573347 -0.01189479 352.30392809 -0.01076674 374.54212296 -0.00859439 C375.26372764 -0.00852414 375.98533232 -0.0084539 376.72880381 -0.00838152 C388.4481901 -0.00723648 400.16757637 -0.00601706 411.88696265 -0.00479134 C458.36626105 0.0000647 504.84555658 -0.0001597 551.32485497 -0.00502193 C563.03585795 -0.00624306 574.74686094 -0.00745409 586.45786393 -0.00859439 C587.17889831 -0.00866484 587.89993269 -0.00873529 588.6428166 -0.00880787 C610.85541324 -0.01096329 633.06800965 -0.01187847 655.28060639 -0.01144397 C656.32624387 -0.0114236 656.32624387 -0.0114236 657.39300533 -0.01140281 C672.69372697 -0.01109036 687.99444857 -0.01045678 703.29517018 -0.00953347 C708.76967091 -0.00920431 714.24417164 -0.00889123 719.71867237 -0.00858276 C721.08065907 -0.00850537 722.44264576 -0.00842664 723.80463246 -0.00834656 C744.18317785 -0.00715173 764.56172212 -0.00817182 784.94026737 -0.01069526 C785.60891861 -0.01077805 786.27756984 -0.01086085 786.96648324 -0.01094615 C787.63390783 -0.01102884 788.30133243 -0.01111152 788.98898202 -0.01119671 C811.47342991 -0.01395168 833.9578752 -0.01294512 856.44232272 -0.00766541 C869.41692359 -0.00471959 882.39151759 -0.00455112 895.36611829 -0.00831159 C904.01841692 -0.01054356 912.67071002 -0.00917738 921.32300783 -0.00480682 C926.26233217 -0.00241397 931.20164281 -0.00164362 936.14096676 -0.0052128 C940.62631487 -0.00842109 945.11163701 -0.00710285 949.5969832 -0.00203214 C951.21729564 -0.00101739 952.83761019 -0.00171071 954.45792098 -0.00423808 C956.64437136 -0.00740891 958.83072968 -0.00450841 961.01717567 0 C962.23188502 0.00006776 963.44659436 0.00013552 964.69811308 0.00020533 C967.633937 0.12534916 967.633937 0.12534916 970.633937 1.12534916 C973.29040852 4.68586401 972.92273647 8.77765269 972.9085952 13.02744877 C972.91370614 13.8197942 972.91881707 14.61213963 972.92408288 15.42849553 C972.93797102 18.04497171 972.93702273 20.66118427 972.93471825 23.27769291 C972.93860557 25.09845909 972.94294031 26.91922435 972.94770348 28.73998845 C972.95516398 32.55556503 972.95487561 36.37104907 972.94961083 40.18662846 C972.94381596 45.07374078 972.9607484 49.96047414 972.9839555 54.84752381 C972.99869443 58.60763585 972.99956433 62.36765666 972.99644578 66.12779248 C972.99695889 67.92950071 973.00219484 69.73121405 973.0122577 71.53289425 C973.02460815 74.05346432 973.01783909 76.57329658 973.00625145 79.09385502 C973.01389519 79.83635502 973.02153893 80.57885502 973.0294143 81.34385502 C972.97206092 86.99433599 971.58820836 90.1710778 967.633937 94.12534916 C964.83256696 94.37705484 964.83256696 94.37705484 961.16521293 94.3794995 C960.15087701 94.38426549 960.15087701 94.38426549 959.11604945 94.38912776 C956.82306281 94.39741623 954.53033206 94.39131287 952.23734105 94.38541138 C950.58055085 94.38840474 948.92376205 94.39227339 947.26697573 94.39694372 C942.67610765 94.40729697 938.08531604 94.40505205 933.49444129 94.40088836 C928.51432769 94.3985353 923.53423352 94.40767398 918.55412716 94.41537255 C909.81317779 94.42725426 901.07224933 94.43158397 892.33129227 94.43105137 C879.33341167 94.43026028 866.33555758 94.44078581 853.33768404 94.45346694 C828.77675613 94.47695188 804.2158322 94.48647747 779.65489479 94.4912182 C776.94414927 94.49174189 774.23340375 94.49226773 771.52265823 94.49279487 C770.85001352 94.49292393 770.1773688 94.49305299 769.48434092 94.49318597 C754.59113811 94.49608926 739.6979372 94.50224644 724.80473566 94.50889218 C718.67586121 94.51161557 712.54698671 94.5142466 706.41811222 94.51687783 C705.74096145 94.51716874 705.06381069 94.51745966 704.36614021 94.51775938 C665.55099379 94.53438683 626.73584829 94.54624047 587.92069829 94.5486728 C586.46746678 94.54876742 585.01423528 94.54886243 583.56100378 94.54895783 C576.99950119 94.54938558 570.4379986 94.54979096 563.87649601 94.55019619 C560.95044015 94.55037779 558.02438429 94.55056268 555.09832843 94.55074825 C553.63378301 94.55084028 552.16923758 94.55093067 550.70469216 94.55101945 C504.38885129 94.55383421 458.07305393 94.5755643 411.75722802 94.61240971 C377.22566019 94.63987511 342.69410067 94.66576609 308.16252148 94.67235482 C307.46775182 94.67248825 306.77298216 94.67262169 306.05715887 94.67275917 C290.80689984 94.67563119 275.55664099 94.67704873 260.3063817 94.67711738 C254.84983591 94.67715707 249.39329012 94.67731403 243.93674434 94.6775319 C242.57923807 94.67758555 241.22173179 94.67763366 239.86422552 94.67767623 C218.21341176 94.67842039 196.56264083 94.69410331 174.91184046 94.71728753 C152.50505985 94.74117565 130.09833968 94.74698244 107.69155022 94.73188245 C94.76395725 94.72370495 81.83654461 94.72951364 68.90897335 94.75506329 C60.28549293 94.77073715 51.66214144 94.76841754 43.03866429 94.75115657 C38.11736123 94.74182395 33.19640712 94.74057577 28.27513035 94.76112264 C23.80370282 94.7796336 19.33291331 94.7754027 14.86151123 94.7525317 C13.24855869 94.74835263 11.63555771 94.75266946 10.02265675 94.76622938 C7.84055522 94.78336896 5.66072382 94.76993267 3.47870857 94.74864298 C2.26827846 94.7489754 1.05784835 94.74930783 -0.18926146 94.74965033 C-4.29640224 93.94252003 -5.77358939 92.34185503 -8.366063 89.12534916 C-9.56338736 85.53337609 -9.51364945 82.25896218 -9.51132667 78.5203687 C-9.51468528 77.74767643 -9.51804389 76.97498417 -9.52150428 76.178877 C-9.53101086 73.62195557 -9.53295729 71.06509966 -9.53403175 68.50816166 C-9.53724467 66.73080747 -9.54060877 64.95345353 -9.54411781 63.1760999 C-9.55010844 59.44872753 -9.55195779 55.72137835 -9.55136573 51.99400151 C-9.55126414 47.22016758 -9.5649132 42.4464825 -9.58213794 37.67268384 C-9.59326244 34.00094241 -9.5952848 30.32923691 -9.59475601 26.65748036 C-9.59593556 24.89764085 -9.60035598 23.1378004 -9.60808837 21.37797749 C-9.61789678 18.91491888 -9.61500684 16.4521826 -9.60898292 13.9891187 C-9.61460243 13.26374913 -9.62022193 12.53837956 -9.62601173 11.7910291 C-9.57286257 3.22948437 -8.52408121 0.00047554 0 0 Z " fill="#D5D7D6" transform="translate(58.36606299877167,556.8746508359909)"/>
<path d="M0 0 C0.67972301 -0.00523658 1.35944602 -0.01047315 2.0597667 -0.01586841 C4.35290255 -0.02860468 6.64495572 -0.01267652 8.93806118 0.00296003 C10.59949551 -0.00030038 12.26092716 -0.00531582 13.92235151 -0.01193383 C18.51686887 -0.02509231 23.11103907 -0.01313921 27.7055356 0.00267852 C32.69294808 0.01547569 37.68031958 0.00515589 42.66773546 -0.00229728 C51.41836615 -0.01215141 60.16889077 -0.00706359 68.91951317 0.0076645 C81.93160905 0.02950461 94.94363241 0.0285296 107.95574178 0.02283023 C129.84245366 0.01391493 151.72912548 0.02376791 173.61582702 0.04445916 C195.29647778 0.06491182 216.97710897 0.07754035 238.65776962 0.07949716 C239.66734825 0.07959451 239.66734825 0.07959451 240.69732241 0.07969384 C246.84456824 0.08028624 252.99181408 0.08079323 259.13905992 0.08119268 C274.42151163 0.08219393 289.70396298 0.08450147 304.98641437 0.08773214 C305.68239437 0.08787844 306.37837437 0.08802475 307.09544467 0.08817549 C340.961747 0.09541754 374.82803722 0.11788942 408.69433159 0.1412552 C455.79101232 0.17374048 502.88767919 0.19498824 549.98437065 0.20277864 C551.44987272 0.2030238 552.91537479 0.2032693 554.38087687 0.20351513 C561.6881785 0.20473867 568.99548014 0.20594078 576.30278179 0.20713692 C577.02393955 0.20725515 577.74509732 0.20737338 578.48810836 0.20749519 C582.12345738 0.2080906 585.7588064 0.20868125 589.39415542 0.20926335 C635.64980001 0.21670095 681.90544205 0.23250179 728.16108363 0.25046253 C730.86699328 0.25151118 733.57290293 0.25255769 736.27881259 0.25360209 C736.94756015 0.25386035 737.61630771 0.25411861 738.30532034 0.25438469 C747.79903 0.25803607 757.29273973 0.26127859 766.78644964 0.26419685 C795.98055389 0.27317758 825.174653 0.28481663 854.36875129 0.30639049 C866.16632852 0.31504477 877.96390146 0.32220478 889.7614817 0.32490617 C899.53518249 0.32715115 909.30887385 0.33268035 919.08256979 0.34281617 C924.00909694 0.34783113 928.9356114 0.35124387 933.86214132 0.35034635 C938.33584406 0.34957119 942.80951826 0.35332635 947.28321455 0.36083937 C948.89930261 0.36273963 950.5153937 0.36293558 952.13148205 0.36130143 C954.31224948 0.35933765 956.49292149 0.36343694 958.67368031 0.36914349 C959.88522274 0.36988246 961.09676517 0.37062144 962.34502101 0.37138281 C965.27416557 0.49794465 965.27416557 0.49794465 968.27416557 1.49794465 C969.19537217 6.20192575 969.43355891 10.77359477 969.45116752 15.55116731 C969.46102432 16.72790262 969.46102432 16.72790262 969.47108024 17.92841035 C969.49068128 20.50627709 969.50244062 23.0840862 969.51244682 25.66200715 C969.51652235 26.54514966 969.52059788 27.42829217 969.5247969 28.33819658 C969.54559227 33.00472476 969.55992716 37.67122402 969.56933159 42.3377884 C969.58043676 47.15774061 969.61490204 51.97723635 969.65450329 56.79702646 C969.68060922 60.50646793 969.68901759 64.21579899 969.69261307 67.92532426 C969.69748756 69.70276328 969.70912609 71.48019708 969.72765106 73.25754625 C969.75193514 75.73990896 969.75109869 78.22106656 969.74413627 80.70351106 C969.75694633 81.43711351 969.76975639 82.17071595 969.78295463 82.92654878 C969.74760452 86.3800675 969.53274743 88.16871767 967.3697924 90.92259675 C963.68292966 93.6941262 961.40103023 93.62501041 956.80314016 93.63085651 C956.12666775 93.63307749 955.45019534 93.63529846 954.75322377 93.63758674 C952.45946044 93.64387755 950.16575406 93.64298642 947.87198299 93.64219648 C946.21458847 93.64524791 944.55719471 93.64873633 942.89980194 93.65262499 C938.30728879 93.66210957 933.71478876 93.66530888 929.12226714 93.66755278 C924.1403796 93.67106827 919.15850232 93.6803228 914.17662132 93.68886101 C905.43261769 93.70303516 896.68861571 93.71344865 887.94460434 93.72144204 C874.94228401 93.73333184 861.93997564 93.75087651 848.93766347 93.76952043 C824.36898114 93.80452202 799.80029323 93.83264303 775.23159993 93.85854187 C772.52007451 93.86140183 769.80854909 93.86426495 767.09702367 93.86713082 C766.42418885 93.8678414 765.75135403 93.86855198 765.05813028 93.8692841 C750.16126193 93.8850482 735.26439583 93.9025871 720.36752985 93.92044287 C714.2373533 93.92778715 708.10717671 93.93509308 701.97700012 93.94240677 C701.29970989 93.94321516 700.62241965 93.94402354 699.92460548 93.94485642 C661.10217432 93.99117979 622.27974118 94.0353023 583.45730251 94.07485181 C582.00381804 94.07633387 580.55033357 94.07781597 579.0968491 94.07929812 C572.53418244 94.08598769 565.97151576 94.09266257 559.40884908 94.09933335 C556.48226343 94.1023082 553.55567777 94.10528404 550.62909212 94.10825999 C549.16428182 94.10974915 547.69947152 94.11123769 546.23466122 94.1127256 C499.90528901 94.15978975 453.57593271 94.21485829 407.24657768 94.27650911 C395.57270929 94.29204171 383.89884086 94.30754275 372.22497219 94.32286817 C371.14684697 94.32428361 371.14684697 94.32428361 370.04694145 94.32572764 C347.90478706 94.35475968 325.76263079 94.38134381 303.62047046 94.40542012 C302.92559373 94.40617601 302.230717 94.40693189 301.5147834 94.40771068 C286.26272562 94.42427806 271.01066727 94.44025291 255.7586083 94.45568079 C250.30154782 94.46120622 244.84448739 94.46677621 239.38742698 94.47236812 C238.02978366 94.47375891 236.67214034 94.47514741 235.31449701 94.47653361 C213.65615835 94.49867055 191.99783231 94.52670134 170.33950461 94.55765531 C147.9279333 94.58964045 125.51636444 94.61434139 103.10477603 94.6306304 C90.17236917 94.64024208 77.23999678 94.65545775 64.30760684 94.67856487 C55.68348065 94.69342567 47.05936802 94.70109068 38.43522923 94.702752 C33.5119919 94.70390775 28.5888138 94.70832011 23.66559256 94.72143497 C19.19485459 94.73328104 14.72421016 94.73606104 10.25345984 94.73132653 C8.63844119 94.73125387 7.02341821 94.73460381 5.40841483 94.74162888 C3.22900495 94.7506297 1.04995104 94.74746532 -1.12945986 94.74108028 C-2.34020193 94.74241635 -3.55094399 94.74375242 -4.79837522 94.74512897 C-7.72583443 94.49794465 -7.72583443 94.49794465 -10.72583443 92.49794465 C-11.03327681 89.67918431 -11.14558413 87.07853895 -11.12988716 84.25624543 C-11.13675041 83.40406434 -11.14361367 82.55188325 -11.15068489 81.67387849 C-11.16903901 78.84683688 -11.16510267 76.02034577 -11.15942818 73.19325715 C-11.16398643 71.23271453 -11.16929092 69.27217351 -11.17531258 67.31163484 C-11.18426103 63.19740267 -11.18180155 59.08336441 -11.17187935 54.96913606 C-11.16039774 49.69389514 -11.18058001 44.41932438 -11.20979649 39.14417154 C-11.22813623 35.09326873 -11.2278703 31.04252708 -11.22215897 26.99159318 C-11.22200543 25.04671109 -11.22807689 23.1018183 -11.24045044 21.15697557 C-11.25531364 18.43703331 -11.24471747 15.71833599 -11.22754341 12.99843293 C-11.23721138 12.19309114 -11.24687935 11.38774934 -11.25684029 10.55800325 C-11.21281597 7.23158613 -11.10655935 5.01951087 -9.11487374 2.29104244 C-5.92902658 -0.10010092 -3.96527046 -0.00130969 0 0 Z " fill="#D5D7D6" transform="translate(61.72583442926407,434.5020553469658)"/>
<path d="M0 0 C356.4 0 712.8 0 1080 0 C1080 2.64 1080 5.28 1080 8 C723.6 8 367.2 8 0 8 C0 5.36 0 2.72 0 0 Z " fill="#000000" transform="translate(0,0)"/>
<path d="M0 0 C322.74 0 645.48 0 978 0 C978 0.99 978 1.98 978 3 C655.26 3 332.52 3 0 3 C0 2.01 0 1.02 0 0 Z " fill="#757575" transform="translate(51,398)"/>
<path d="M0 0 C322.74 0 645.48 0 978 0 C978 0.99 978 1.98 978 3 C655.26 3 332.52 3 0 3 C0 2.01 0 1.02 0 0 Z " fill="#757575" transform="translate(51,284)"/>
<path d="M0 0 C0.67753953 -0.00127809 1.35507906 -0.00255617 2.05315009 -0.00387299 C4.35055334 -0.00696456 6.64788937 -0.00285553 8.94529045 0.00115067 C10.60529767 0.00041176 12.26530475 -0.00076603 13.92531139 -0.00234583 C18.52506619 -0.00543287 23.1247991 -0.00222489 27.72455228 0.0019323 C32.71423372 0.00535118 37.70391282 0.00299865 42.69359469 0.00135481 C51.4512063 -0.00072439 60.20881114 0.00093413 68.96642196 0.00499302 C81.98880421 0.01101181 95.01118216 0.01133034 108.03356555 0.01045103 C129.93604746 0.00913505 151.8385267 0.01247918 173.74100769 0.01846844 C195.43726383 0.02438716 217.13351874 0.02824278 238.82977569 0.02932125 C239.50311517 0.02935567 240.17645464 0.02939008 240.87019834 0.02942553 C247.01994921 0.02973872 253.16970009 0.03002641 259.31945096 0.03028351 C274.60831393 0.03092297 289.89717687 0.03188234 305.18603981 0.0330587 C305.88232733 0.03311202 306.57861485 0.03316534 307.29600199 0.03322027 C341.18173266 0.03584297 375.06746251 0.04215101 408.95319259 0.04875904 C420.71503341 0.05105067 432.47687422 0.05332601 444.23871505 0.05553395 C445.33289316 0.05573937 445.33289316 0.05573937 446.44917587 0.05594894 C480.34777948 0.06229084 514.24638323 0.06601791 548.14498727 0.06906874 C550.3452073 0.0692668 552.54542734 0.069466 554.74564737 0.06966542 C569.32639285 0.07098518 583.90713833 0.07225983 598.48788382 0.07350428 C627.50094205 0.0759809 656.51400025 0.07872259 685.52705843 0.08164633 C686.90879395 0.08178557 688.29052947 0.08192462 689.67226499 0.08206349 C777.36598691 0.09087914 865.05970791 0.10578023 965.51911056 0.1241985 C965.51911056 0.4541985 965.51911056 0.7841985 965.51911056 1.1241985 C964.67662945 1.12459868 963.83414835 1.12499886 962.96613751 1.12541117 C874.72630638 1.16742764 786.48647559 1.21175846 687.92970932 1.28317982 C686.5474457 1.28418545 685.16518208 1.28519107 683.78291846 1.28619669 C654.77052065 1.30731704 625.75812333 1.32905412 596.74572652 1.35150387 C582.1724091 1.36278003 567.59909159 1.37393764 553.02577399 1.38498318 C550.82740792 1.38665008 548.62904186 1.38832036 546.43067579 1.38999078 C512.56839159 1.41569105 478.70610799 1.43884496 444.84381759 1.45464283 C444.11543451 1.4549827 443.38705143 1.45532256 442.63659613 1.45567272 C430.89248075 1.46113709 419.14836527 1.46638827 407.40424978 1.47161116 C373.58840348 1.48665314 339.77256127 1.50326469 305.95672214 1.53032166 C304.91420568 1.53115465 304.91420568 1.53115465 303.85062829 1.53200447 C288.59552367 1.54422196 273.34041986 1.55725066 258.08531659 1.57104807 C251.94770145 1.5765849 245.81008621 1.5820049 239.67247093 1.58738476 C238.66485163 1.58827221 238.66485163 1.58827221 237.63687638 1.58917758 C215.97290953 1.60819962 194.30895127 1.61770044 172.64497693 1.62223445 C150.2262183 1.62697104 127.80748996 1.64223483 105.38874742 1.66986416 C92.45190801 1.68547492 79.51512656 1.69264045 66.57827824 1.68796779 C57.95110222 1.68566658 49.32398123 1.69411406 40.69682255 1.71152261 C35.77180795 1.72114641 30.84691492 1.72588761 25.92189511 1.71759412 C21.44946929 1.7101542 16.97728392 1.7162765 12.50488749 1.73363917 C10.88928348 1.73745948 9.27365801 1.73615726 7.65806381 1.7293545 C5.477675 1.72088995 3.29812469 1.7306301 1.11778647 1.74519098 C-0.09340308 1.74597088 -1.30459263 1.74675078 -2.55248489 1.74755432 C-5.45437514 1.89387478 -5.45437514 1.89387478 -7.36838622 3.4236557 C-9.31155293 6.39392859 -8.91955351 9.83055474 -8.91326249 13.26750904 C-8.92345414 14.09700062 -8.93364579 14.9264922 -8.94414628 15.78111988 C-8.97435442 18.52445368 -8.98355406 21.26743876 -8.99260819 24.01091725 C-9.00944909 25.91236243 -9.02759853 27.81379645 -9.04700577 29.71521717 C-9.09457586 34.72109698 -9.12433985 39.72693151 -9.1504451 44.73296314 C-9.18021531 49.84067948 -9.22675775 54.94823965 -9.27190506 60.05583912 C-9.35801789 70.078544 -9.42532765 80.10128096 -9.48088944 90.1241985 C-12.0052047 87.59988324 -11.72845284 86.02213703 -11.76305497 82.57793385 C-11.76057755 81.8043755 -11.75810013 81.03081715 -11.75554764 80.23381764 C-11.76065857 79.41904454 -11.76576951 78.60427143 -11.77103531 77.76480824 C-11.78497159 75.06291634 -11.78397151 72.36127838 -11.78167069 69.65935475 C-11.78555547 67.78609836 -11.78988968 65.91284286 -11.79465592 64.03958851 C-11.80212686 60.10951087 -11.80182059 56.17952304 -11.79656327 52.24944264 C-11.79076815 47.20738184 -11.80769641 42.16568833 -11.83090794 37.12368828 C-11.84562379 33.25385082 -11.84651991 29.38410224 -11.84339821 25.51424176 C-11.84391253 23.65505899 -11.8491709 21.79587139 -11.85921013 19.93671566 C-11.87151546 17.33889079 -11.86481865 14.7417868 -11.85320389 12.14397389 C-11.86084763 11.37243977 -11.86849137 10.60090565 -11.87636673 9.80599171 C-11.82480179 4.6010416 -11.82480179 4.6010416 -10.08261979 2.18546253 C-6.60586045 -0.11814597 -4.16700315 -0.00053602 0 0 Z " fill="#EBECEC" transform="translate(60.480889439582825,433.8758015036583)"/>
<path d="M0 0 C0.7734375 0.02707031 1.546875 0.05414063 2.34375 0.08203125 C3.0553125 0.11683594 3.766875 0.15164062 4.5 0.1875 C5.49 0.1875 6.48 0.1875 7.5 0.1875 C9.5 0.1875 11.5 0.1875 13.5 0.1875 C13.57441989 4.36837152 13.62872818 8.5488873 13.66479492 12.73022461 C13.6798376 14.15119141 13.70027704 15.57211213 13.72631836 16.99291992 C13.76290347 19.04096886 13.77977097 21.0884015 13.79296875 23.13671875 C13.8086792 24.36737061 13.82438965 25.59802246 13.84057617 26.8659668 C13.46915857 30.4882869 12.68946222 32.31078004 10.5 35.1875 C6.12423085 38.07152967 2.69900136 38.83737517 -2.5 38.1875 C-5.9375 36.1875 -5.9375 36.1875 -8.5 34.1875 C-7.84 32.8675 -7.18 31.5475 -6.5 30.1875 C-6.005 30.5175 -5.51 30.8475 -5 31.1875 C-1.40909106 32.62386358 1.64456127 32.31601462 5.5 32.1875 C5.83 30.2075 6.16 28.2275 6.5 26.1875 C5.984375 26.538125 5.46875 26.88875 4.9375 27.25 C1.35487682 28.62793199 -0.82529175 28.21899705 -4.5 27.1875 C-7.70653352 24.37460743 -10.34098724 21.08647931 -10.703125 16.76171875 C-10.85890249 7.16842147 -10.85890249 7.16842147 -7.5 3.1875 C-7.06300781 2.65511719 -6.62601562 2.12273437 -6.17578125 1.57421875 C-3.9922001 -0.23270737 -2.79471407 -0.12576213 0 0 Z " fill="#F4F4F4" transform="translate(339.5,71.8125)"/>
<path d="M0 0 C2.66666667 0 5.33333333 0 8 0 C8.72832031 -0.06960937 9.45664062 -0.13921875 10.20703125 -0.2109375 C17.11485968 -0.6459132 17.11485968 -0.6459132 19.734375 1.265625 C24.02328771 6.46277805 24.60746438 10.48840818 24 17 C22.90494423 20.94975288 21.29756388 24.46110116 18 27 C15.5546875 27.328125 15.5546875 27.328125 12.875 27.25 C11.54082031 27.22679687 11.54082031 27.22679687 10.1796875 27.203125 C8 27 8 27 7 26 C6.67 29.96 6.34 33.92 6 38 C4.02 38 2.04 38 0 38 C0 25.46 0 12.92 0 0 Z " fill="#F3F3F3" transform="translate(447,72)"/>
<path d="M0 0 C2.66666667 0 5.33333333 0 8 0 C8.72832031 -0.06960937 9.45664062 -0.13921875 10.20703125 -0.2109375 C17.11485968 -0.6459132 17.11485968 -0.6459132 19.734375 1.265625 C24.02328771 6.46277805 24.60746438 10.48840818 24 17 C22.90494423 20.94975288 21.29756388 24.46110116 18 27 C15.5546875 27.328125 15.5546875 27.328125 12.875 27.25 C11.54082031 27.22679687 11.54082031 27.22679687 10.1796875 27.203125 C8 27 8 27 7 26 C6.67 29.96 6.34 33.92 6 38 C4.02 38 2.04 38 0 38 C0 25.46 0 12.92 0 0 Z " fill="#F4F4F4" transform="translate(418,72)"/>
<path d="M0 0 C1.98 0 3.96 0 6 0 C7.8577973 4.78474023 9.70902823 9.57194866 11.55419922 14.36157227 C12.18292943 15.99085016 12.81345369 17.61943691 13.44580078 19.24731445 C14.35400505 21.58626123 15.25574486 23.92761131 16.15625 26.26953125 C16.44060913 26.99775589 16.72496826 27.72598053 17.01794434 28.47627258 C18.15963884 31.46124885 19 33.77510604 19 37 C17.02 37 15.04 37 13 37 C12.01 34.69 11.02 32.38 10 30 C3.07 29.505 3.07 29.505 -4 29 C-4.66 30.98 -5.32 32.96 -6 35 C-6.33 35.66 -6.66 36.32 -7 37 C-9.31 37 -11.62 37 -14 37 C-9.73985172 24.47853074 -5.18580962 12.16852592 0 0 Z " fill="#F0F0F0" transform="translate(396,62)"/>
<path d="M0 0 C1.32 0 2.64 0 4 0 C4 11.55 4 23.1 4 35 C2.68 35 1.36 35 0 35 C0 34.34 0 33.68 0 33 C-0.99 33.66 -1.98 34.32 -3 35 C-10.05443235 35.6718507 -10.05443235 35.6718507 -13.375 33.3125 C-16.74591026 28.5154354 -17.95310858 23.86793356 -17 18 C-14.98497111 14.24787724 -13.54533858 12.36355905 -10 10 C-5.84130536 10.29704962 -3.49592778 10.66938148 0 13 C0 8.71 0 4.42 0 0 Z " fill="#737373" transform="translate(248,345)"/>
<path d="M0 0 C15 0 15 0 21 3 C23.45665197 6.68497796 23.70086491 9.71971786 23 14 C21.20636089 16.8100346 19.98119065 18.50940468 17 20 C12.66396021 20.1393329 8.33919329 20.04254111 4 20 C4 24.29 4 28.58 4 33 C2.68 33 1.36 33 0 33 C0 22.11 0 11.22 0 0 Z " fill="#6A6A6A" transform="translate(55,347)"/>
<path d="M0 0 C0.92683594 -0.01933594 1.85367188 -0.03867188 2.80859375 -0.05859375 C6.67081382 0.63715369 8.05532272 1.3568726 10.5625 4.4375 C11.32529543 8.34831565 11.35331472 12.21186521 11.375 16.1875 C11.40013672 17.26644531 11.42527344 18.34539062 11.45117188 19.45703125 C11.51003299 22.11755377 11.5463204 24.77643151 11.5625 27.4375 C9.5825 27.4375 7.6025 27.4375 5.5625 27.4375 C5.5625 26.7775 5.5625 26.1175 5.5625 25.4375 C4.5725 26.0975 3.5825 26.7575 2.5625 27.4375 C-0.82959331 27.97547807 -4.04497802 27.97608369 -7.4375 27.4375 C-10.6039051 24.87421968 -11.28609114 23.36487927 -11.9375 19.375 C-11.32400515 15.77071775 -10.29959271 14.64540009 -7.4375 12.4375 C-4.55538698 11.47679566 -2.73899956 11.33168117 0.25 11.375 C1.46236328 11.38853516 1.46236328 11.38853516 2.69921875 11.40234375 C3.62154297 11.41974609 3.62154297 11.41974609 4.5625 11.4375 C3.9025 9.4575 3.2425 7.4775 2.5625 5.4375 C0.14630177 5.18719023 0.14630177 5.18719023 -2.4375 5.4375 C-3.4275 6.9225 -3.4275 6.9225 -4.4375 8.4375 C-7.5625 8.625 -7.5625 8.625 -10.4375 8.4375 C-10.11872276 5.4888105 -9.90637329 3.88813337 -7.73046875 1.796875 C-4.96148486 0.15529681 -3.20335491 0.00444293 0 0 Z " fill="#F7F7F7" transform="translate(204.4375,71.5625)"/>
<path d="M0 0 C3.62259904 1.8837515 5.68975631 4.06926894 7 8 C7 10.31 7 12.62 7 15 C1.06 15 -4.88 15 -11 15 C-10.01 16.98 -9.02 18.96 -8 21 C-7.39671875 21 -6.7934375 21 -6.171875 21 C-2.44791667 21 1.27604167 21 5 21 C5 22.32 5 23.64 5 25 C0.46509264 27.9069919 -2.7060074 28.38472864 -7.8828125 27.57421875 C-11.93185737 26.47604606 -14.14892159 24.37793648 -16.3125 20.875 C-17.71232906 15.02116941 -17.99003197 9.91178587 -15.1875 4.5 C-10.70236457 -0.62586907 -6.48160212 -1.00645996 0 0 Z " fill="#F2F2F2" transform="translate(146,72)"/>
<path d="M0 0 C3.62259904 1.8837515 5.68975631 4.06926894 7 8 C7 10.31 7 12.62 7 15 C1.06 15 -4.88 15 -11 15 C-10.01 16.98 -9.02 18.96 -8 21 C-7.39671875 21 -6.7934375 21 -6.171875 21 C-2.44791667 21 1.27604167 21 5 21 C5 22.32 5 23.64 5 25 C0.46509264 27.9069919 -2.7060074 28.38472864 -7.8828125 27.57421875 C-11.93185737 26.47604606 -14.14892159 24.37793648 -16.3125 20.875 C-17.71232906 15.02116941 -17.99003197 9.91178587 -15.1875 4.5 C-10.70236457 -0.62586907 -6.48160212 -1.00645996 0 0 Z " fill="#F2F2F2" transform="translate(89,72)"/>
<path d="M0 0 C8.58 0 17.16 0 26 0 C24.87538189 7.87232678 24.87538189 7.87232678 22.92578125 10.4296875 C22.50796387 10.99349121 22.09014648 11.55729492 21.65966797 12.13818359 C21.21510254 12.71133301 20.77053711 13.28448242 20.3125 13.875 C19.40385213 15.09293325 18.4962996 16.31168445 17.58984375 17.53125 C17.14753418 18.1190625 16.70522461 18.706875 16.24951172 19.3125 C13.68521274 22.77565642 11.36072448 26.39678895 9 30 C14.94 30.33 20.88 30.66 27 31 C27 32.65 27 34.3 27 36 C18.09 36 9.18 36 0 36 C0 30.88667353 0.13654239 30.18768761 2.921875 26.34765625 C3.53546875 25.48849609 4.1490625 24.62933594 4.78125 23.74414062 C5.4309375 22.85919922 6.080625 21.97425781 6.75 21.0625 C8.01603913 19.30368344 9.28167428 17.54457601 10.546875 15.78515625 C11.39523926 14.62318726 11.39523926 14.62318726 12.26074219 13.43774414 C14.2363548 10.66872506 16.11316204 7.83025694 18 5 C12.06 5 6.12 5 0 5 C0 3.35 0 1.7 0 0 Z " fill="#F7F7F7" transform="translate(42,63)"/>
<path d="M0 0 C3.30962528 1.71845928 5.41966529 3.05036138 7.375 6.25 C8.54811358 11.41169974 8.60023269 15.40938337 6.75 20.3125 C4.93461459 23.1004133 3.98413664 24.54825785 1 26 C-4.05747126 26.64221857 -4.05747126 26.64221857 -7 26 C-9.69105198 23.82425584 -11.45532928 22.08934144 -13 19 C-14.03994013 9.07599989 -14.03994013 9.07599989 -11.953125 4.91015625 C-8.29622389 0.51111933 -5.60838026 -0.53926733 0 0 Z " fill="#262626" transform="translate(522,469)"/>
<path d="M0 0 C3.98915567 2.1480069 6.33509525 3.78832314 8 8 C8.64095668 12.0886289 8.95574033 16.22708392 6.94921875 19.94921875 C4.63602925 22.76735228 2.66029464 24.74231183 -0.98828125 25.30859375 C-7.12322931 25.64885137 -7.12322931 25.64885137 -9.66796875 23.765625 C-13.35261734 19.40023489 -14.30801309 15.63801484 -14.21484375 9.99609375 C-13.89350529 7.01056732 -12.90308743 5.29682965 -11 3 C-7.33060635 0.12398876 -4.62619262 -0.66088466 0 0 Z " fill="#6F6F6F" transform="translate(204,355)"/>
<path d="M0 0 C1.98 0 3.96 0 6 0 C6 0.66 6 1.32 6 2 C6.99 1.34 7.98 0.68 9 0 C11.12109375 -0.3359375 11.12109375 -0.3359375 13.4375 -0.375 C14.19933594 -0.40335937 14.96117187 -0.43171875 15.74609375 -0.4609375 C18.89915999 0.18388367 19.98436587 1.52794165 22 4 C22.45410156 6.56542969 22.45410156 6.56542969 22.390625 9.421875 C22.37128906 10.95908203 22.37128906 10.95908203 22.3515625 12.52734375 C22.31804687 13.59082031 22.28453125 14.65429688 22.25 15.75 C22.23195313 16.82894531 22.21390625 17.90789062 22.1953125 19.01953125 C22.14821415 21.68058788 22.082456 24.33984254 22 27 C20.02 27 18.04 27 16 27 C15.67 20.07 15.34 13.14 15 6 C12.69 6 10.38 6 8 6 C6.41596476 7.58403524 6.78025065 9.2771638 6.68359375 11.47265625 C6.64169922 12.37177734 6.59980469 13.27089844 6.55664062 14.19726562 C6.49766602 15.61555664 6.49766602 15.61555664 6.4375 17.0625 C6.37272461 18.4865918 6.37272461 18.4865918 6.30664062 19.93945312 C6.20020724 22.29281353 6.09818992 24.64628354 6 27 C4.02 27 2.04 27 0 27 C0 18.09 0 9.18 0 0 Z " fill="#F8F8F8" transform="translate(302,72)"/>
<path d="M0 0 C1.98 0 3.96 0 6 0 C6.33 7.26 6.66 14.52 7 22 C13.4 21.8 13.4 21.8 15 20 C15.15655027 18.51361008 15.25066943 17.02050873 15.31640625 15.52734375 C15.35830078 14.62822266 15.40019531 13.72910156 15.44335938 12.80273438 C15.48267578 11.85720703 15.52199219 10.91167969 15.5625 9.9375 C15.60568359 8.98810547 15.64886719 8.03871094 15.69335938 7.06054688 C15.79979276 4.70718647 15.90181008 2.35371646 16 0 C17.98 0 19.96 0 22 0 C22 8.91 22 17.82 22 27 C20.35 27 18.7 27 17 27 C17 26.34 17 25.68 17 25 C16.01 25.66 15.02 26.32 14 27 C11.625 27.30078125 11.625 27.30078125 9 27.3125 C7.700625 27.33763672 7.700625 27.33763672 6.375 27.36328125 C3.53307234 26.9285785 2.70428217 26.27415152 1 24 C0.01956036 21.05868109 -0.11621202 19.17498335 -0.09765625 16.11328125 C-0.09443359 15.17548828 -0.09121094 14.23769531 -0.08789062 13.27148438 C-0.07532227 11.80678711 -0.07532227 11.80678711 -0.0625 10.3125 C-0.05798828 9.32443359 -0.05347656 8.33636719 -0.04882812 7.31835938 C-0.03704303 4.87884526 -0.02059011 2.43945311 0 0 Z " fill="#F9F9F9" transform="translate(274,72)"/>
<path d="M0 0 C3.1875 2.3125 3.1875 2.3125 5 5 C5 5.99 5 6.98 5 8 C2.1875 8.1875 2.1875 8.1875 -1 8 C-2 7 -3 6 -4 5 C-7.12549017 4.74951364 -7.12549017 4.74951364 -10 5 C-9.9170576 6.95944066 -9.9170576 6.95944066 -9 9 C-6.55985344 10.25706236 -6.55985344 10.25706236 -3.625 11.0625 C2.74485082 13.02051483 2.74485082 13.02051483 5 16 C5.68619702 19.94563286 5.34784372 21.49506557 3.0625 24.8125 C-0.93994428 27.67138877 -4.11183436 28.41707898 -9 28 C-12.0676405 27.07628669 -13.41608922 26.09942751 -16 24 C-16.9375 20.75 -16.9375 20.75 -17 18 C-15.02 18 -13.04 18 -11 18 C-10.34 19.32 -9.68 20.64 -9 22 C-7.02 22 -5.04 22 -3 22 C-2.67 20.68 -2.34 19.36 -2 18 C-3.13888672 17.61908203 -3.13888672 17.61908203 -4.30078125 17.23046875 C-5.29464844 16.88628906 -6.28851563 16.54210937 -7.3125 16.1875 C-8.29863281 15.85105469 -9.28476562 15.51460937 -10.30078125 15.16796875 C-12.91534387 14.03663123 -14.31233851 13.26516692 -16 11 C-16.59059604 6.93965219 -16.66760547 4.89781425 -14.1875 1.5625 C-9.47879535 -0.74568855 -5.1442929 -0.9100848 0 0 Z " fill="#F1F1F1" transform="translate(375,72)"/>
<path d="M0 0 C3.1875 2.3125 3.1875 2.3125 5 5 C5 5.99 5 6.98 5 8 C2.1875 8.1875 2.1875 8.1875 -1 8 C-2 7 -3 6 -4 5 C-7.12549017 4.74951364 -7.12549017 4.74951364 -10 5 C-9.9170576 6.95944066 -9.9170576 6.95944066 -9 9 C-6.55985344 10.25706236 -6.55985344 10.25706236 -3.625 11.0625 C2.74485082 13.02051483 2.74485082 13.02051483 5 16 C5.68619702 19.94563286 5.34784372 21.49506557 3.0625 24.8125 C-0.93994428 27.67138877 -4.11183436 28.41707898 -9 28 C-12.0676405 27.07628669 -13.41608922 26.09942751 -16 24 C-16.9375 20.75 -16.9375 20.75 -17 18 C-15.02 18 -13.04 18 -11 18 C-10.34 19.32 -9.68 20.64 -9 22 C-7.02 22 -5.04 22 -3 22 C-2.67 20.68 -2.34 19.36 -2 18 C-3.13888672 17.61908203 -3.13888672 17.61908203 -4.30078125 17.23046875 C-5.29464844 16.88628906 -6.28851563 16.54210937 -7.3125 16.1875 C-8.29863281 15.85105469 -9.28476563 15.51460937 -10.30078125 15.16796875 C-12.91534387 14.03663123 -14.31233851 13.26516692 -16 11 C-16.59059604 6.93965219 -16.66760547 4.89781425 -14.1875 1.5625 C-9.47879535 -0.74568855 -5.1442929 -0.9100848 0 0 Z " fill="#F1F1F1" transform="translate(264,72)"/>
<path d="M0 0 C3.1875 2.3125 3.1875 2.3125 5 5 C5 5.99 5 6.98 5 8 C2.1875 8.1875 2.1875 8.1875 -1 8 C-2 7 -3 6 -4 5 C-7.12549017 4.74951364 -7.12549017 4.74951364 -10 5 C-9.9170576 6.95944066 -9.9170576 6.95944066 -9 9 C-6.55985344 10.25706236 -6.55985344 10.25706236 -3.625 11.0625 C2.74485082 13.02051483 2.74485082 13.02051483 5 16 C5.68619702 19.94563286 5.34784372 21.49506557 3.0625 24.8125 C-0.93994428 27.67138877 -4.11183436 28.41707898 -9 28 C-12.0676405 27.07628669 -13.41608922 26.09942751 -16 24 C-16.9375 20.75 -16.9375 20.75 -17 18 C-15.02 18 -13.04 18 -11 18 C-10.34 19.32 -9.68 20.64 -9 22 C-7.02 22 -5.04 22 -3 22 C-2.67 20.68 -2.34 19.36 -2 18 C-3.13888672 17.61908203 -3.13888672 17.61908203 -4.30078125 17.23046875 C-5.29464844 16.88628906 -6.28851563 16.54210937 -7.3125 16.1875 C-8.29863281 15.85105469 -9.28476563 15.51460937 -10.30078125 15.16796875 C-12.91534387 14.03663123 -14.31233851 13.26516692 -16 11 C-16.59059604 6.93965219 -16.66760547 4.89781425 -14.1875 1.5625 C-9.47879535 -0.74568855 -5.1442929 -0.9100848 0 0 Z " fill="#F1F1F1" transform="translate(238,72)"/>
<path d="M0 0 C2.475 0.495 2.475 0.495 5 1 C5.66 0.67 6.32 0.34 7 0 C9.05859375 -0.16796875 9.05859375 -0.16796875 11.4375 -0.1875 C12.21996094 -0.20167969 13.00242187 -0.21585938 13.80859375 -0.23046875 C16 0 16 0 19 2 C19.66 1.34 20.32 0.68 21 0 C23.27734375 -0.30078125 23.27734375 -0.30078125 25.9375 -0.3125 C27.25041016 -0.33763672 27.25041016 -0.33763672 28.58984375 -0.36328125 C31.52119495 0.07855937 32.21584798 0.67442377 34 3 C34.34057617 5.26831055 34.34057617 5.26831055 34.29296875 7.88671875 C34.2784668 9.2934082 34.2784668 9.2934082 34.26367188 10.72851562 C34.23853516 11.70498047 34.21339844 12.68144531 34.1875 13.6875 C34.16719727 15.16959961 34.16719727 15.16959961 34.14648438 16.68164062 C34.11112203 19.12164231 34.06177033 21.56054719 34 24 C32.68 24 31.36 24 30 24 C29.97494385 23.42967041 29.9498877 22.85934082 29.92407227 22.27172852 C29.80843451 19.70173843 29.68556376 17.13214473 29.5625 14.5625 C29.52318359 13.66466797 29.48386719 12.76683594 29.44335938 11.84179688 C29.40146484 10.98779297 29.35957031 10.13378906 29.31640625 9.25390625 C29.27974854 8.46314697 29.24309082 7.6723877 29.20532227 6.85766602 C29.19436743 4.98598559 29.19436743 4.98598559 28 4 C25.04182893 3.74994614 25.04182893 3.74994614 22 4 C19.64641749 6.35358251 19.72128096 6.92968394 19.5859375 10.1328125 C19.54726562 10.93847656 19.50859375 11.74414062 19.46875 12.57421875 C19.42234375 13.83685547 19.42234375 13.83685547 19.375 15.125 C19.33632812 15.97449219 19.29765625 16.82398438 19.2578125 17.69921875 C19.16343506 19.79911684 19.08062414 21.89952891 19 24 C17.68 24 16.36 24 15 24 C14.97494385 23.42967041 14.9498877 22.85934082 14.92407227 22.27172852 C14.80843451 19.70173843 14.68556376 17.13214473 14.5625 14.5625 C14.52318359 13.66466797 14.48386719 12.76683594 14.44335938 11.84179688 C14.40146484 10.98779297 14.35957031 10.13378906 14.31640625 9.25390625 C14.27974854 8.46314697 14.24309082 7.6723877 14.20532227 6.85766602 C14.19436743 4.98598559 14.19436743 4.98598559 13 4 C9.5 3.83333333 9.5 3.83333333 6 4 C4.45049732 5.54950268 4.78344807 7.09990594 4.68359375 9.25390625 C4.64169922 10.10791016 4.59980469 10.96191406 4.55664062 11.84179688 C4.49766602 13.18854492 4.49766602 13.18854492 4.4375 14.5625 C4.39431641 15.46419922 4.35113281 16.36589844 4.30664062 17.29492188 C4.20021858 19.52978485 4.09820012 21.76476308 4 24 C2.68 24 1.36 24 0 24 C0 16.08 0 8.16 0 0 Z " fill="#6B6B6B" transform="translate(80,242)"/>
<path d="M0 0 C3.39389448 1.2428346 4.43222702 2.66998999 6.21875 5.8125 C6.68812146 9.10176717 6.59724806 12.31123271 6.46875 15.625 C6.45070312 16.50865234 6.43265625 17.39230469 6.4140625 18.30273438 C6.36713513 20.47312543 6.29539731 22.64295519 6.21875 24.8125 C4.89875 24.8125 3.57875 24.8125 2.21875 24.8125 C2.21875 24.1525 2.21875 23.4925 2.21875 22.8125 C1.72375 23.1425 1.22875 23.4725 0.71875 23.8125 C-2.99794939 25.29917975 -5.7754456 25.13042098 -9.78125 24.8125 C-11.78125 23.8125 -11.78125 23.8125 -12.78125 21.8125 C-13.5014881 16.77083333 -13.5014881 16.77083333 -12.78125 13.8125 C-9.51119806 10.54244806 -6.91624415 9.5945996 -2.40625 9.5625 C-1.21 9.645 -0.01375 9.7275 1.21875 9.8125 C0.88875 8.1625 0.55875 6.5125 0.21875 4.8125 C-3.19781024 4.64572718 -3.19781024 4.64572718 -6.78125 4.8125 C-7.44125 5.4725 -8.10125 6.1325 -8.78125 6.8125 C-10.10125 6.8125 -11.42125 6.8125 -12.78125 6.8125 C-10.05906292 0.23388123 -6.66551275 -0.54785036 0 0 Z " fill="#737373" transform="translate(132.78125,241.1875)"/>
<path d="M0 0 C3.39389448 1.2428346 4.43222702 2.66998999 6.21875 5.8125 C6.68812146 9.10176717 6.59724806 12.31123271 6.46875 15.625 C6.45070313 16.50865234 6.43265625 17.39230469 6.4140625 18.30273438 C6.36713513 20.47312543 6.29539731 22.64295519 6.21875 24.8125 C4.89875 24.8125 3.57875 24.8125 2.21875 24.8125 C2.21875 24.1525 2.21875 23.4925 2.21875 22.8125 C1.703125 23.1425 1.1875 23.4725 0.65625 23.8125 C-3.4231337 25.48609331 -7.1393663 25.48609331 -11.21875 23.8125 C-13.23652226 21.22975151 -13.46806243 18.99380494 -13.2890625 15.75390625 C-12.78125 13.8125 -12.78125 13.8125 -10.28125 11.3125 C-6.01010565 9.48200957 -3.37671808 9.49557117 1.21875 9.8125 C0.88875 8.1625 0.55875 6.5125 0.21875 4.8125 C-3.19781024 4.64572718 -3.19781024 4.64572718 -6.78125 4.8125 C-7.44125 5.4725 -8.10125 6.1325 -8.78125 6.8125 C-10.10125 6.8125 -11.42125 6.8125 -12.78125 6.8125 C-10.05906292 0.23388123 -6.66551275 -0.54785036 0 0 Z " fill="#737373" transform="translate(95.78125,355.1875)"/>
<path d="M0 0 C13.32515902 -0.49352441 13.32515902 -0.49352441 16.45703125 1.796875 C18 4 18 4 17.9375 7.5 C17 11 17 11 14 15 C15.65 18.3 17.3 21.6 19 25 C17.35 25 15.7 25 14 25 C13.69707031 24.36191406 13.39414062 23.72382812 13.08203125 23.06640625 C12.66308594 22.24011719 12.24414062 21.41382813 11.8125 20.5625 C11.40644531 19.73878906 11.00039063 18.91507813 10.58203125 18.06640625 C9.13366813 15.75309288 9.13366813 15.75309288 6.32421875 15.21484375 C5.55722656 15.14394531 4.79023437 15.07304688 4 15 C4 18.3 4 21.6 4 25 C2.68 25 1.36 25 0 25 C0 16.75 0 8.5 0 0 Z " fill="#212121" transform="translate(603,592)"/>
<path d="M0 0 C13.32515902 -0.49352441 13.32515902 -0.49352441 16.45703125 1.796875 C18 4 18 4 17.9375 7.5 C17 11 17 11 14 15 C15.65 18.3 17.3 21.6 19 25 C17.35 25 15.7 25 14 25 C13.69707031 24.36191406 13.39414062 23.72382812 13.08203125 23.06640625 C12.66308594 22.24011719 12.24414062 21.41382813 11.8125 20.5625 C11.40644531 19.73878906 11.00039063 18.91507813 10.58203125 18.06640625 C9.13366813 15.75309288 9.13366813 15.75309288 6.32421875 15.21484375 C5.55722656 15.14394531 4.79023438 15.07304688 4 15 C4 18.3 4 21.6 4 25 C2.68 25 1.36 25 0 25 C0 16.75 0 8.5 0 0 Z " fill="#212121" transform="translate(461,592)"/>
<path d="M0 0 C6.6 0 13.2 0 20 0 C20 1.32 20 2.64 20 4 C14.72 4 9.44 4 4 4 C4 7.3 4 10.6 4 14 C8.62 14 13.24 14 18 14 C18 15.32 18 16.64 18 18 C13.38 18 8.76 18 4 18 C4 21.96 4 25.92 4 30 C9.28 30 14.56 30 20 30 C20 30.99 20 31.98 20 33 C13.4 33 6.8 33 0 33 C0 22.11 0 11.22 0 0 Z " fill="#6E6E6E" transform="translate(55,233)"/>
<path d="M0 0 C2.31 0 4.62 0 7 0 C7 2.31 7 4.62 7 7 C8.65 7 10.3 7 12 7 C12 8.65 12 10.3 12 12 C10.35 12 8.7 12 7 12 C7 17.61 7 23.22 7 29 C8.65 29 10.3 29 12 29 C12 30.65 12 32.3 12 34 C10.56510191 34.13536774 9.12652893 34.23217143 7.6875 34.3125 C6.88699219 34.37050781 6.08648437 34.42851563 5.26171875 34.48828125 C3 34 3 34 1.21875 32.03125 C-0.41107049 27.9775939 -0.32870959 24.50706526 -0.1875 20.1875 C-0.16719727 19.00510742 -0.16719727 19.00510742 -0.14648438 17.79882812 C-0.11133456 15.86558831 -0.05753361 13.93270318 0 12 C-1.32 12 -2.64 12 -4 12 C-4 10.35 -4 8.7 -4 7 C-2.68 7 -1.36 7 0 7 C0 4.69 0 2.38 0 0 Z " fill="#E6E6E6" transform="translate(114,65)"/>
<path d="M0 0 C0 1.65 0 3.3 0 5 C-1.98 5.66 -3.96 6.32 -6 7 C-6.33 8.65 -6.66 10.3 -7 12 C-5.02 12 -3.04 12 -1 12 C-1 13.32 -1 14.64 -1 16 C-2.98 16 -4.96 16 -7 16 C-7 23.59 -7 31.18 -7 39 C-8.98 39 -10.96 39 -13 39 C-13 31.74 -13 24.48 -13 17 C-14.32 17 -15.64 17 -17 17 C-17 15.35 -17 13.7 -17 12 C-15.68 12 -14.36 12 -13 12 C-13.0825 11.113125 -13.165 10.22625 -13.25 9.3125 C-12.94530814 5.27533282 -11.77959995 3.86135289 -9 1 C-6.04335481 -0.4783226 -3.25770263 -0.06032783 0 0 Z " fill="#F7F7F7" transform="translate(191,60)"/>
<path d="M0 0 C0.99 0 1.98 0 3 0 C3.67413211 1.91405367 4.3390332 3.83136026 5 5.75 C5.37125 6.81734375 5.7425 7.8846875 6.125 8.984375 C7 12 7 12 7 16 C7.66 16 8.32 16 9 16 C9.12117187 15.34773438 9.24234375 14.69546875 9.3671875 14.0234375 C10.28943989 9.21353658 11.30167277 4.60974535 13 0 C14.65 0.33 16.3 0.66 18 1 C18.41572266 2.37285156 18.41572266 2.37285156 18.83984375 3.7734375 C19.20207031 4.96195312 19.56429687 6.15046875 19.9375 7.375 C20.29714844 8.55835938 20.65679687 9.74171875 21.02734375 10.9609375 C21.87576274 13.87926818 21.87576274 13.87926818 23 16 C24.32 10.72 25.64 5.44 27 0 C28.32 0 29.64 0 31 0 C28.33085424 13.30786856 28.33085424 13.30786856 26.5625 19.3125 C26.35753906 20.00988281 26.15257812 20.70726562 25.94140625 21.42578125 C25 23 25 23 22.90234375 23.73046875 C22.27457031 23.81941406 21.64679688 23.90835937 21 24 C20.81824219 23.443125 20.63648438 22.88625 20.44921875 22.3125 C18.75137815 17.15803009 16.93577765 12.06989385 15 7 C14.68546875 8.14339844 14.3709375 9.28679687 14.046875 10.46484375 C13.61547495 11.95598741 13.18313437 13.44685919 12.75 14.9375 C12.54503906 15.69224609 12.34007812 16.44699219 12.12890625 17.22460938 C11.484375 19.40234375 11.484375 19.40234375 10 23 C7.90722656 23.72485352 7.90722656 23.72485352 6 24 C0.44419134 8.43963554 0.44419134 8.43963554 0 0 Z " fill="#6E6E6E" transform="translate(155,356)"/>
<path d="M0 0 C1.65 0 3.3 0 5 0 C6.4855957 1.56054688 6.4855957 1.56054688 7.67578125 3.71875 C8.11083984 4.48574219 8.54589844 5.25273437 8.99414062 6.04296875 C9.42919922 6.85378906 9.86425781 7.66460937 10.3125 8.5 C10.76689453 9.31082031 11.22128906 10.12164062 11.68945312 10.95703125 C12.80987626 12.96199897 13.90717162 14.979859 15 17 C15.33 11.39 15.66 5.78 16 0 C17.32 0 18.64 0 20 0 C20 8.25 20 16.5 20 25 C15 25 15 25 13.5144043 23.53125 C13.12164307 22.8609375 12.72888184 22.190625 12.32421875 21.5 C11.88916016 20.778125 11.45410156 20.05625 11.00585938 19.3125 C10.57080078 18.549375 10.13574219 17.78625 9.6875 17 C9.23310547 16.236875 8.77871094 15.47375 8.31054688 14.6875 C7.19062327 12.80131287 6.09313287 10.90183893 5 9 C4.67 14.28 4.34 19.56 4 25 C2.68 25 1.36 25 0 25 C0 16.75 0 8.5 0 0 Z " fill="#212121" transform="translate(570,470)"/>
<path d="M0 0 C3 2.3125 3 2.3125 5 5 C5 5.99 5 6.98 5 8 C3.68 8 2.36 8 1 8 C0.34 7.01 -0.32 6.02 -1 5 C-4.5 4.5 -4.5 4.5 -8 5 C-10.13749925 8.20624887 -10.29574999 9.22458103 -10.3125 12.9375 C-10.32925781 13.79214844 -10.34601563 14.64679687 -10.36328125 15.52734375 C-9.92193581 18.53134014 -9.16858971 19.88489568 -7 22 C-4.9511352 22.48057715 -4.9511352 22.48057715 -2.8125 22.25 C-0.9253125 22.12625 -0.9253125 22.12625 1 22 C1 20.02 1 18.04 1 16 C-0.65 16 -2.3 16 -4 16 C-4 15.01 -4 14.02 -4 13 C-1.03 13 1.94 13 5 13 C5.28529317 16.37913907 5.4127 19.6278066 5 23 C2.25427032 26.01144545 -0.58695169 26.22562933 -4.5 26.5 C-8.22315257 26.38830542 -8.90698688 26.07363538 -12 23.625 C-15.65918716 18.82231685 -15.35339901 14.88688344 -15 9 C-14.18761098 5.60273683 -13.23878953 4.2598592 -10.875 1.6875 C-7.1453998 -0.50161316 -4.22690942 -1.00559539 0 0 Z " fill="#242524" transform="translate(518,591)"/>
<path d="M0 0 C3 2.3125 3 2.3125 5 5 C5 5.99 5 6.98 5 8 C3.68 8 2.36 8 1 8 C0.34 7.01 -0.32 6.02 -1 5 C-4.5 4.5 -4.5 4.5 -8 5 C-10.13749925 8.20624887 -10.29574999 9.22458103 -10.3125 12.9375 C-10.32925781 13.79214844 -10.34601562 14.64679688 -10.36328125 15.52734375 C-9.92193581 18.53134014 -9.16858971 19.88489568 -7 22 C-4.9511352 22.48057715 -4.9511352 22.48057715 -2.8125 22.25 C-0.9253125 22.12625 -0.9253125 22.12625 1 22 C1 20.02 1 18.04 1 16 C-0.65 16 -2.3 16 -4 16 C-4 15.01 -4 14.02 -4 13 C-1.03 13 1.94 13 5 13 C5.28529317 16.37913907 5.4127 19.6278066 5 23 C2.25427032 26.01144545 -0.58695169 26.22562933 -4.5 26.5 C-8.22315257 26.38830542 -8.90698688 26.07363538 -12 23.625 C-15.65918716 18.82231685 -15.35339901 14.88688344 -15 9 C-14.18761098 5.60273683 -13.23878953 4.2598592 -10.875 1.6875 C-7.1453998 -0.50161316 -4.22690942 -1.00559539 0 0 Z " fill="#242424" transform="translate(549,469)"/>
<path d="M0 0 C2.875 1.1875 2.875 1.1875 5 3 C5.8125 5.6875 5.8125 5.6875 6 8 C4.68 8 3.36 8 2 8 C1.67 7.01 1.34 6.02 1 5 C-1.97 4.505 -1.97 4.505 -5 4 C-5.66 5.32 -6.32 6.64 -7 8 C-4.3153443 9.6581697 -1.64824804 11.17242743 1.1875 12.5625 C4 14 4 14 6 16 C6.4375 19.4375 6.4375 19.4375 6 23 C3.13184923 25.77852106 1.02144852 25.99727638 -2.9375 26.5 C-6.14928929 26.38420494 -7.97102062 25.66644131 -10.5 23.6875 C-13 21 -13 21 -13 18 C-11.35 18 -9.7 18 -8 18 C-7.34 19.32 -6.68 20.64 -6 22 C-4.02 22 -2.04 22 0 22 C0.33 20.35 0.66 18.7 1 17 C-0.03060547 16.63648438 -0.03060547 16.63648438 -1.08203125 16.265625 C-1.98308594 15.93046875 -2.88414062 15.5953125 -3.8125 15.25 C-4.70582031 14.92515625 -5.59914063 14.6003125 -6.51953125 14.265625 C-9.29063515 12.85170742 -10.46514058 11.68600398 -12 9 C-11.93013292 5.57651315 -11.63458711 3.73221589 -9.375 1.125 C-6.04574611 -0.452015 -3.64527529 -0.38371319 0 0 Z " fill="#2B2B2B" transform="translate(550,591)"/>
<path d="M0 0 C2.1875 1.8125 2.1875 1.8125 3 4.5 C3.061875 5.263125 3.12375 6.02625 3.1875 6.8125 C1.8675 6.8125 0.5475 6.8125 -0.8125 6.8125 C-1.4725 5.8225 -2.1325 4.8325 -2.8125 3.8125 C-6.39607241 3.56234127 -6.39607241 3.56234127 -9.8125 3.8125 C-9.8125 5.1325 -9.8125 6.4525 -9.8125 7.8125 C-8.65621094 8.21082031 -8.65621094 8.21082031 -7.4765625 8.6171875 C-6.47367188 8.97039062 -5.47078125 9.32359375 -4.4375 9.6875 C-2.94089844 10.20957031 -2.94089844 10.20957031 -1.4140625 10.7421875 C1.1875 11.8125 1.1875 11.8125 3.1875 13.8125 C3.63685048 17.25752033 3.56528761 19.15995776 1.8125 22.1875 C-2.2382503 24.69510733 -6.17728556 24.59016887 -10.8125 23.8125 C-13.4375 22 -13.4375 22 -14.8125 19.8125 C-14.8125 18.8225 -14.8125 17.8325 -14.8125 16.8125 C-13.4925 16.8125 -12.1725 16.8125 -10.8125 16.8125 C-10.8125 17.8025 -10.8125 18.7925 -10.8125 19.8125 C-7.5125 19.8125 -4.2125 19.8125 -0.8125 19.8125 C-1.1425 18.1625 -1.4725 16.5125 -1.8125 14.8125 C-2.49957031 14.64234375 -3.18664062 14.4721875 -3.89453125 14.296875 C-4.79558594 14.05453125 -5.69664062 13.8121875 -6.625 13.5625 C-7.96498047 13.21445312 -7.96498047 13.21445312 -9.33203125 12.859375 C-12.23859615 11.63266729 -13.27262117 10.53926219 -14.8125 7.8125 C-14.8125 4.75 -14.8125 4.75 -13.8125 1.8125 C-9.43839331 -1.9367343 -5.22554419 -2.20634088 0 0 Z " fill="#707070" transform="translate(146.8125,356.1875)"/>
<path d="M0 0 C2.1875 1.8125 2.1875 1.8125 3 4.5 C3.061875 5.263125 3.12375 6.02625 3.1875 6.8125 C1.8675 6.8125 0.5475 6.8125 -0.8125 6.8125 C-1.4725 5.8225 -2.1325 4.8325 -2.8125 3.8125 C-6.39607241 3.56234127 -6.39607241 3.56234127 -9.8125 3.8125 C-9.8125 5.1325 -9.8125 6.4525 -9.8125 7.8125 C-8.65621094 8.21082031 -8.65621094 8.21082031 -7.4765625 8.6171875 C-6.47367188 8.97039062 -5.47078125 9.32359375 -4.4375 9.6875 C-2.94089844 10.20957031 -2.94089844 10.20957031 -1.4140625 10.7421875 C1.1875 11.8125 1.1875 11.8125 3.1875 13.8125 C3.63685048 17.25752033 3.56528761 19.15995776 1.8125 22.1875 C-2.2382503 24.69510733 -6.17728556 24.59016887 -10.8125 23.8125 C-13.4375 22 -13.4375 22 -14.8125 19.8125 C-14.8125 18.8225 -14.8125 17.8325 -14.8125 16.8125 C-13.4925 16.8125 -12.1725 16.8125 -10.8125 16.8125 C-10.8125 17.8025 -10.8125 18.7925 -10.8125 19.8125 C-7.5125 19.8125 -4.2125 19.8125 -0.8125 19.8125 C-1.1425 18.1625 -1.4725 16.5125 -1.8125 14.8125 C-2.49957031 14.64234375 -3.18664062 14.4721875 -3.89453125 14.296875 C-4.79558594 14.05453125 -5.69664063 13.8121875 -6.625 13.5625 C-7.96498047 13.21445312 -7.96498047 13.21445312 -9.33203125 12.859375 C-12.23859615 11.63266729 -13.27262117 10.53926219 -14.8125 7.8125 C-14.8125 4.75 -14.8125 4.75 -13.8125 1.8125 C-9.43839331 -1.9367343 -5.22554419 -2.20634088 0 0 Z " fill="#707070" transform="translate(122.8125,356.1875)"/>
<path d="M0 0 C3.4375 0.5625 3.4375 0.5625 5.375 2 C6.98466406 5.88213097 7.0925201 9.42630567 6.4375 13.5625 C4.8125 16.625 4.8125 16.625 2.4375 18.5625 C-0.5625 19.1875 -0.5625 19.1875 -3.5625 18.5625 C-6.05619699 16.46254464 -7.30595547 14.86092946 -7.9453125 11.625 C-8.15377287 7.95609754 -7.71940079 5.86374951 -6 2.5625 C-3.5625 0.5625 -3.5625 0.5625 0 0 Z " fill="#F4F4F4" transform="translate(201.5625,358.4375)"/>
<path d="M0 0 C3.5 0.5625 3.5 0.5625 5.4375 2.5625 C6.78486382 6.36682137 7.12099396 9.570396 6.5 13.5625 C5.34367254 15.92543002 4.35016245 17.71233755 2.5 19.5625 C0.1875 19.9375 0.1875 19.9375 -2.5 19.5625 C-5.22684711 17.35154288 -6.34363569 15.637939 -6.8515625 12.14453125 C-7.06599647 5.54581327 -7.06599647 5.54581327 -5.19140625 2.2890625 C-3.5 0.5625 -3.5 0.5625 0 0 Z " fill="#CCCECD" transform="translate(519.5,472.4375)"/>
<path d="M0 0 C4.66666667 0 9.33333333 0 14 0 C14 1.65 14 3.3 14 5 C13.030625 5.309375 12.06125 5.61875 11.0625 5.9375 C8.15934208 6.69523342 8.15934208 6.69523342 7 8 C6.84379445 9.41327947 6.74943827 10.8335459 6.68359375 12.25390625 C6.64169922 13.10791016 6.59980469 13.96191406 6.55664062 14.84179688 C6.49766602 16.18854492 6.49766602 16.18854492 6.4375 17.5625 C6.39431641 18.46419922 6.35113281 19.36589844 6.30664062 20.29492188 C6.20021858 22.52978485 6.09820012 24.76476308 6 27 C4.02 27 2.04 27 0 27 C0 18.09 0 9.18 0 0 Z " fill="#F9F9F9" transform="translate(157,72)"/>
<path d="M0 0 C1.17949219 0.10183594 2.35898437 0.20367188 3.57421875 0.30859375 C4.47785156 0.39238281 5.38148438 0.47617187 6.3125 0.5625 C6.3125 1.5525 6.3125 2.5425 6.3125 3.5625 C2.3525 3.5625 -1.6075 3.5625 -5.6875 3.5625 C-5.6875 5.8725 -5.6875 8.1825 -5.6875 10.5625 C-2.3875 10.5625 0.9125 10.5625 4.3125 10.5625 C4.3125 11.5525 4.3125 12.5425 4.3125 13.5625 C1.0125 13.5625 -2.2875 13.5625 -5.6875 13.5625 C-5.6875 16.5325 -5.6875 19.5025 -5.6875 22.5625 C-1.7275 22.5625 2.2325 22.5625 6.3125 22.5625 C6.3125 23.5525 6.3125 24.5425 6.3125 25.5625 C1.0325 25.5625 -4.2475 25.5625 -9.6875 25.5625 C-9.6875 17.3125 -9.6875 9.0625 -9.6875 0.5625 C-6.14075997 -0.61974668 -3.71227005 -0.33079634 0 0 Z " fill="#1F1F1F" transform="translate(592.6875,591.4375)"/>
<path d="M0 0 C1.17949219 0.10183594 2.35898437 0.20367188 3.57421875 0.30859375 C4.47785156 0.39238281 5.38148438 0.47617187 6.3125 0.5625 C6.3125 1.5525 6.3125 2.5425 6.3125 3.5625 C2.3525 3.5625 -1.6075 3.5625 -5.6875 3.5625 C-5.6875 5.8725 -5.6875 8.1825 -5.6875 10.5625 C-2.3875 10.5625 0.9125 10.5625 4.3125 10.5625 C4.3125 11.5525 4.3125 12.5425 4.3125 13.5625 C1.0125 13.5625 -2.2875 13.5625 -5.6875 13.5625 C-5.6875 16.5325 -5.6875 19.5025 -5.6875 22.5625 C-1.7275 22.5625 2.2325 22.5625 6.3125 22.5625 C6.3125 23.5525 6.3125 24.5425 6.3125 25.5625 C1.0325 25.5625 -4.2475 25.5625 -9.6875 25.5625 C-9.6875 17.3125 -9.6875 9.0625 -9.6875 0.5625 C-6.14075997 -0.61974668 -3.71227005 -0.33079634 0 0 Z " fill="#1F1F1F" transform="translate(493.6875,591.4375)"/>
<path d="M0 0 C3.5 0.5 3.5 0.5 5.19140625 1.65625 C7.05798883 4.28618128 6.933584 6.30454411 6.9375 9.5 C6.95683594 10.551875 6.97617188 11.60375 6.99609375 12.6875 C6.5 15.5 6.5 15.5 4.62890625 17.34375 C1.92201547 18.81391453 0.53310824 19.10662165 -2.5 18.5 C-4.92644949 16.40144909 -6.26952914 14.7701505 -6.8515625 11.5625 C-6.99212519 8.18899548 -6.57033127 5.6985824 -5.4375 2.5 C-3.5 0.5 -3.5 0.5 0 0 Z " fill="#F1F1F1" transform="translate(241.5,358.5)"/>
<path d="M0 0 C2.31 0 4.62 0 7 0 C7 8.91 7 17.82 7 27 C4.69 27 2.38 27 0 27 C0 18.09 0 9.18 0 0 Z " fill="#E6E6E6" transform="translate(100,72)"/>
<path d="M0 0 C2 2 2 2 2.265625 4.96875 C2.26046875 6.1340625 2.2553125 7.299375 2.25 8.5 C2.25515625 9.6653125 2.2603125 10.830625 2.265625 12.03125 C2 15 2 15 0 17 C-6.1026878 17.66574776 -6.1026878 17.66574776 -8.9375 15.5625 C-10.54136452 11.69435616 -10.537354 8.12475961 -10 4 C-7.96745006 -0.90203221 -4.91059819 -0.53570162 0 0 Z " fill="#2D2D2D" transform="translate(345,77)"/>
<path d="M0 0 C11.48148148 -0.37037037 11.48148148 -0.37037037 13.859375 1.328125 C15.6653647 3.97526059 15.44479916 5.88640589 15 9 C13.6875 11.375 13.6875 11.375 11 13 C7.26603606 13.33310182 3.76345914 13.17921234 0 13 C0 8.71 0 4.42 0 0 Z " fill="#F4F4F4" transform="translate(59,351)"/>
<path d="M0 0 C0.99 0.33 1.98 0.66 3 1 C2.27087654 1.49056633 2.27087654 1.49056633 1.52702332 1.99104309 C-0.83047998 5.0925822 -0.43922835 8.39807975 -0.43237305 12.14331055 C-0.4425647 12.97280212 -0.45275635 13.8022937 -0.46325684 14.65692139 C-0.49346498 17.40025518 -0.50266462 20.14324026 -0.51171875 22.88671875 C-0.52855965 24.78816394 -0.54670909 26.68959795 -0.56611633 28.59101868 C-0.61368642 33.59689849 -0.64345041 38.60273301 -0.66955566 43.60876465 C-0.69932587 48.71648099 -0.74586831 53.82404115 -0.79101562 58.93164062 C-0.87712845 68.95434551 -0.94443821 78.97708247 -1 89 C-3.52431526 86.47568474 -3.2475634 84.89793853 -3.28216553 81.45373535 C-3.27968811 80.680177 -3.27721069 79.90661865 -3.2746582 79.10961914 C-3.27976913 78.29484604 -3.28488007 77.48007294 -3.29014587 76.64060974 C-3.30408215 73.93871785 -3.30308207 71.23707988 -3.30078125 68.53515625 C-3.30466603 66.66189987 -3.30900024 64.78864436 -3.31376648 62.91539001 C-3.32123742 58.98531237 -3.32093115 55.05532454 -3.31567383 51.12524414 C-3.30987871 46.08318335 -3.32680697 41.04148983 -3.3500185 35.99948978 C-3.36473435 32.12965232 -3.36563047 28.25990374 -3.36250877 24.39004326 C-3.36302309 22.53086049 -3.36828146 20.6716729 -3.37832069 18.81251717 C-3.39062602 16.21469229 -3.38392921 13.6175883 -3.37231445 11.01977539 C-3.37995819 10.24824127 -3.38760193 9.47670715 -3.39547729 8.68179321 C-3.34366122 3.45149405 -3.34366122 3.45149405 -1.47673035 0.99876404 C-0.74574883 0.50437584 -0.74574883 0.50437584 0 0 Z " fill="#E1E2E1" transform="translate(52,435)"/>
<path d="M0 0 C0.99 0.33 1.98 0.66 3 1 C2.27087654 1.49056633 2.27087654 1.49056633 1.52702332 1.99104309 C-0.83047998 5.0925822 -0.43922835 8.39807975 -0.43237305 12.14331055 C-0.4425647 12.97280212 -0.45275635 13.8022937 -0.46325684 14.65692139 C-0.49346498 17.40025518 -0.50266462 20.14324026 -0.51171875 22.88671875 C-0.52855965 24.78816394 -0.54670909 26.68959795 -0.56611633 28.59101868 C-0.61368642 33.59689849 -0.64345041 38.60273301 -0.66955566 43.60876465 C-0.69932587 48.71648099 -0.74586831 53.82404115 -0.79101562 58.93164062 C-0.87712845 68.95434551 -0.94443821 78.97708247 -1 89 C-3.43869558 85.34195663 -3.28225651 82.6231882 -3.25878906 78.39501953 C-3.26404602 77.23598114 -3.26404602 77.23598114 -3.26940918 76.05352783 C-3.27821887 73.49653159 -3.27237893 70.93981162 -3.265625 68.3828125 C-3.26697215 66.60545804 -3.26891309 64.82810393 -3.27142334 63.05075073 C-3.2743738 59.32334896 -3.2700805 55.59604299 -3.26074219 51.86865234 C-3.24936427 47.09480191 -3.25589707 42.32117678 -3.26788712 37.54733467 C-3.27512198 33.87558299 -3.27281002 30.2038845 -3.26763153 26.5321312 C-3.26629867 24.77229663 -3.26793 23.01245722 -3.27259064 21.25262833 C-3.27768073 18.78954579 -3.26991011 16.32682518 -3.25878906 13.86376953 C-3.26283752 13.13839996 -3.26688599 12.4130304 -3.27105713 11.66567993 C-3.23622652 7.49272415 -3.12416549 3.12416549 0 0 Z " fill="#E1E1E1" transform="translate(52,557)"/>
<path d="M0 0 C1.7325 0.1546875 1.7325 0.1546875 3.5 0.3125 C5.73465229 3.66447843 5.77108649 4.89041246 5.75 8.8125 C5.75515625 9.7715625 5.7603125 10.730625 5.765625 11.71875 C5.5 14.3125 5.5 14.3125 3.5 17.3125 C0 17.625 0 17.625 -3.5 17.3125 C-5.5 15.3125 -5.5 15.3125 -5.765625 12.34375 C-5.76046875 11.1784375 -5.7553125 10.013125 -5.75 8.8125 C-5.75515625 7.6471875 -5.7603125 6.481875 -5.765625 5.28125 C-5.36866944 0.84468784 -4.38498483 0.3915165 0 0 Z " fill="#272727" transform="translate(458.5,76.6875)"/>
<path d="M0 0 C1.7325 0.1546875 1.7325 0.1546875 3.5 0.3125 C5.73465229 3.66447843 5.77108649 4.89041246 5.75 8.8125 C5.75515625 9.7715625 5.7603125 10.730625 5.765625 11.71875 C5.5 14.3125 5.5 14.3125 3.5 17.3125 C0 17.625 0 17.625 -3.5 17.3125 C-5.5 15.3125 -5.5 15.3125 -5.765625 12.34375 C-5.76046875 11.1784375 -5.7553125 10.013125 -5.75 8.8125 C-5.75515625 7.6471875 -5.7603125 6.481875 -5.765625 5.28125 C-5.36866944 0.84468784 -4.38498483 0.3915165 0 0 Z " fill="#272727" transform="translate(429.5,76.6875)"/>
<path d="M0 0 C6.6 0 13.2 0 20 0 C20 1.32 20 2.64 20 4 C17.36 4 14.72 4 12 4 C12 11.26 12 18.52 12 26 C10.68 26 9.36 26 8 26 C8 18.74 8 11.48 8 4 C5.36 4 2.72 4 0 4 C0 2.68 0 1.36 0 0 Z " fill="#272727" transform="translate(559,591)"/>
<path d="M0 0 C1.32 0 2.64 0 4 0 C4 11.55 4 23.1 4 35 C2.68 35 1.36 35 0 35 C0 23.45 0 11.9 0 0 Z " fill="#767676" transform="translate(157,231)"/>
<path d="M0 0 C1.32 0 2.64 0 4 0 C4 7.26 4 14.52 4 22 C7.63 22 11.26 22 15 22 C15 22.99 15 23.98 15 25 C10.05 25 5.1 25 0 25 C0 16.75 0 8.5 0 0 Z " fill="#1B1C1B" transform="translate(492,470)"/>
<path d="M0 0 C0 1.32 0 2.64 0 4 C-0.969375 4.309375 -1.93875 4.61875 -2.9375 4.9375 C-5.84065792 5.69523342 -5.84065792 5.69523342 -7 7 C-7.15582303 8.34015221 -7.25044142 9.68758903 -7.31640625 11.03515625 C-7.35830078 11.84404297 -7.40019531 12.65292969 -7.44335938 13.48632812 C-7.48267578 14.33646484 -7.52199219 15.18660156 -7.5625 16.0625 C-7.60568359 16.91650391 -7.64886719 17.77050781 -7.69335938 18.65039062 C-7.79976702 20.76672037 -7.90041731 22.88333813 -8 25 C-9.32 25 -10.64 25 -12 25 C-12 17.08 -12 9.16 -12 1 C-9.525 1.495 -9.525 1.495 -7 2 C-4 0 -4 0 0 0 Z " fill="#6F6F6F" transform="translate(229,355)"/>
<path d="M0 0 C1.32 0 2.64 0 4 0 C4 8.25 4 16.5 4 25 C2.68 25 1.36 25 0 25 C0 16.75 0 8.5 0 0 Z " fill="#1B1C1C" transform="translate(529,592)"/>
<path d="M0 0 C1.32 0 2.64 0 4 0 C4 8.25 4 16.5 4 25 C2.68 25 1.36 25 0 25 C0 16.75 0 8.5 0 0 Z " fill="#1B1B1B" transform="translate(560,470)"/>
<path d="M0 0 C1.32 0 2.64 0 4 0 C4 7.92 4 15.84 4 24 C2.68 24 1.36 24 0 24 C0 16.08 0 8.16 0 0 Z " fill="#747474" transform="translate(146,242)"/>
<path d="M0 0 C1.8871875 0.061875 1.8871875 0.061875 3.8125 0.125 C4.0625 2.9375 4.0625 2.9375 3.8125 6.125 C1.66160944 8.5148784 0.374805 9.05805893 -2.8125 9.4375 C-5.1875 9.125 -5.1875 9.125 -7.1875 7.125 C-7.5 4.625 -7.5 4.625 -7.1875 2.125 C-4.09861478 0.06574319 -3.47814073 -0.1140374 0 0 Z " fill="#EDEDED" transform="translate(94.1875,367.875)"/>
<path d="M0 0 C1.8871875 0.061875 1.8871875 0.061875 3.8125 0.125 C4.0625 2.9375 4.0625 2.9375 3.8125 6.125 C1.66160944 8.5148784 0.374805 9.05805893 -2.8125 9.4375 C-5.1875 9.125 -5.1875 9.125 -7.1875 7.125 C-7.5 4.625 -7.5 4.625 -7.1875 2.125 C-4.09861478 0.06574319 -3.47814073 -0.1140374 0 0 Z " fill="#EDEDED" transform="translate(131.1875,253.875)"/>
<path d="M0 0 C1.27875 -0.061875 2.5575 -0.12375 3.875 -0.1875 C4.95394531 -0.23970703 4.95394531 -0.23970703 6.0546875 -0.29296875 C6.69664062 -0.19628906 7.33859375 -0.09960938 8 0 C10 3 10 3 9.75 5.0625 C9 7 9 7 7 9 C3.375 9.125 3.375 9.125 0 9 C0 6.03 0 3.06 0 0 Z " fill="#CACCCB" transform="translate(607,595)"/>
<path d="M0 0 C1.27875 -0.061875 2.5575 -0.12375 3.875 -0.1875 C4.95394531 -0.23970703 4.95394531 -0.23970703 6.0546875 -0.29296875 C6.69664062 -0.19628906 7.33859375 -0.09960938 8 0 C10 3 10 3 9.75 5.0625 C9 7 9 7 7 9 C3.375 9.125 3.375 9.125 0 9 C0 6.03 0 3.06 0 0 Z " fill="#CACCCB" transform="translate(465,595)"/>
<path d="M0 0 C0.66 0 1.32 0 2 0 C5.42857143 8.42857143 5.42857143 8.42857143 5 13 C2.03 13 -0.94 13 -4 13 C-3.52343588 11.20763933 -3.04366502 9.41613103 -2.5625 7.625 C-2.29566406 6.62726563 -2.02882813 5.62953125 -1.75390625 4.6015625 C-1 2 -1 2 0 0 Z " fill="#313131" transform="translate(398,72)"/>
<path d="M0 0 C0.125 2.875 0.125 2.875 0 6 C-2 8 -2 8 -5.625 8.125 C-6.73875 8.08375 -7.8525 8.0425 -9 8 C-9.33 6.35 -9.66 4.7 -10 3 C-6.68152292 -0.06320961 -4.44849969 -0.3033068 0 0 Z " fill="#323232" transform="translate(209,86)"/>
<path d="M0 0 C1.175625 0.0825 2.35125 0.165 3.5625 0.25 C5.5625 3.25 5.5625 3.25 5.5625 6.25 C1.9325 6.25 -1.6975 6.25 -5.4375 6.25 C-4.24930812 0.30904059 -4.24930812 0.30904059 0 0 Z " fill="#2A2A2A" transform="translate(141.4375,76.75)"/>
<path d="M0 0 C1.175625 0.0825 2.35125 0.165 3.5625 0.25 C5.5625 3.25 5.5625 3.25 5.5625 6.25 C1.9325 6.25 -1.6975 6.25 -5.4375 6.25 C-4.24930812 0.30904059 -4.24930812 0.30904059 0 0 Z " fill="#2A2A2A" transform="translate(84.4375,76.75)"/>
<path d="M0 0 C1.2065625 0.0309375 1.2065625 0.0309375 2.4375 0.0625 C2.81968767 1.71864657 3.15145102 3.38707024 3.4375 5.0625 C2.4375 6.0625 2.4375 6.0625 -0.125 6.125 C-1.3315625 6.0940625 -1.3315625 6.0940625 -2.5625 6.0625 C-2.94468767 4.40635343 -3.27645102 2.73792976 -3.5625 1.0625 C-2.5625 0.0625 -2.5625 0.0625 0 0 Z " fill="#EBEBEB" transform="translate(103.5625,61.9375)"/>
<path d="M0 0 C1.32 0 2.64 0 4 0 C4 1.32 4 2.64 4 4 C1.69 4.33 -0.62 4.66 -3 5 C-1.75 2.5 -1.75 2.5 0 0 Z " fill="#767676" transform="translate(225,355)"/>
<path d="M0 0 C1.98 0.495 1.98 0.495 4 1 C4 1.99 4 2.98 4 4 C2.35 4 0.7 4 -1 4 C-0.67 2.68 -0.34 1.36 0 0 Z " fill="#777777" transform="translate(146,233)"/>
</svg>
