<?xml version="1.0" encoding="UTF-8"?>
<svg version="1.1" xmlns="http://www.w3.org/2000/svg" width="1079" height="2243">
<path d="M0 0 C356.07 0 712.14 0 1079 0 C1079 740.19 1079 1480.38 1079 2243 C722.93 2243 366.86 2243 0 2243 C0 1502.81 0 762.62 0 0 Z " fill="#F9F9F9" transform="translate(0,0)"/>
<path d="M0 0 C356.07 0 712.14 0 1079 0 C1079 48.18 1079 96.36 1079 146 C722.93 146 366.86 146 0 146 C0 97.82 0 49.64 0 0 Z " fill="#212121" transform="translate(0,0)"/>
<path d="M0 0 C329.34 0 658.68 0 998 0 C998 37.62 998 75.24 998 114 C668.66 114 339.32 114 0 114 C0 76.38 0 38.76 0 0 Z " fill="#FBF4C1" transform="translate(41,187)"/>
<path d="M0 0 C1.01695805 -0.00247617 1.01695805 -0.00247617 2.05446071 -0.00500236 C4.35937051 -0.0093661 6.66421763 -0.00651403 8.9691292 -0.00377727 C10.63217958 -0.00542507 12.29522956 -0.0075105 13.95827889 -0.00999737 C18.57116265 -0.0155974 23.18402796 -0.01488555 27.79691404 -0.01321978 C32.7991381 -0.01249226 37.8013568 -0.01750315 42.80357862 -0.0217948 C52.74406483 -0.02939703 62.68454569 -0.03156898 72.62503451 -0.03212385 C84.5235575 -0.0330353 96.42207548 -0.03969626 108.32059632 -0.04647068 C136.40000116 -0.06217315 164.47940602 -0.06822163 192.55881427 -0.0728777 C206.83854262 -0.075259 221.11827049 -0.07896207 235.39799848 -0.0829148 C281.17841109 -0.09558031 326.95882368 -0.10636449 372.73923802 -0.10975526 C374.92819066 -0.1099175 377.1171433 -0.11008306 379.30609594 -0.11024964 C383.69624129 -0.11058345 388.08638663 -0.11091393 392.47653198 -0.1112442 C397.616574 -0.11163111 402.75661602 -0.11202071 407.89665803 -0.11241527 C409.36779245 -0.11252769 410.83892688 -0.1126391 412.3100613 -0.11274952 C459.57244458 -0.11630007 506.83481267 -0.13138245 554.09719015 -0.15468726 C588.04937196 -0.17142211 622.00155092 -0.18690109 655.9537369 -0.19142222 C657.00044828 -0.19156245 657.00044828 -0.19156245 658.06830534 -0.19170551 C673.38474043 -0.19372428 688.70117546 -0.19488056 704.01761067 -0.1952341 C709.49773342 -0.19537028 714.97785617 -0.19557928 720.45797892 -0.19582735 C721.82136432 -0.19588891 723.18474972 -0.19594723 724.54813512 -0.1960023 C746.29858128 -0.19692319 768.04901162 -0.2069043 789.79945257 -0.22145979 C812.30700031 -0.23646171 834.8145286 -0.24067704 857.32208048 -0.23236683 C870.31003417 -0.2278944 883.29792295 -0.23183527 896.28586818 -0.24760534 C904.94706602 -0.25730231 913.60821801 -0.25622807 922.26941535 -0.24616911 C927.21385531 -0.24073863 932.15816996 -0.24018913 937.1025999 -0.25267783 C941.59262282 -0.26392494 946.08241719 -0.2615949 950.57243177 -0.24801075 C952.19441197 -0.24555687 953.81640925 -0.24822978 955.43837069 -0.25640723 C957.62731514 -0.26672559 959.8154382 -0.25882346 962.00435162 -0.24609566 C963.8282874 -0.24646196 963.8282874 -0.24646196 965.68907037 -0.24683566 C968.62752497 0.1276505 968.62752497 0.1276505 970.47897331 1.52600963 C973.13213134 5.22580517 972.78238751 8.71835031 972.78865778 13.10982823 C972.79362269 13.93435491 972.79858759 14.75888158 972.80370295 15.60839391 C972.81833782 18.34268576 972.82512822 21.07691963 972.83064997 23.81124425 C972.83639965 25.70691993 972.84215741 27.60259559 972.84792292 29.49827123 C972.85843621 33.47540107 972.86427696 37.45251067 972.86775935 41.42965245 C972.87324948 46.5322213 972.89728717 51.63452402 972.9257313 56.73700929 C972.94432936 60.65315596 972.94956173 64.56923812 972.95109522 68.48542523 C972.95412792 70.36694412 972.9621771 72.24846171 972.9752804 74.12993741 C972.99228443 76.75885885 972.99047482 79.38712453 972.98397028 82.01607823 C972.99779246 83.18740552 972.99779246 83.18740552 973.01189387 84.38239598 C972.97112464 89.6271025 972.97112464 89.6271025 971.29274714 92.07212377 C967.61191547 94.40527564 964.27679631 94.25349542 960.03986377 94.255301 C959.02446601 94.25777717 959.02446601 94.25777717 957.98855516 94.26030336 C955.6992512 94.26464893 953.41001093 94.26182062 951.12070525 94.25907826 C949.46415364 94.26072692 947.80760241 94.26281275 946.15105185 94.26529837 C941.56552945 94.27088737 936.98002564 94.27018854 932.39450092 94.26852078 C927.41844558 94.2677922 922.44239559 94.27280667 917.46634251 94.27709579 C907.58209246 94.28469172 897.6978478 94.28686966 887.81359514 94.28742485 C875.98072075 94.28833691 864.14785139 94.29499967 852.31497915 94.30177167 C824.39261088 94.31746759 796.47024248 94.32352173 768.54787074 94.3281787 C754.3470256 94.3305606 740.14618093 94.33426378 725.94533614 94.3382158 C680.41252618 94.35088043 634.87971624 94.36166491 589.34690454 94.36505626 C587.17017629 94.3652185 584.99344804 94.36538406 582.81671979 94.36555064 C578.45113476 94.36588445 574.08554972 94.36621493 569.71996468 94.3665452 C564.6087423 94.3669321 559.49751992 94.36732171 554.38629753 94.36771626 C552.92341512 94.36782868 551.46053271 94.3679401 549.9976503 94.36805052 C502.99821093 94.37160123 455.99878683 94.38668478 408.99935329 94.40998826 C375.23252225 94.42672391 341.46569409 94.44220236 307.69885886 94.44672322 C307.00481871 94.44681671 306.31077857 94.44691019 305.59570691 94.44700651 C290.36178448 94.4490253 275.1278621 94.45018156 259.89393955 94.4505351 C254.44333269 94.45067128 248.99272583 94.45088028 243.54211896 94.45112835 C242.18609013 94.45118991 240.83006129 94.45124823 239.47403246 94.4513033 C217.84460296 94.45222404 196.21518939 94.46220325 174.58576513 94.47676079 C152.20326873 94.49176495 129.82079373 94.4959767 107.4382934 94.48766783 C94.5238585 94.48319654 81.60948889 94.48713177 68.69506249 94.50290633 C60.08166475 94.51260715 51.46831309 94.51152532 42.85491583 94.50147011 C37.93863237 94.49604249 33.0224749 94.4954812 28.10620154 94.50797883 C23.6405812 94.51923685 19.17519051 94.51688354 14.7095785 94.50331175 C13.09755817 94.50086057 11.48552062 94.50352151 9.87351922 94.51170823 C7.69557372 94.52204873 5.51845013 94.5141061 3.34053534 94.50139666 C2.13142084 94.50164086 0.92230634 94.50188506 -0.323448 94.50213666 C-3.62566943 94.09655278 -5.05183479 93.47942572 -7.37247503 91.1276505 C-7.37247503 90.4676505 -7.37247503 89.8076505 -7.37247503 89.1276505 C-8.03247503 89.1276505 -8.69247503 89.1276505 -9.37247503 89.1276505 C-9.41882228 78.39216656 -9.45435643 67.65670644 -9.47609937 56.92114282 C-9.48653506 51.93615043 -9.50069042 46.95122652 -9.52335393 41.96627355 C-9.54508986 37.15522328 -9.55704527 32.34423886 -9.56222951 27.53314328 C-9.56592391 25.6979391 -9.57313812 23.86273851 -9.58393514 22.02756238 C-9.59845997 19.45643514 -9.60045255 16.88557977 -9.59952581 14.31441808 C-9.60671636 13.55628316 -9.61390691 12.79814824 -9.62131536 12.01703954 C-9.5875928 3.3666459 -8.65326667 0.00366706 0 0 Z " fill="#D5D7D6" transform="translate(58.372475028038025,551.8723495006561)"/>
<path d="M0 0 C0.68079013 -0.00511234 1.36158026 -0.01022469 2.06300039 -0.01549195 C4.35977243 -0.02780904 6.65545797 -0.01145691 8.95219445 0.00460267 C10.61624176 0.00164553 12.28028672 -0.00306729 13.94432467 -0.00938332 C18.54608046 -0.02170764 23.14748511 -0.00891964 27.74921485 0.00772921 C32.74442364 0.02142451 37.73959553 0.01199079 42.73481131 0.00541925 C51.49904762 -0.00289135 60.26317555 0.00372593 69.0273993 0.01997209 C82.0595599 0.04406277 95.09165183 0.04531992 108.12383064 0.04180413 C130.04352449 0.0365421 151.96317567 0.04990946 173.8828547 0.07387376 C195.59420652 0.09755364 217.30553852 0.11297211 239.01690316 0.11728501 C240.02784835 0.11749148 240.02784835 0.11749148 241.05921667 0.11770213 C247.21472303 0.1189549 253.37022941 0.12010567 259.52573582 0.12113403 C274.82848015 0.1236918 290.13122401 0.12752921 305.43396783 0.13223481 C306.47931384 0.13255472 306.47931384 0.13255472 307.54577796 0.13288108 C341.45602896 0.14337029 375.36626688 0.16860181 409.27650857 0.19503617 C421.04593799 0.20420271 432.81536746 0.21330412 444.58479714 0.22213578 C445.31472606 0.22268358 446.04465498 0.22323138 446.79670296 0.22379577 C480.72144125 0.24916632 514.64618179 0.26407259 548.57092708 0.27627496 C550.77301334 0.27706722 552.97509959 0.27786399 555.17718584 0.27866168 C569.77037544 0.28394075 584.36356509 0.28903935 598.95675478 0.29401712 C627.99423973 0.30392344 657.03172425 0.31489019 686.06920853 0.32658531 C687.45208776 0.32714226 688.834967 0.32769848 690.21784623 0.32825396 C777.97530318 0.363513 865.7327454 0.42311682 966.26430154 0.49679399 C967.87259663 3.71338417 967.41153985 7.22081086 967.40956521 10.75436234 C967.41460313 12.03504342 967.41460313 12.03504342 967.41974282 13.34159684 C967.42926763 16.1732918 967.43119667 19.00492774 967.43227029 21.83663774 C967.43548169 23.79957439 967.43884567 25.7625108 967.44235635 27.72544694 C967.44835137 31.84381501 967.45019585 35.96216209 967.44960427 40.08053422 C967.4495026 45.36464433 967.4631582 50.64862021 967.48037648 55.93269849 C967.4914801 59.98781288 967.49352399 64.04289465 967.49299455 68.0980227 C967.49417701 70.04651755 967.49861362 71.99501318 967.50632691 73.94349313 C967.51609425 76.66570219 967.51326174 79.38761758 967.50722146 82.10983109 C967.51284097 82.91876817 967.51846047 83.72770524 967.52425027 84.56115556 C967.50251064 88.40520819 967.44801165 90.22122882 965.26430154 93.49679399 C962.45362145 93.87128015 962.45362145 93.87128015 958.77288938 93.87054014 C958.09420945 93.87449863 957.41552953 93.87845712 956.71628355 93.88253556 C954.41480843 93.89223214 952.11393309 93.88032796 949.81247354 93.86873078 C948.14965851 93.87125061 946.48684505 93.87508661 944.82403576 93.88012815 C940.21641725 93.89022527 935.60899201 93.88143545 931.00138412 93.86979393 C926.0032069 93.86043424 921.0050537 93.86837855 916.00687528 93.87419224 C907.23428117 93.88197454 898.46174608 93.87852827 889.68915582 93.86786866 C876.64440474 93.85206155 863.59969508 93.8533385 850.55493733 93.85816095 C828.61433029 93.86576342 806.6737452 93.85924543 784.73314309 93.84454942 C762.99780991 93.83002048 741.26248764 93.82124311 719.52714944 93.82036424 C718.16364031 93.8203026 716.80013119 93.82024089 715.43662206 93.8201791 C709.95762049 93.8199434 704.47861893 93.81975757 698.99961736 93.81963096 C683.68233282 93.81926916 668.36504846 93.81792092 653.04776406 93.81586671 C652.35017756 93.81577372 651.65259105 93.81568073 650.93386556 93.81558492 C616.98443697 93.81096455 583.03501498 93.79479971 549.0855906 93.77804399 C501.87139669 93.7547419 454.6572121 93.74057607 407.44301248 93.73702836 C405.97394048 93.73691597 404.50486848 93.73680333 403.03579648 93.73669044 C397.9040243 93.73629698 392.77225213 93.7359098 387.64047995 93.7355233 C383.25795298 93.73519321 378.87542601 93.73486134 374.49289903 93.73452744 C372.30779344 93.73436199 370.12268785 93.73419985 367.93758226 93.73403783 C322.25252168 93.73060995 276.56746276 93.71945283 230.88240392 93.70679462 C216.61499012 93.70284966 202.34757644 93.69935112 188.08016229 93.69698262 C159.4944059 93.6921864 130.90865398 93.68512312 102.32290125 93.66883495 C90.4950824 93.66216878 78.66726812 93.65703531 66.83944726 93.65637422 C57.041319 93.65582445 47.24319954 93.65200896 37.44507473 93.6435983 C32.505616 93.63945523 27.56617028 93.63692668 22.62670982 93.63871351 C18.14242035 93.6402982 13.65815856 93.63736288 9.17387404 93.63065794 C7.55282692 93.62905111 5.93177708 93.62915547 4.31073032 93.63108522 C2.1256908 93.63344638 -0.05925404 93.62975922 -2.2442863 93.62444448 C-3.45892788 93.62392925 -4.67356947 93.62341401 -5.92501837 93.62288316 C-8.73569846 93.49679399 -8.73569846 93.49679399 -10.73569846 92.49679399 C-10.82833017 81.09217168 -10.89942886 69.6876387 -10.94294715 58.28271699 C-10.96383254 52.98707896 -10.99216778 47.69169807 -11.03745627 42.39620805 C-11.08087975 37.28688613 -11.10482839 32.17781174 -11.11520743 27.06831956 C-11.12260507 25.1178252 -11.13705079 23.16734456 -11.15861869 21.21695542 C-11.18760618 18.48734471 -11.19165642 15.75876012 -11.18980002 13.02902055 C-11.20418113 12.22053666 -11.21856223 11.41205277 -11.23337913 10.57906938 C-11.2087859 7.24276802 -11.12293868 5.02812466 -9.12661599 2.28897871 C-5.93690505 -0.10196584 -3.96833714 -0.00204028 0 0 Z " fill="#D5D7D6" transform="translate(61.73569846153259,429.5032060146332)"/>
<path d="M0 0 C0.77044875 -0.00175304 1.54089751 -0.00350607 2.33469319 -0.00531223 C4.91954394 -0.00996871 7.50433835 -0.00750763 10.08919144 -0.00507832 C11.95990267 -0.00694647 13.83061352 -0.00924719 15.70132375 -0.01194364 C20.84478047 -0.01806757 25.98822095 -0.01792734 31.13168049 -0.01674926 C36.67783294 -0.01654541 42.22398014 -0.02206259 47.77013016 -0.02680683 C58.63732007 -0.03511727 69.50450457 -0.03786185 80.3716974 -0.03841921 C89.20442213 -0.0388942 98.03714507 -0.04094808 106.86986923 -0.04411983 C127.83217097 -0.05149412 148.79447174 -0.05764454 169.7567749 -0.05712128 C170.42714518 -0.0571057 171.09751546 -0.05709012 171.78819999 -0.05707407 C175.18588877 -0.05699096 178.58357756 -0.05689192 181.98126635 -0.05678936 C182.65605495 -0.05676942 183.33084354 -0.05674947 184.02608028 -0.05672892 C185.39066757 -0.05668848 186.75525486 -0.05664669 188.11984215 -0.05660353 C209.34817783 -0.05599084 230.57649753 -0.0634961 251.80482864 -0.07717609 C275.65706557 -0.09254067 299.50929208 -0.10112942 323.36153531 -0.10021287 C335.9898649 -0.09988075 348.61817646 -0.10263455 361.24650192 -0.11339092 C371.99851279 -0.12249034 382.75049747 -0.12467577 393.50251052 -0.1178815 C398.98823122 -0.11461344 404.47390167 -0.11456995 409.95961761 -0.12323475 C414.98321369 -0.131088 420.00671956 -0.12968028 425.0303134 -0.12095062 C426.84591275 -0.11941304 428.66151878 -0.12124147 430.47711024 -0.12681069 C454.67803253 -0.1961181 454.67803253 -0.1961181 462.19935989 6.12863445 C469.90663653 13.91001952 471.35142962 21.27159116 471.34462357 32.08664227 C471.34966148 33.24892094 471.34966148 33.24892094 471.35480118 34.43467999 C471.36426106 36.98372302 471.36625193 39.53269998 471.36732864 42.08175945 C471.37054517 43.86526802 471.37390954 45.64877633 471.3774147 47.43228436 C471.38339393 51.16782524 471.38525589 54.90334303 471.38466263 58.63888836 C471.38456119 63.40429655 471.39819977 68.16955513 471.41543484 72.93492794 C471.42660451 76.61887562 471.4285803 80.30278773 471.4280529 83.9867506 C471.42922606 85.74245754 471.43361018 87.4981656 471.44138527 89.25385571 C471.54168141 114.2451015 471.54168141 114.2451015 463.73451614 122.7184782 C454.41252762 131.68952127 441.85156804 130.55594763 429.79054642 130.50285625 C427.91225634 130.50559899 426.03396779 130.50965291 424.15568304 130.51489991 C419.00980599 130.5254642 413.86410322 130.51737233 408.71823382 130.50614941 C403.16260328 130.497295 397.60699523 130.50575452 392.0513649 130.51201153 C381.17400546 130.5214943 370.29671241 130.51490419 359.4193579 130.50274859 C346.75059951 130.48911912 334.08185689 130.49076729 321.41309303 130.49288192 C298.12496976 130.49616738 274.83688396 130.48326329 251.54877283 130.46303688 C230.29964326 130.4446681 209.05054734 130.43885483 187.80141068 130.44430828 C186.43696449 130.44465472 185.07251831 130.44500081 183.70807213 130.44534657 C182.69622676 130.44560306 182.69622676 130.44560306 181.66394008 130.44586474 C178.26811069 130.44671831 174.87228128 130.4475421 171.47645187 130.44833374 C170.80647294 130.44849082 170.136494 130.4486479 169.44621268 130.44880974 C151.67865224 130.45280178 133.91109472 130.44727612 116.14353609 130.43882245 C113.5962108 130.43761517 111.04888551 130.43640918 108.50156021 130.43520451 C107.24824704 130.43460097 105.99493386 130.43399743 104.7036415 130.4333756 C95.87414338 130.42949739 87.0446513 130.4298897 78.21515274 130.43179035 C67.45408357 130.43391319 56.69304675 130.42868148 45.93198669 130.4141768 C40.44219162 130.40693673 34.95244363 130.40285251 29.46264458 130.40742016 C24.43550078 130.4115011 19.40845414 130.40631811 14.38132507 130.39379408 C12.56450207 130.39087002 10.74766988 130.39129345 8.93084925 130.39543716 C-15.94309693 130.44700961 -15.94309693 130.44700961 -24.39048386 122.6637907 C-33.41582951 113.28537529 -32.2332997 100.67451708 -32.16392136 88.56613445 C-32.16340166 86.76592287 -32.1639236 84.96571071 -32.16543198 83.16549969 C-32.16534266 79.40670494 -32.15499634 75.64812647 -32.13682175 71.88937664 C-32.11413626 67.09490685 -32.11359499 62.30075241 -32.12033939 57.50624371 C-32.12369644 53.79311653 -32.11701672 50.08005996 -32.10721016 46.36694622 C-32.10338776 44.60008394 -32.10219752 42.83321377 -32.10379601 41.06634808 C-32.10749349 16.62867632 -32.10749349 16.62867632 -25.80064011 9.12863445 C-18.06925691 1.47088348 -10.75340987 -0.03114 0 0 Z " fill="#242424" transform="translate(319.8006401062012,1899.8713655471802)"/>
<path d="M0 0 C322.74 0 645.48 0 978 0 C978 1.65 978 3.3 978 5 C655.26 5 332.52 5 0 5 C0 3.35 0 1.7 0 0 Z " fill="#118174" transform="translate(51,393)"/>
<path d="M0 0 C356.07 0 712.14 0 1079 0 C1079 0.99 1079 1.98 1079 3 C722.93 3 366.86 3 0 3 C0 2.01 0 1.02 0 0 Z " fill="#000000" transform="translate(0,0)"/>
<path d="M0 0 C322.74 0 645.48 0 978 0 C978 0.99 978 1.98 978 3 C655.26 3 332.52 3 0 3 C0 2.01 0 1.02 0 0 Z " fill="#9F9A63" transform="translate(51,279)"/>
<path d="M0 0 C1.22847656 -0.03738281 2.45695312 -0.07476563 3.72265625 -0.11328125 C13.87452037 -0.21227017 13.87452037 -0.21227017 17.546875 2.7734375 C22.0750852 8.12057933 21.04792281 13.863228 21.125 20.625 C21.18107422 22.46771484 21.18107422 22.46771484 21.23828125 24.34765625 C21.33727017 34.49952037 21.33727017 34.49952037 18.3515625 38.171875 C13.00442067 42.7000852 7.261772 41.67292281 0.5 41.75 C-0.72847656 41.78738281 -1.95695312 41.82476563 -3.22265625 41.86328125 C-13.37452037 41.96227017 -13.37452037 41.96227017 -17.046875 38.9765625 C-21.5750852 33.62942067 -20.54792281 27.886772 -20.625 21.125 C-20.66238281 19.89652344 -20.69976562 18.66804688 -20.73828125 17.40234375 C-20.83727017 7.25047963 -20.83727017 7.25047963 -17.8515625 3.578125 C-12.50442067 -0.9500852 -6.761772 0.07707719 0 0 Z " fill="#81B238" transform="translate(355.25,1943.625)"/>
<path d="M0 0 C1.02206068 -0.00766852 1.02206068 -0.00766852 2.06476906 -0.01549195 C4.35750218 -0.02778346 6.64914138 -0.0114734 8.94183844 0.00460267 C10.60534582 0.00164477 12.26885085 -0.00306887 13.93234888 -0.00938332 C18.52794383 -0.02169552 23.12318658 -0.0089296 27.71875537 0.00772921 C32.70902356 0.02143448 37.69925504 0.01198887 42.68953025 0.00541925 C51.44354152 -0.00288822 60.19744422 0.00372062 68.9514429 0.01997209 C81.96838291 0.04407058 94.9852542 0.04531919 108.00221245 0.04180413 C129.89669496 0.03654306 151.79113472 0.04990581 173.68560237 0.07387376 C195.37100789 0.09755617 217.05639356 0.11297262 238.74181193 0.11728501 C239.41504817 0.11742266 240.08828441 0.11756031 240.78192175 0.11770213 C246.93081463 0.11895491 253.07970752 0.12010567 259.22860044 0.12113403 C274.51468852 0.12369175 289.80077613 0.12752913 305.0868637 0.13223481 C305.78299127 0.13244808 306.47911884 0.13266135 307.19634118 0.13288108 C341.06654008 0.1433695 374.93672588 0.16860069 408.80691546 0.19503617 C420.56198128 0.20420274 432.31704714 0.21330416 444.07211322 0.22213578 C444.80115444 0.22268358 445.53019566 0.22323138 446.28132904 0.22379577 C480.16680996 0.2491678 514.05229313 0.26407307 547.93778105 0.27627496 C550.1374044 0.27706722 552.33702776 0.27786399 554.53665111 0.27866168 C569.11355768 0.28394076 583.69046431 0.28903937 598.26737099 0.29401712 C627.27228751 0.30392336 656.2772036 0.3148901 685.28211946 0.32658531 C686.66343781 0.32714226 688.04475617 0.32769848 689.42607452 0.32825396 C777.08002331 0.36351121 864.73395736 0.42311475 965.14651507 0.49679399 C965.14651507 0.82679399 965.14651507 1.15679399 965.14651507 1.49679399 C964.30403396 1.49719417 963.46155286 1.49759435 962.59354202 1.49800666 C874.35371089 1.54002313 786.1138801 1.58435395 687.55711383 1.65577531 C686.17485021 1.65678093 684.79258659 1.65778656 683.41032297 1.65879218 C654.39792516 1.67991253 625.38552784 1.70164961 596.37313103 1.72409936 C581.79981361 1.73537552 567.2264961 1.74653313 552.6531785 1.75757867 C550.45481243 1.75924557 548.25644637 1.76091585 546.0580803 1.76258626 C512.1957961 1.78828654 478.3335125 1.81144044 444.4712221 1.82723832 C443.74283902 1.82757818 443.01445594 1.82791805 442.26400064 1.82826821 C430.51988526 1.83373258 418.77576978 1.83898376 407.03165429 1.84420665 C373.21580799 1.85924863 339.39996578 1.87586018 305.58412665 1.90291715 C304.5416102 1.90375014 304.5416102 1.90375014 303.4780328 1.90459996 C288.22292818 1.91681744 272.96782437 1.92984615 257.7127211 1.94364356 C251.57510596 1.94918039 245.43749072 1.95460039 239.29987544 1.95998025 C238.29225614 1.9608677 238.29225614 1.9608677 237.26428089 1.96177307 C215.60031404 1.98079511 193.93635578 1.99029593 172.27238144 1.99482993 C149.85362281 1.99956653 127.43489447 2.01483032 105.01615193 2.04245964 C92.07931252 2.05807041 79.14253107 2.06523594 66.20568275 2.06056328 C57.57850673 2.05826207 48.95138575 2.06670955 40.32422706 2.08411809 C35.39921246 2.0937419 30.47431943 2.0984831 25.54929962 2.09018961 C21.0768738 2.08274969 16.60468843 2.08887199 12.132292 2.10623466 C10.51668799 2.11005497 8.90106252 2.10875274 7.28546832 2.10194999 C5.10507951 2.09348544 2.9255292 2.10322559 0.74519098 2.11778647 C-0.46599857 2.11856637 -1.67718812 2.11934627 -2.92508038 2.12014981 C-5.82697063 2.26647027 -5.82697063 2.26647027 -7.74098171 3.79625119 C-9.68414842 6.76652408 -9.292149 10.20315022 -9.28585798 13.64010453 C-9.29604963 14.46959611 -9.30624128 15.29908769 -9.31674176 16.15371537 C-9.34694991 18.89704917 -9.35614955 21.64003425 -9.36520368 24.38351274 C-9.38204458 26.28495792 -9.40019402 28.18639194 -9.41960126 30.08781266 C-9.46717134 35.09369247 -9.49693534 40.09952699 -9.52304059 45.10555863 C-9.5528108 50.21327497 -9.59935324 55.32083514 -9.64450055 60.42843461 C-9.73061338 70.45113949 -9.79792314 80.47387645 -9.85348493 90.49679399 C-12.77170562 87.5785733 -12.15651375 84.53366968 -12.15988141 80.62228227 C-12.16820493 79.80911546 -12.17652845 78.99594865 -12.18510419 78.15814042 C-12.20926502 75.46108087 -12.21798377 72.76426289 -12.22457868 70.06710649 C-12.2335406 68.19624594 -12.24266235 66.32538616 -12.25193769 64.45452714 C-12.26844692 60.52865694 -12.27613127 56.60287221 -12.27902204 52.67696977 C-12.28440698 47.6437753 -12.32208313 42.61138301 -12.3677662 37.57841516 C-12.39749468 33.71281837 -12.40474468 29.84741567 -12.40574819 25.98171449 C-12.40995911 24.12611936 -12.42242825 22.27052411 -12.44326574 20.41504121 C-12.47009288 17.8194578 -12.46538142 15.22574554 -12.45285016 12.63009477 C-12.46768445 11.86215592 -12.48251874 11.09421708 -12.49780256 10.30300736 C-12.44846959 6.7186201 -12.26727047 4.92771967 -9.74340706 2.29931082 C-6.2090204 0.09482531 -4.1476178 -0.00213492 0 0 Z " fill="#ECECEC" transform="translate(60.85348492860794,428.5032060146332)"/>
<path d="M0 0 C0.7734375 0.02707031 1.546875 0.05414063 2.34375 0.08203125 C3.0553125 0.11683594 3.766875 0.15164062 4.5 0.1875 C5.49 0.1875 6.48 0.1875 7.5 0.1875 C9.5 0.1875 11.5 0.1875 13.5 0.1875 C13.57441989 4.36837152 13.62872818 8.5488873 13.66479492 12.73022461 C13.6798376 14.15119141 13.70027704 15.57211213 13.72631836 16.99291992 C13.76290347 19.04096886 13.77977097 21.0884015 13.79296875 23.13671875 C13.8086792 24.36737061 13.82438965 25.59802246 13.84057617 26.8659668 C13.46915857 30.4882869 12.68946222 32.31078004 10.5 35.1875 C6.12423085 38.07152967 2.69900136 38.83737517 -2.5 38.1875 C-5.9375 36.1875 -5.9375 36.1875 -8.5 34.1875 C-7.84 32.8675 -7.18 31.5475 -6.5 30.1875 C-6.005 30.5175 -5.51 30.8475 -5 31.1875 C-1.40909106 32.62386358 1.64456127 32.31601462 5.5 32.1875 C5.83 30.2075 6.16 28.2275 6.5 26.1875 C5.984375 26.538125 5.46875 26.88875 4.9375 27.25 C1.35487682 28.62793199 -0.82529175 28.21899705 -4.5 27.1875 C-7.70653352 24.37460743 -10.34098724 21.08647931 -10.703125 16.76171875 C-10.85890249 7.16842147 -10.85890249 7.16842147 -7.5 3.1875 C-7.06300781 2.65511719 -6.62601562 2.12273437 -6.17578125 1.57421875 C-3.9922001 -0.23270737 -2.79471407 -0.12576213 0 0 Z " fill="#F4F4F4" transform="translate(339.5,66.8125)"/>
<path d="M0 0 C5.28 0 10.56 0 16 0 C16.13020833 1.953125 16.26041667 3.90625 16.390625 5.859375 C16.83564815 8.18559347 16.83564815 8.18559347 19.02734375 9.69140625 C22.05914938 13.23951938 21.47182705 16.68031483 21.3125 21.1875 C21.30283203 22.01958984 21.29316406 22.85167969 21.28320312 23.70898438 C21.16843594 29.83156406 21.16843594 29.83156406 20 31 C18.14630389 31.08737645 16.28932459 31.10698153 14.43359375 31.09765625 C13.30888672 31.09443359 12.18417969 31.09121094 11.02539062 31.08789062 C9.84138672 31.07951172 8.65738281 31.07113281 7.4375 31.0625 C6.24962891 31.05798828 5.06175781 31.05347656 3.83789062 31.04882812 C0.89187774 31.03699675 -2.05403681 31.02051287 -5 31 C-5.11608726 27.72946483 -5.18720711 24.4594582 -5.25 21.1875 C-5.28351563 20.25873047 -5.31703125 19.32996094 -5.3515625 18.37304688 C-5.36445313 17.48037109 -5.37734375 16.58769531 -5.390625 15.66796875 C-5.41157227 14.84578857 -5.43251953 14.0236084 -5.45410156 13.17651367 C-4.83916001 10.22909218 -3.44296656 9.620746 -1 8 C-0.31149171 5.9683434 -0.31149171 5.9683434 -0.25 3.8125 C-0.1675 2.554375 -0.085 1.29625 0 0 Z " fill="#C88F27" transform="translate(347,1949)"/>
<path d="M0 0 C2.66666667 0 5.33333333 0 8 0 C8.72832031 -0.06960937 9.45664062 -0.13921875 10.20703125 -0.2109375 C17.11485968 -0.6459132 17.11485968 -0.6459132 19.734375 1.265625 C24.02328771 6.46277805 24.60746438 10.48840818 24 17 C22.90494423 20.94975288 21.29756388 24.46110116 18 27 C15.5546875 27.328125 15.5546875 27.328125 12.875 27.25 C11.54082031 27.22679687 11.54082031 27.22679687 10.1796875 27.203125 C8 27 8 27 7 26 C6.67 29.96 6.34 33.92 6 38 C4.02 38 2.04 38 0 38 C0 25.46 0 12.92 0 0 Z " fill="#F3F3F3" transform="translate(447,67)"/>
<path d="M0 0 C2.66666667 0 5.33333333 0 8 0 C8.72832031 -0.06960937 9.45664062 -0.13921875 10.20703125 -0.2109375 C17.11485968 -0.6459132 17.11485968 -0.6459132 19.734375 1.265625 C24.02328771 6.46277805 24.60746438 10.48840818 24 17 C22.90494423 20.94975288 21.29756388 24.46110116 18 27 C15.5546875 27.328125 15.5546875 27.328125 12.875 27.25 C11.54082031 27.22679687 11.54082031 27.22679687 10.1796875 27.203125 C8 27 8 27 7 26 C6.67 29.63 6.34 33.26 6 37 C4.02 37 2.04 37 0 37 C0 24.79 0 12.58 0 0 Z " fill="#F5F5F5" transform="translate(418,67)"/>
<path d="M0 0 C4.11410001 2.93981597 6.37462449 6.11180942 7.6875 11 C8.46774198 17.31368221 8.31058657 22.56537014 4.6875 28 C2.6875 30 2.6875 30 -0.75 30.25 C-4.3125 30 -4.3125 30 -7.3125 28 C-8.3025 28.66 -9.2925 29.32 -10.3125 30 C-13.375 30.3125 -13.375 30.3125 -16.3125 30 C-19.44515721 25.30101418 -19.11910125 20.49054885 -18.3125 15 C-16.83068595 11.93417783 -15.1525429 9.88692193 -12.3125 8 C-8.12146839 7.26040619 -6.87288041 7.62641306 -3.3125 10 C-3.09142213 12.7885289 -3.03142465 15.34653181 -3.125 18.125 C-3.14530273 19.25615234 -3.14530273 19.25615234 -3.16601562 20.41015625 C-3.20140015 22.27374127 -3.25520833 24.13695978 -3.3125 26 C-1.23696352 26.5534764 0.53115964 27 2.6875 27 C4.42909508 21.19468306 5.03748697 13.61555916 2.8984375 7.88671875 C1.16949602 5.22731639 -0.67073018 3.76117988 -3.3125 2 C-8.14772717 1.26481926 -13.14758579 0.88778462 -17.5859375 3.16796875 C-21.09220409 6.04547445 -22.97278925 8.6211306 -24.3125 13 C-24.70320066 16.60654359 -24.70320066 16.60654359 -24.6875 20.4375 C-24.71585938 21.71496094 -24.74421875 22.99242187 -24.7734375 24.30859375 C-24.238468 28.59288341 -23.02143913 30.67983814 -20.3125 34 C-16.5757157 36.49118953 -14.56798181 36.2065226 -10.125 36.125 C-8.85269531 36.10695313 -7.58039063 36.08890625 -6.26953125 36.0703125 C-5.29371094 36.04710937 -4.31789062 36.02390625 -3.3125 36 C-4.3125 39 -4.3125 39 -6.3125 40 C-12.27865776 40.63185377 -17.01413317 40.01279682 -22.3125 37 C-27.235115 31.94434136 -28.61074786 27.14891953 -28.6875 20.1875 C-28.56092654 13.06215891 -27.55510214 8.42316468 -22.62890625 3.22265625 C-16.24696188 -2.61030366 -7.85633587 -4.37605251 0 0 Z " fill="#6E6932" transform="translate(225.3125,231)"/>
<path d="M0 0 C1.98 0 3.96 0 6 0 C7.8577973 4.78474023 9.70902823 9.57194866 11.55419922 14.36157227 C12.18292943 15.99085016 12.81345369 17.61943691 13.44580078 19.24731445 C14.35400505 21.58626123 15.25574486 23.92761131 16.15625 26.26953125 C16.44060913 26.99775589 16.72496826 27.72598053 17.01794434 28.47627258 C18.15963884 31.46124885 19 33.77510604 19 37 C17.02 37 15.04 37 13 37 C12.01 34.69 11.02 32.38 10 30 C3.07 29.505 3.07 29.505 -4 29 C-4.66 30.98 -5.32 32.96 -6 35 C-6.33 35.66 -6.66 36.32 -7 37 C-9.31 37 -11.62 37 -14 37 C-9.73985172 24.47853074 -5.18580962 12.16852592 0 0 Z " fill="#F0F0F0" transform="translate(396,57)"/>
<path d="M0 0 C2.5 1.875 2.5 1.875 4 4 C4 4.66 4 5.32 4 6 C4.66 6 5.32 6 6 6 C6.12375 5.38125 6.2475 4.7625 6.375 4.125 C7 2 7 2 9 0 C11.05859375 -0.30078125 11.05859375 -0.30078125 13.4375 -0.3125 C14.61119141 -0.33763672 14.61119141 -0.33763672 15.80859375 -0.36328125 C18 0 18 0 19.7421875 1.0078125 C21.73397072 4.16250021 21.57662651 7.56035311 21.6875 11.1875 C21.72166016 11.93708984 21.75582031 12.68667969 21.79101562 13.45898438 C21.87334294 15.30546838 21.93835281 17.15270994 22 19 C19.75106046 19.10823773 17.50062425 19.18569645 15.25 19.25 C13.37054687 19.31960938 13.37054687 19.31960938 11.453125 19.390625 C8 19 8 19 5.546875 16.984375 C5.03640625 16.32953125 4.5259375 15.6746875 4 15 C3.505 15.66 3.01 16.32 2.5 17 C-0.56265353 19.45012282 -2.27539915 19.58350023 -6.09765625 19.3984375 C-8.99766139 18.79104423 -10.28308671 17.33500208 -12 15 C-13.53214888 11.93570224 -13.22938548 9.3834358 -13 6 C-10.08815962 -0.08839353 -6.5807878 -0.97541321 0 0 Z " fill="#2C2C2C" transform="translate(560,1960)"/>
<path d="M0 0 C1.32 0 2.64 0 4 0 C4 11.55 4 23.1 4 35 C2.68 35 1.36 35 0 35 C0 34.34 0 33.68 0 33 C-0.99 33.66 -1.98 34.32 -3 35 C-10.05443235 35.6718507 -10.05443235 35.6718507 -13.375 33.3125 C-16.74591026 28.5154354 -17.95310858 23.86793356 -17 18 C-14.98497111 14.24787724 -13.54533858 12.36355905 -10 10 C-5.84130536 10.29704962 -3.49592778 10.66938148 0 13 C0 8.71 0 4.42 0 0 Z " fill="#726D36" transform="translate(486,226)"/>
<path d="M0 0 C1.32 0 2.64 0 4 0 C4.33 3.96 4.66 7.92 5 12 C5.99 11.34 6.98 10.68 8 10 C11.8973724 9.49164708 13.50556726 9.67037817 16.8125 11.875 C19.43557679 14.42313174 19.94504423 15.22533501 20.203125 18.86328125 C20.21859375 20.00152344 20.2340625 21.13976562 20.25 22.3125 C20.27578125 23.44300781 20.3015625 24.57351562 20.328125 25.73828125 C19.9685426 29.31270151 19.14022123 31.14810326 17 34 C14.77109005 35.11445498 13.46944894 35.16480286 11 35.1875 C10.29875 35.20167969 9.5975 35.21585937 8.875 35.23046875 C7 35 7 35 5 33 C4.67 33.66 4.34 34.32 4 35 C2.68 35 1.36 35 0 35 C0 23.45 0 11.9 0 0 Z " fill="#6E6932" transform="translate(349,226)"/>
<path d="M0 0 C0.92683594 -0.01933594 1.85367188 -0.03867188 2.80859375 -0.05859375 C6.67081382 0.63715369 8.05532272 1.3568726 10.5625 4.4375 C11.32529543 8.34831565 11.35331472 12.21186521 11.375 16.1875 C11.40013672 17.26644531 11.42527344 18.34539062 11.45117188 19.45703125 C11.51003299 22.11755377 11.5463204 24.77643151 11.5625 27.4375 C9.5825 27.4375 7.6025 27.4375 5.5625 27.4375 C5.5625 26.7775 5.5625 26.1175 5.5625 25.4375 C4.5725 26.0975 3.5825 26.7575 2.5625 27.4375 C-0.82959331 27.97547807 -4.04497802 27.97608369 -7.4375 27.4375 C-10.6039051 24.87421968 -11.28609114 23.36487927 -11.9375 19.375 C-11.32400515 15.77071775 -10.29959271 14.64540009 -7.4375 12.4375 C-4.55538698 11.47679566 -2.73899956 11.33168117 0.25 11.375 C1.46236328 11.38853516 1.46236328 11.38853516 2.69921875 11.40234375 C3.62154297 11.41974609 3.62154297 11.41974609 4.5625 11.4375 C3.9025 9.4575 3.2425 7.4775 2.5625 5.4375 C0.14630177 5.18719023 0.14630177 5.18719023 -2.4375 5.4375 C-3.4275 6.9225 -3.4275 6.9225 -4.4375 8.4375 C-7.5625 8.625 -7.5625 8.625 -10.4375 8.4375 C-10.11872276 5.4888105 -9.90637329 3.88813337 -7.73046875 1.796875 C-4.96148486 0.15529681 -3.20335491 0.00444293 0 0 Z " fill="#F7F7F7" transform="translate(204.4375,66.5625)"/>
<path d="M0 0 C3.62259904 1.8837515 5.68975631 4.06926894 7 8 C7 10.31 7 12.62 7 15 C1.06 15 -4.88 15 -11 15 C-10.01 16.98 -9.02 18.96 -8 21 C-7.39671875 21 -6.7934375 21 -6.171875 21 C-2.44791667 21 1.27604167 21 5 21 C5 22.32 5 23.64 5 25 C0.46509264 27.9069919 -2.7060074 28.38472864 -7.8828125 27.57421875 C-11.93185737 26.47604606 -14.14892159 24.37793648 -16.3125 20.875 C-17.71232906 15.02116941 -17.99003197 9.91178587 -15.1875 4.5 C-10.70236457 -0.62586907 -6.48160212 -1.00645996 0 0 Z " fill="#F2F2F2" transform="translate(146,67)"/>
<path d="M0 0 C3.62259904 1.8837515 5.68975631 4.06926894 7 8 C7 10.31 7 12.62 7 15 C1.06 15 -4.88 15 -11 15 C-10.01 16.98 -9.02 18.96 -8 21 C-7.39671875 21 -6.7934375 21 -6.171875 21 C-2.44791667 21 1.27604167 21 5 21 C5 22.32 5 23.64 5 25 C0.46509264 27.9069919 -2.7060074 28.38472864 -7.8828125 27.57421875 C-11.93185737 26.47604606 -14.14892159 24.37793648 -16.3125 20.875 C-17.71232906 15.02116941 -17.99003197 9.91178587 -15.1875 4.5 C-10.70236457 -0.62586907 -6.48160212 -1.00645996 0 0 Z " fill="#F2F2F2" transform="translate(89,67)"/>
<path d="M0 0 C8.58 0 17.16 0 26 0 C24.87538189 7.87232678 24.87538189 7.87232678 22.92578125 10.4296875 C22.50796387 10.99349121 22.09014648 11.55729492 21.65966797 12.13818359 C21.21510254 12.71133301 20.77053711 13.28448242 20.3125 13.875 C19.40385213 15.09293325 18.4962996 16.31168445 17.58984375 17.53125 C17.14753418 18.1190625 16.70522461 18.706875 16.24951172 19.3125 C13.68521274 22.77565642 11.36072448 26.39678895 9 30 C14.94 30.33 20.88 30.66 27 31 C27 32.65 27 34.3 27 36 C18.09 36 9.18 36 0 36 C0 30.88667353 0.13654239 30.18768761 2.921875 26.34765625 C3.53546875 25.48849609 4.1490625 24.62933594 4.78125 23.74414062 C5.4309375 22.85919922 6.080625 21.97425781 6.75 21.0625 C8.01603913 19.30368344 9.28167428 17.54457601 10.546875 15.78515625 C11.39523926 14.62318726 11.39523926 14.62318726 12.26074219 13.43774414 C14.2363548 10.66872506 16.11316204 7.83025694 18 5 C12.06 5 6.12 5 0 5 C0 3.35 0 1.7 0 0 Z " fill="#F7F7F7" transform="translate(42,58)"/>
<path d="M0 0 C3.30962528 1.71845928 5.41966529 3.05036138 7.375 6.25 C8.54811358 11.41169974 8.60023269 15.40938337 6.75 20.3125 C4.93461459 23.1004133 3.98413664 24.54825785 1 26 C-4.05747126 26.64221857 -4.05747126 26.64221857 -7 26 C-9.69105198 23.82425584 -11.45532928 22.08934144 -13 19 C-14.03994013 9.07599989 -14.03994013 9.07599989 -11.953125 4.91015625 C-8.29622389 0.51111933 -5.60838026 -0.53926733 0 0 Z " fill="#262626" transform="translate(522,464)"/>
<path d="M0 0 C3.2752422 1.70060653 5.40060194 3.04641218 7.375 6.1875 C8.39669332 10.78511995 9.3449179 15.59514681 6.94921875 19.87890625 C4.62400725 22.7254041 2.69563147 24.73682734 -0.98828125 25.30859375 C-7.12322931 25.64885137 -7.12322931 25.64885137 -9.66796875 23.765625 C-13.35261734 19.40023489 -14.30801309 15.63801484 -14.21484375 9.99609375 C-13.89350529 7.01056732 -12.90308743 5.29682965 -11 3 C-7.33060635 0.12398876 -4.62619262 -0.66088466 0 0 Z " fill="#6E6832" transform="translate(336,236)"/>
<path d="M0 0 C1.98 0 3.96 0 6 0 C6 0.66 6 1.32 6 2 C6.99 1.34 7.98 0.68 9 0 C11.12109375 -0.3359375 11.12109375 -0.3359375 13.4375 -0.375 C14.19933594 -0.40335937 14.96117187 -0.43171875 15.74609375 -0.4609375 C18.89915999 0.18388367 19.98436587 1.52794165 22 4 C22.45410156 6.56542969 22.45410156 6.56542969 22.390625 9.421875 C22.37128906 10.95908203 22.37128906 10.95908203 22.3515625 12.52734375 C22.31804687 13.59082031 22.28453125 14.65429688 22.25 15.75 C22.23195313 16.82894531 22.21390625 17.90789062 22.1953125 19.01953125 C22.14821415 21.68058788 22.082456 24.33984254 22 27 C20.02 27 18.04 27 16 27 C15.67 20.07 15.34 13.14 15 6 C12.69 6 10.38 6 8 6 C6.41596476 7.58403524 6.78025065 9.2771638 6.68359375 11.47265625 C6.64169922 12.37177734 6.59980469 13.27089844 6.55664062 14.19726562 C6.49766602 15.61555664 6.49766602 15.61555664 6.4375 17.0625 C6.37272461 18.4865918 6.37272461 18.4865918 6.30664062 19.93945312 C6.20020724 22.29281353 6.09818992 24.64628354 6 27 C4.02 27 2.04 27 0 27 C0 18.09 0 9.18 0 0 Z " fill="#F8F8F8" transform="translate(302,67)"/>
<path d="M0 0 C1.98 0 3.96 0 6 0 C6.33 7.26 6.66 14.52 7 22 C13.4 21.8 13.4 21.8 15 20 C15.15655027 18.51361008 15.25066943 17.02050873 15.31640625 15.52734375 C15.35830078 14.62822266 15.40019531 13.72910156 15.44335938 12.80273438 C15.48267578 11.85720703 15.52199219 10.91167969 15.5625 9.9375 C15.60568359 8.98810547 15.64886719 8.03871094 15.69335938 7.06054688 C15.79979276 4.70718647 15.90181008 2.35371646 16 0 C17.98 0 19.96 0 22 0 C22 8.91 22 17.82 22 27 C20.35 27 18.7 27 17 27 C17 26.34 17 25.68 17 25 C16.01 25.66 15.02 26.32 14 27 C11.625 27.30078125 11.625 27.30078125 9 27.3125 C7.700625 27.33763672 7.700625 27.33763672 6.375 27.36328125 C3.53307234 26.9285785 2.70428217 26.27415152 1 24 C0.01956036 21.05868109 -0.11621202 19.17498335 -0.09765625 16.11328125 C-0.09443359 15.17548828 -0.09121094 14.23769531 -0.08789062 13.27148438 C-0.07532227 11.80678711 -0.07532227 11.80678711 -0.0625 10.3125 C-0.05798828 9.32443359 -0.05347656 8.33636719 -0.04882812 7.31835938 C-0.03704303 4.87884526 -0.02059011 2.43945311 0 0 Z " fill="#F9F9F9" transform="translate(274,67)"/>
<path d="M0 0 C3.1875 2.3125 3.1875 2.3125 5 5 C5 5.99 5 6.98 5 8 C2.1875 8.1875 2.1875 8.1875 -1 8 C-2 7 -3 6 -4 5 C-7.12549017 4.74951364 -7.12549017 4.74951364 -10 5 C-9.9170576 6.95944066 -9.9170576 6.95944066 -9 9 C-6.55985344 10.25706236 -6.55985344 10.25706236 -3.625 11.0625 C2.74485082 13.02051483 2.74485082 13.02051483 5 16 C5.68619702 19.94563286 5.34784372 21.49506557 3.0625 24.8125 C-0.93994428 27.67138877 -4.11183436 28.41707898 -9 28 C-12.0676405 27.07628669 -13.41608922 26.09942751 -16 24 C-16.9375 20.75 -16.9375 20.75 -17 18 C-15.02 18 -13.04 18 -11 18 C-10.34 19.32 -9.68 20.64 -9 22 C-7.02 22 -5.04 22 -3 22 C-2.67 20.68 -2.34 19.36 -2 18 C-3.13888672 17.61908203 -3.13888672 17.61908203 -4.30078125 17.23046875 C-5.29464844 16.88628906 -6.28851563 16.54210937 -7.3125 16.1875 C-8.29863281 15.85105469 -9.28476562 15.51460937 -10.30078125 15.16796875 C-12.91534387 14.03663123 -14.31233851 13.26516692 -16 11 C-16.59059604 6.93965219 -16.66760547 4.89781425 -14.1875 1.5625 C-9.47879535 -0.74568855 -5.1442929 -0.9100848 0 0 Z " fill="#F1F1F1" transform="translate(375,67)"/>
<path d="M0 0 C3.1875 2.3125 3.1875 2.3125 5 5 C5 5.99 5 6.98 5 8 C2.1875 8.1875 2.1875 8.1875 -1 8 C-2 7 -3 6 -4 5 C-7.12549017 4.74951364 -7.12549017 4.74951364 -10 5 C-9.9170576 6.95944066 -9.9170576 6.95944066 -9 9 C-6.55985344 10.25706236 -6.55985344 10.25706236 -3.625 11.0625 C2.74485082 13.02051483 2.74485082 13.02051483 5 16 C5.68619702 19.94563286 5.34784372 21.49506557 3.0625 24.8125 C-0.93994428 27.67138877 -4.11183436 28.41707898 -9 28 C-12.0676405 27.07628669 -13.41608922 26.09942751 -16 24 C-16.9375 20.75 -16.9375 20.75 -17 18 C-15.02 18 -13.04 18 -11 18 C-10.34 19.32 -9.68 20.64 -9 22 C-7.02 22 -5.04 22 -3 22 C-2.67 20.68 -2.34 19.36 -2 18 C-3.13888672 17.61908203 -3.13888672 17.61908203 -4.30078125 17.23046875 C-5.29464844 16.88628906 -6.28851563 16.54210937 -7.3125 16.1875 C-8.29863281 15.85105469 -9.28476563 15.51460937 -10.30078125 15.16796875 C-12.91534387 14.03663123 -14.31233851 13.26516692 -16 11 C-16.59059604 6.93965219 -16.66760547 4.89781425 -14.1875 1.5625 C-9.47879535 -0.74568855 -5.1442929 -0.9100848 0 0 Z " fill="#F1F1F1" transform="translate(238,67)"/>
<path d="M0 0 C3.1875 2.3125 3.1875 2.3125 5 5 C5 5.99 5 6.98 5 8 C2.1875 8.1875 2.1875 8.1875 -1 8 C-2 7 -3 6 -4 5 C-7.12549017 4.74951364 -7.12549017 4.74951364 -10 5 C-9.9170576 6.95944066 -9.9170576 6.95944066 -9 9 C-6.55985344 10.25706236 -6.55985344 10.25706236 -3.625 11.0625 C2.74485082 13.02051483 2.74485082 13.02051483 5 16 C5.68619702 19.94563286 5.34784372 21.49506557 3.0625 24.8125 C-0.92409634 27.66006881 -4.13926392 28.30807482 -9 28 C-13.10213689 26.50831386 -14.57068209 25.64397687 -17 22 C-17 20.68 -17 19.36 -17 18 C-15.02 18 -13.04 18 -11 18 C-10.34 19.32 -9.68 20.64 -9 22 C-7.02 22 -5.04 22 -3 22 C-2.67 20.68 -2.34 19.36 -2 18 C-3.13888672 17.61908203 -3.13888672 17.61908203 -4.30078125 17.23046875 C-5.29464844 16.88628906 -6.28851563 16.54210937 -7.3125 16.1875 C-8.29863281 15.85105469 -9.28476563 15.51460937 -10.30078125 15.16796875 C-12.91534387 14.03663123 -14.31233851 13.26516692 -16 11 C-16.59059604 6.93965219 -16.66760547 4.89781425 -14.1875 1.5625 C-9.47879535 -0.74568855 -5.1442929 -0.9100848 0 0 Z " fill="#F1F1F1" transform="translate(264,67)"/>
<path d="M0 0 C3.39389448 1.2428346 4.43222702 2.66998999 6.21875 5.8125 C6.68812146 9.10176717 6.59724806 12.31123271 6.46875 15.625 C6.45070312 16.50865234 6.43265625 17.39230469 6.4140625 18.30273438 C6.36713513 20.47312543 6.29539731 22.64295519 6.21875 24.8125 C4.89875 24.8125 3.57875 24.8125 2.21875 24.8125 C2.21875 24.1525 2.21875 23.4925 2.21875 22.8125 C1.703125 23.1425 1.1875 23.4725 0.65625 23.8125 C-3.4231337 25.48609331 -7.1393663 25.48609331 -11.21875 23.8125 C-13.23652226 21.22975151 -13.46806243 18.99380494 -13.2890625 15.75390625 C-12.78125 13.8125 -12.78125 13.8125 -10.28125 11.3125 C-6.01010565 9.48200957 -3.37671808 9.49557117 1.21875 9.8125 C0.88875 8.1625 0.55875 6.5125 0.21875 4.8125 C-3.19781024 4.64572718 -3.19781024 4.64572718 -6.78125 4.8125 C-7.44125 5.4725 -8.10125 6.1325 -8.78125 6.8125 C-10.10125 6.8125 -11.42125 6.8125 -12.78125 6.8125 C-10.05906292 0.23388123 -6.66551275 -0.54785036 0 0 Z " fill="#736D37" transform="translate(184.78125,236.1875)"/>
<path d="M0 0 C3.39389448 1.2428346 4.43222702 2.66998999 6.21875 5.8125 C6.68812146 9.10176717 6.59724806 12.31123271 6.46875 15.625 C6.45070313 16.50865234 6.43265625 17.39230469 6.4140625 18.30273438 C6.36713513 20.47312543 6.29539731 22.64295519 6.21875 24.8125 C4.89875 24.8125 3.57875 24.8125 2.21875 24.8125 C2.21875 24.1525 2.21875 23.4925 2.21875 22.8125 C1.703125 23.1425 1.1875 23.4725 0.65625 23.8125 C-3.4231337 25.48609331 -7.1393663 25.48609331 -11.21875 23.8125 C-13.23652226 21.22975151 -13.46806243 18.99380494 -13.2890625 15.75390625 C-12.78125 13.8125 -12.78125 13.8125 -10.28125 11.3125 C-6.01010565 9.48200957 -3.37671808 9.49557117 1.21875 9.8125 C0.88875 8.1625 0.55875 6.5125 0.21875 4.8125 C-3.19781024 4.64572718 -3.19781024 4.64572718 -6.78125 4.8125 C-7.44125 5.4725 -8.10125 6.1325 -8.78125 6.8125 C-10.10125 6.8125 -11.42125 6.8125 -12.78125 6.8125 C-10.05906292 0.23388123 -6.66551275 -0.54785036 0 0 Z " fill="#736D37" transform="translate(112.78125,236.1875)"/>
<path d="M0 0 C3.39389448 1.2428346 4.43222702 2.66998999 6.21875 5.8125 C6.68812146 9.10176717 6.59724806 12.31123271 6.46875 15.625 C6.45070313 16.50865234 6.43265625 17.39230469 6.4140625 18.30273438 C6.36713513 20.47312543 6.29539731 22.64295519 6.21875 24.8125 C4.89875 24.8125 3.57875 24.8125 2.21875 24.8125 C2.21875 24.1525 2.21875 23.4925 2.21875 22.8125 C1.703125 23.1425 1.1875 23.4725 0.65625 23.8125 C-3.4231337 25.48609331 -7.1393663 25.48609331 -11.21875 23.8125 C-13.23652226 21.22975151 -13.46806243 18.99380494 -13.2890625 15.75390625 C-12.78125 13.8125 -12.78125 13.8125 -10.28125 11.3125 C-6.01010565 9.48200957 -3.37671808 9.49557117 1.21875 9.8125 C0.88875 8.1625 0.55875 6.5125 0.21875 4.8125 C-3.19781024 4.64572718 -3.19781024 4.64572718 -6.78125 4.8125 C-7.44125 5.4725 -8.10125 6.1325 -8.78125 6.8125 C-10.10125 6.8125 -11.42125 6.8125 -12.78125 6.8125 C-10.05906292 0.23388123 -6.66551275 -0.54785036 0 0 Z " fill="#736D37" transform="translate(66.78125,236.1875)"/>
<path d="M0 0 C13.32515902 -0.49352441 13.32515902 -0.49352441 16.45703125 1.796875 C18 4 18 4 17.9375 7.5 C17 11 17 11 14 15 C15.65 18.3 17.3 21.6 19 25 C17.35 25 15.7 25 14 25 C13.69707031 24.36191406 13.39414062 23.72382812 13.08203125 23.06640625 C12.66308594 22.24011719 12.24414062 21.41382813 11.8125 20.5625 C11.40644531 19.73878906 11.00039063 18.91507813 10.58203125 18.06640625 C9.13366813 15.75309288 9.13366813 15.75309288 6.32421875 15.21484375 C5.55722656 15.14394531 4.79023437 15.07304688 4 15 C4 18.3 4 21.6 4 25 C2.68 25 1.36 25 0 25 C0 16.75 0 8.5 0 0 Z " fill="#212121" transform="translate(603,587)"/>
<path d="M0 0 C13.32515902 -0.49352441 13.32515902 -0.49352441 16.45703125 1.796875 C18 4 18 4 17.9375 7.5 C17 11 17 11 14 15 C15.65 18.3 17.3 21.6 19 25 C17.35 25 15.7 25 14 25 C13.69707031 24.36191406 13.39414062 23.72382812 13.08203125 23.06640625 C12.66308594 22.24011719 12.24414062 21.41382813 11.8125 20.5625 C11.40644531 19.73878906 11.00039063 18.91507813 10.58203125 18.06640625 C9.13366813 15.75309288 9.13366813 15.75309288 6.32421875 15.21484375 C5.55722656 15.14394531 4.79023438 15.07304688 4 15 C4 18.3 4 21.6 4 25 C2.68 25 1.36 25 0 25 C0 16.75 0 8.5 0 0 Z " fill="#212121" transform="translate(461,587)"/>
<path d="M0 0 C2.3925 -0.0825 4.785 -0.165 7.25 -0.25 C7.99668945 -0.28641602 8.74337891 -0.32283203 9.51269531 -0.36035156 C12.93381463 -0.41740089 14.70245334 -0.22221839 17.46875 1.84375 C19.31212929 4.439529 19.34636113 5.88274982 19 9 C19.66 9 20.32 9 21 9 C21.33 11.64 21.66 14.28 22 17 C14.74 17 7.48 17 0 17 C0 11.39 0 5.78 0 0 Z " fill="#CC8136" transform="translate(344,1961)"/>
<path d="M0 0 C1.32 0 2.64 0 4 0 C4 8.91 4 17.82 4 27 C-9 27 -9 27 -11.8125 24.4375 C-13.13968885 20.59563754 -13.51337163 18.03363422 -13 14 C-11.84360194 11.68720389 -10.82590172 9.82590172 -9 8 C-2.47457627 7.76271186 -2.47457627 7.76271186 0 9 C0 6.03 0 3.06 0 0 Z " fill="#D6D6D6" transform="translate(734,1952)"/>
<path d="M0 0 C2.28125 0.546875 2.28125 0.546875 4.90625 2.546875 C6.28125 5.546875 6.28125 5.546875 6.28125 13.546875 C1.00125 13.546875 -4.27875 13.546875 -9.71875 13.546875 C-8.06797098 17.29857924 -8.06797098 17.29857924 -5.71875 20.546875 C-1.50303287 20.83431026 1.46134548 20.34447713 5.28125 18.546875 C5.28125 19.866875 5.28125 21.186875 5.28125 22.546875 C1.01860667 25.38863722 -2.72359105 25.53041793 -7.71875 24.546875 C-10.69911073 22.72586874 -12.26778546 20.70750318 -13.71875 17.546875 C-14.74456904 13.1485002 -14.60651433 9.48068723 -12.7109375 5.3515625 C-9.29400519 0.52880662 -5.79518108 -0.45383948 0 0 Z " fill="#6C6730" transform="translate(508.71875,236.453125)"/>
<path d="M0 0 C2.28125 0.546875 2.28125 0.546875 4.90625 2.546875 C6.28125 5.546875 6.28125 5.546875 6.28125 13.546875 C1.00125 13.546875 -4.27875 13.546875 -9.71875 13.546875 C-8.06797098 17.29857924 -8.06797098 17.29857924 -5.71875 20.546875 C-1.48560233 20.78648713 1.64861489 20.87176147 5.28125 18.546875 C5.28125 19.866875 5.28125 21.186875 5.28125 22.546875 C1.01860667 25.38863722 -2.72359105 25.53041793 -7.71875 24.546875 C-10.69911073 22.72586874 -12.26778546 20.70750318 -13.71875 17.546875 C-14.74456904 13.1485002 -14.60651433 9.48068723 -12.7109375 5.3515625 C-9.29400519 0.52880662 -5.79518108 -0.45383948 0 0 Z " fill="#6B662F" transform="translate(398.71875,236.453125)"/>
<path d="M0 0 C1.65 0 3.3 0 5 0 C5 20.46 5 40.92 5 62 C3.35 62 1.7 62 0 62 C0 41.54 0 21.08 0 0 Z " fill="#0F7E72" transform="translate(98,326)"/>
<path d="M0 0 C2.31 0 4.62 0 7 0 C7 2.31 7 4.62 7 7 C8.65 7 10.3 7 12 7 C12 8.65 12 10.3 12 12 C10.35 12 8.7 12 7 12 C7 17.61 7 23.22 7 29 C8.65 29 10.3 29 12 29 C12 30.65 12 32.3 12 34 C10.56510191 34.13536774 9.12652893 34.23217143 7.6875 34.3125 C6.88699219 34.37050781 6.08648437 34.42851563 5.26171875 34.48828125 C3 34 3 34 1.21875 32.03125 C-0.41107049 27.9775939 -0.32870959 24.50706526 -0.1875 20.1875 C-0.16719727 19.00510742 -0.16719727 19.00510742 -0.14648438 17.79882812 C-0.11133456 15.86558831 -0.05753361 13.93270318 0 12 C-1.32 12 -2.64 12 -4 12 C-4 10.35 -4 8.7 -4 7 C-2.68 7 -1.36 7 0 7 C0 4.69 0 2.38 0 0 Z " fill="#E6E6E6" transform="translate(114,60)"/>
<path d="M0 0 C0 1.65 0 3.3 0 5 C-1.98 5.66 -3.96 6.32 -6 7 C-6.33 8.65 -6.66 10.3 -7 12 C-5.02 12 -3.04 12 -1 12 C-1 13.32 -1 14.64 -1 16 C-2.98 16 -4.96 16 -7 16 C-7 23.59 -7 31.18 -7 39 C-8.98 39 -10.96 39 -13 39 C-13 31.74 -13 24.48 -13 17 C-14.32 17 -15.64 17 -17 17 C-17 15.35 -17 13.7 -17 12 C-15.68 12 -14.36 12 -13 12 C-13.0825 11.113125 -13.165 10.22625 -13.25 9.3125 C-12.94530814 5.27533282 -11.77959995 3.86135289 -9 1 C-6.04335481 -0.4783226 -3.25770263 -0.06032783 0 0 Z " fill="#F7F7F7" transform="translate(191,55)"/>
<path d="M0 0 C2.34643555 0.16796875 2.34643555 0.16796875 5 1 C6.39379883 3.30078125 6.39379883 3.30078125 7.45703125 6.3125 C8.04194336 7.92511719 8.04194336 7.92511719 8.63867188 9.5703125 C9.02603516 10.70210937 9.41339844 11.83390625 9.8125 13 C10.42254883 14.69769531 10.42254883 14.69769531 11.04492188 16.4296875 C14 24.71383929 14 24.71383929 14 26 C12.35 26 10.7 26 9 26 C8.34 24.02 7.68 22.04 7 20 C2.05 20.495 2.05 20.495 -3 21 C-3.99 23.475 -3.99 23.475 -5 26 C-6.65 26 -8.3 26 -10 26 C-8.90260205 22.78931169 -7.79587059 19.5819153 -6.6875 16.375 C-6.37876953 15.47136719 -6.07003906 14.56773438 -5.75195312 13.63671875 C-4.11004029 8.90109647 -2.38218112 4.41253241 0 0 Z " fill="#CFCFCF" transform="translate(424,1953)"/>
<path d="M0 0 C0.99 0.66 1.98 1.32 3 2 C3.11197949 5.43030511 2.96683937 8.72970551 2.70703125 12.14648438 C2.55455187 14.54691054 2.55455187 14.54691054 3 18 C5.37815395 20.01100705 5.37815395 20.01100705 8 21 C8 21.33 8 21.66 8 22 C2.375 22.25 2.375 22.25 -1 20 C-1.99 20.66 -2.98 21.32 -4 22 C-7.0625 22.3125 -7.0625 22.3125 -10 22 C-13.13265721 17.30101418 -12.80660125 12.49054885 -12 7 C-9.42099197 1.66412131 -6.1313081 -1.22626162 0 0 Z " fill="#69652E" transform="translate(219,239)"/>
<path d="M0 0 C3.18845573 0.27174339 4.2010566 0.82153773 7 2.6875 C9.5598578 6.52728671 9.85231571 9.19924174 9 13.6875 C6.86111111 18.25694444 6.86111111 18.25694444 4 19.6875 C0.98864195 20.03306568 -1.09361171 20.26544337 -4 19.6875 C-7.5341186 16.6687737 -8.80734394 14.76637394 -9.625 10.1875 C-8.61124807 4.51048922 -6.04830452 0.4123844 0 0 Z " fill="#D3D3D3" transform="translate(614,1959.3125)"/>
<path d="M0 0 C1.65 0 3.3 0 5 0 C6.4855957 1.56054688 6.4855957 1.56054688 7.67578125 3.71875 C8.11083984 4.48574219 8.54589844 5.25273437 8.99414062 6.04296875 C9.42919922 6.85378906 9.86425781 7.66460937 10.3125 8.5 C10.76689453 9.31082031 11.22128906 10.12164062 11.68945312 10.95703125 C12.80987626 12.96199897 13.90717162 14.979859 15 17 C15.33 11.39 15.66 5.78 16 0 C17.32 0 18.64 0 20 0 C20 8.25 20 16.5 20 25 C15 25 15 25 13.5144043 23.53125 C13.12164307 22.8609375 12.72888184 22.190625 12.32421875 21.5 C11.88916016 20.778125 11.45410156 20.05625 11.00585938 19.3125 C10.57080078 18.549375 10.13574219 17.78625 9.6875 17 C9.23310547 16.236875 8.77871094 15.47375 8.31054688 14.6875 C7.19062327 12.80131287 6.09313287 10.90183893 5 9 C4.67 14.28 4.34 19.56 4 25 C2.68 25 1.36 25 0 25 C0 16.75 0 8.5 0 0 Z " fill="#212221" transform="translate(570,465)"/>
<path d="M0 0 C1.32 0 2.64 0 4 0 C4 4.29 4 8.58 4 13 C5.65 12.01 7.3 11.02 9 10 C14.92177294 10.20419907 14.92177294 10.20419907 17.69262695 12.24926758 C19.43013129 14.5759984 19.34539287 16.00339215 19.29296875 18.88671875 C19.28330078 19.82451172 19.27363281 20.76230469 19.26367188 21.72851562 C19.23853516 22.70498047 19.21339844 23.68144531 19.1875 24.6875 C19.16719727 26.16959961 19.16719727 26.16959961 19.14648438 27.68164062 C19.11112203 30.12164231 19.06177033 32.56054719 19 35 C17.68 35 16.36 35 15 35 C14.97494385 34.42967041 14.9498877 33.85934082 14.92407227 33.27172852 C14.80843451 30.70173843 14.68556376 28.13214473 14.5625 25.5625 C14.50352539 24.21575195 14.50352539 24.21575195 14.44335938 22.84179688 C14.40146484 21.98779297 14.35957031 21.13378906 14.31640625 20.25390625 C14.27974854 19.46314697 14.24309082 18.6723877 14.20532227 17.85766602 C14.19436743 15.98598559 14.19436743 15.98598559 13 15 C10.04182893 14.74994614 10.04182893 14.74994614 7 15 C4.64641749 17.35358251 4.72128096 17.92968394 4.5859375 21.1328125 C4.54726562 21.93847656 4.50859375 22.74414062 4.46875 23.57421875 C4.4378125 24.41597656 4.406875 25.25773437 4.375 26.125 C4.33632812 26.97449219 4.29765625 27.82398438 4.2578125 28.69921875 C4.16343506 30.79911684 4.08062414 32.89952891 4 35 C2.68 35 1.36 35 0 35 C0 23.45 0 11.9 0 0 Z " fill="#6F6A33" transform="translate(238,226)"/>
<path d="M0 0 C1.32 0 2.64 0 4 0 C4 4.29 4 8.58 4 13 C5.65 12.01 7.3 11.02 9 10 C14.92177294 10.20419907 14.92177294 10.20419907 17.69262695 12.24926758 C19.43013129 14.5759984 19.34539287 16.00339215 19.29296875 18.88671875 C19.28330078 19.82451172 19.27363281 20.76230469 19.26367188 21.72851562 C19.23853516 22.70498047 19.21339844 23.68144531 19.1875 24.6875 C19.16719727 26.16959961 19.16719727 26.16959961 19.14648438 27.68164062 C19.11112203 30.12164231 19.06177033 32.56054719 19 35 C17.68 35 16.36 35 15 35 C14.97494385 34.42967041 14.9498877 33.85934082 14.92407227 33.27172852 C14.80843451 30.70173843 14.68556376 28.13214473 14.5625 25.5625 C14.50352539 24.21575195 14.50352539 24.21575195 14.44335938 22.84179688 C14.40146484 21.98779297 14.35957031 21.13378906 14.31640625 20.25390625 C14.27974854 19.46314697 14.24309082 18.6723877 14.20532227 17.85766602 C14.19436743 15.98598559 14.19436743 15.98598559 13 15 C10.04182893 14.74994614 10.04182893 14.74994614 7 15 C4.64641749 17.35358251 4.72128096 17.92968394 4.5859375 21.1328125 C4.54726562 21.93847656 4.50859375 22.74414062 4.46875 23.57421875 C4.4378125 24.41597656 4.406875 25.25773437 4.375 26.125 C4.33632812 26.97449219 4.29765625 27.82398438 4.2578125 28.69921875 C4.16343506 30.79911684 4.08062414 32.89952891 4 35 C2.68 35 1.36 35 0 35 C0 23.45 0 11.9 0 0 Z " fill="#6F6A33" transform="translate(125,226)"/>
<path d="M0 0 C1.32 0 2.64 0 4 0 C4.33 6.6 4.66 13.2 5 20 C6.216875 18.515 7.43375 17.03 8.6875 15.5 C12.31826923 11.06923077 12.31826923 11.06923077 15.76953125 10.71875 C16.50558594 10.8115625 17.24164063 10.904375 18 11 C13.85714286 17.42857143 13.85714286 17.42857143 11 20 C12.34526641 23.83197098 14.06371723 26.60900302 16.625 29.75 C20 33.91020408 20 33.91020408 20 35 C17.73828125 35.2734375 17.73828125 35.2734375 15 35 C12.98046875 33.1015625 12.98046875 33.1015625 11.1875 30.625 C10.58292969 29.81289062 9.97835938 29.00078125 9.35546875 28.1640625 C8 26 8 26 8 24 C4.82990528 25.62078662 4.82990528 25.62078662 4.48828125 28.1640625 C4.43027344 28.97617188 4.37226563 29.78828125 4.3125 30.625 C4.24675781 31.44226563 4.18101562 32.25953125 4.11328125 33.1015625 C4.07589844 33.72804688 4.03851563 34.35453125 4 35 C2.68 35 1.36 35 0 35 C0 23.45 0 11.9 0 0 Z " fill="#6E6932" transform="translate(300,226)"/>
<path d="M0 0 C3 2.3125 3 2.3125 5 5 C5 5.99 5 6.98 5 8 C3.68 8 2.36 8 1 8 C0.34 7.01 -0.32 6.02 -1 5 C-4.5 4.5 -4.5 4.5 -8 5 C-10.13749925 8.20624887 -10.29574999 9.22458103 -10.3125 12.9375 C-10.32925781 13.79214844 -10.34601563 14.64679687 -10.36328125 15.52734375 C-9.92193581 18.53134014 -9.16858971 19.88489568 -7 22 C-4.9511352 22.48057715 -4.9511352 22.48057715 -2.8125 22.25 C-0.9253125 22.12625 -0.9253125 22.12625 1 22 C1 20.02 1 18.04 1 16 C-0.65 16 -2.3 16 -4 16 C-4 15.01 -4 14.02 -4 13 C-1.03 13 1.94 13 5 13 C5.28529317 16.37913907 5.4127 19.6278066 5 23 C2.25427032 26.01144545 -0.58695169 26.22562933 -4.5 26.5 C-8.22315257 26.38830542 -8.90698688 26.07363538 -12 23.625 C-15.93311626 18.46278491 -15.76025928 13.33824857 -15 7 C-11.85244468 0.71663397 -6.77050768 -1.17804245 0 0 Z " fill="#252525" transform="translate(518,586)"/>
<path d="M0 0 C3 2.3125 3 2.3125 5 5 C5 5.99 5 6.98 5 8 C3.68 8 2.36 8 1 8 C0.34 7.01 -0.32 6.02 -1 5 C-4.5 4.5 -4.5 4.5 -8 5 C-10.13749925 8.20624887 -10.29574999 9.22458103 -10.3125 12.9375 C-10.32925781 13.79214844 -10.34601562 14.64679688 -10.36328125 15.52734375 C-9.92193581 18.53134014 -9.16858971 19.88489568 -7 22 C-4.9511352 22.48057715 -4.9511352 22.48057715 -2.8125 22.25 C-0.9253125 22.12625 -0.9253125 22.12625 1 22 C1 20.02 1 18.04 1 16 C-0.65 16 -2.3 16 -4 16 C-4 15.01 -4 14.02 -4 13 C-1.03 13 1.94 13 5 13 C5.28529317 16.37913907 5.4127 19.6278066 5 23 C2.25427032 26.01144545 -0.58695169 26.22562933 -4.5 26.5 C-8.22315257 26.38830542 -8.90698688 26.07363538 -12 23.625 C-15.93311626 18.46278491 -15.76025928 13.33824857 -15 7 C-11.85244468 0.71663397 -6.77050768 -1.17804245 0 0 Z " fill="#252525" transform="translate(549,464)"/>
<path d="M0 0 C1.17369141 -0.02513672 1.17369141 -0.02513672 2.37109375 -0.05078125 C4.5625 0.3125 4.5625 0.3125 6.3046875 1.3203125 C8.29647072 4.47500021 8.13912651 7.87285311 8.25 11.5 C8.30124023 12.62438477 8.30124023 12.62438477 8.35351562 13.77148438 C8.43584294 15.61796838 8.50085281 17.46520994 8.5625 19.3125 C6.29270335 19.42044277 4.02144804 19.49806176 1.75 19.5625 C0.48542969 19.60890625 -0.77914062 19.6553125 -2.08203125 19.703125 C-5.4375 19.3125 -5.4375 19.3125 -7.38671875 17.45703125 C-8.4375 15.3125 -8.4375 15.3125 -8.4375 12.75 C-7.07712648 9.43408954 -5.71216491 8.69513629 -2.4375 7.3125 C0.875 7.125 0.875 7.125 3.5625 7.3125 C3.2325 6.3225 2.9025 5.3325 2.5625 4.3125 C0.9125 4.3125 -0.7375 4.3125 -2.4375 4.3125 C-2.7675 4.9725 -3.0975 5.6325 -3.4375 6.3125 C-4.7575 6.3125 -6.0775 6.3125 -7.4375 6.3125 C-6.4639024 1.44451199 -4.98132443 0.02453854 0 0 Z " fill="#D2D2D2" transform="translate(573.4375,1959.6875)"/>
<path d="M0 0 C2.875 1.1875 2.875 1.1875 5 3 C5.8125 5.6875 5.8125 5.6875 6 8 C4.68 8 3.36 8 2 8 C1.67 7.01 1.34 6.02 1 5 C-1.97 4.505 -1.97 4.505 -5 4 C-5.66 5.32 -6.32 6.64 -7 8 C-4.3153443 9.6581697 -1.64824804 11.17242743 1.1875 12.5625 C4 14 4 14 6 16 C6.4375 19.4375 6.4375 19.4375 6 23 C3.13184923 25.77852106 1.02144852 25.99727638 -2.9375 26.5 C-6.14928929 26.38420494 -7.97102062 25.66644131 -10.5 23.6875 C-13 21 -13 21 -13 18 C-11.35 18 -9.7 18 -8 18 C-7.34 19.32 -6.68 20.64 -6 22 C-4.02 22 -2.04 22 0 22 C0.33 20.35 0.66 18.7 1 17 C-0.03060547 16.63648438 -0.03060547 16.63648438 -1.08203125 16.265625 C-1.98308594 15.93046875 -2.88414062 15.5953125 -3.8125 15.25 C-4.70582031 14.92515625 -5.59914063 14.6003125 -6.51953125 14.265625 C-9.29063515 12.85170742 -10.46514058 11.68600398 -12 9 C-11.93013292 5.57651315 -11.63458711 3.73221589 -9.375 1.125 C-6.04574611 -0.452015 -3.64527529 -0.38371319 0 0 Z " fill="#2B2B2B" transform="translate(550,586)"/>
<path d="M0 0 C0.79148437 -0.02578125 1.58296875 -0.0515625 2.3984375 -0.078125 C4.625 0.25 4.625 0.25 6.37109375 1.25390625 C8.35545539 4.41281216 8.20161453 7.8099611 8.3125 11.4375 C8.36374023 12.56188477 8.36374023 12.56188477 8.41601562 13.70898438 C8.49834294 15.55546838 8.56335281 17.40270994 8.625 19.25 C6.35520335 19.35794277 4.08394804 19.43556176 1.8125 19.5 C0.54792969 19.54640625 -0.71664062 19.5928125 -2.01953125 19.640625 C-5.375 19.25 -5.375 19.25 -7.32421875 17.39453125 C-8.375 15.25 -8.375 15.25 -8.375 12.6875 C-7.01462648 9.37158954 -5.64966491 8.63263629 -2.375 7.25 C0.9375 7.0625 0.9375 7.0625 3.625 7.25 C3.295 6.26 2.965 5.27 2.625 4.25 C-0.86734244 4.15021879 -3.96937148 4.47157062 -7.375 5.25 C-5.28715148 0.93511306 -4.86629856 0.09449123 0 0 Z " fill="#D3D3D3" transform="translate(673.375,1959.75)"/>
<path d="M0 0 C1.65 0 3.3 0 5 0 C5.33 2.64 5.66 5.28 6 8 C7.093125 7.938125 8.18625 7.87625 9.3125 7.8125 C13 8 13 8 14.71875 9 C16.75518944 12.17883229 16.31160535 15.54389423 16.1875 19.1875 C16.16719727 20.31188477 16.16719727 20.31188477 16.14648438 21.45898438 C16.11118539 23.30629767 16.05737917 25.15324066 16 27 C14.35 27 12.7 27 11 27 C10.67 22.05 10.34 17.1 10 12 C8.68 12 7.36 12 6 12 C4.58365167 14.83269666 4.6536995 17.47466438 4.4375 20.625 C4.35371094 21.81351563 4.26992188 23.00203125 4.18359375 24.2265625 C4.12300781 25.14179687 4.06242187 26.05703125 4 27 C2.68 27 1.36 27 0 27 C0 18.09 0 9.18 0 0 Z " fill="#C6C6C6" transform="translate(470,1952)"/>
<path d="M0 0 C3.9375 0.625 3.9375 0.625 6.4375 2.1875 C8.44228781 5.44528019 8.22612859 7.87282833 7.9375 11.625 C3.9775 11.625 0.0175 11.625 -4.0625 11.625 C-3.7325 12.945 -3.4025 14.265 -3.0625 15.625 C0.4594721 15.70504482 3.55731469 15.66505702 6.9375 14.625 C7.2675 15.615 7.5975 16.605 7.9375 17.625 C3.92645926 20.29902716 0.64981513 20.55755974 -4.0625 19.625 C-7.6619734 16.61319573 -8.86334148 14.74028769 -9.6875 10.125 C-8.66510717 4.39960014 -6.09761212 0.33052477 0 0 Z " fill="#D2D2D2" transform="translate(711.0625,1959.375)"/>
<path d="M0 0 C3.9375 0.625 3.9375 0.625 6.4375 2.1875 C8.44228781 5.44528019 8.22612859 7.87282833 7.9375 11.625 C3.9775 11.625 0.0175 11.625 -4.0625 11.625 C-3.7325 12.945 -3.4025 14.265 -3.0625 15.625 C0.4594721 15.70504482 3.55731469 15.66505702 6.9375 14.625 C7.2675 15.615 7.5975 16.605 7.9375 17.625 C3.92645926 20.29902716 0.64981513 20.55755974 -4.0625 19.625 C-7.6619734 16.61319573 -8.86334148 14.74028769 -9.6875 10.125 C-8.66510717 4.39960014 -6.09761212 0.33052477 0 0 Z " fill="#D2D2D2" transform="translate(497.0625,1959.375)"/>
<path d="M0 0 C1.6965332 1.24926758 1.6965332 1.24926758 3 3 C3.34057617 5.26831055 3.34057617 5.26831055 3.29296875 7.88671875 C3.28330078 8.82451172 3.27363281 9.76230469 3.26367188 10.72851562 C3.23853516 11.70498047 3.21339844 12.68144531 3.1875 13.6875 C3.16719727 15.16959961 3.16719727 15.16959961 3.14648438 16.68164062 C3.11112203 19.12164231 3.06177033 21.56054719 3 24 C1.68 24 0.36 24 -1 24 C-1.02505615 23.42967041 -1.0501123 22.85934082 -1.07592773 22.27172852 C-1.19156549 19.70173843 -1.31443624 17.13214473 -1.4375 14.5625 C-1.47681641 13.66466797 -1.51613281 12.76683594 -1.55664062 11.84179688 C-1.59853516 10.98779297 -1.64042969 10.13378906 -1.68359375 9.25390625 C-1.72025146 8.46314697 -1.75690918 7.6723877 -1.79467773 6.85766602 C-1.80563257 4.98598559 -1.80563257 4.98598559 -3 4 C-5.95817107 3.74994614 -5.95817107 3.74994614 -9 4 C-11.35358251 6.35358251 -11.27871904 6.92968394 -11.4140625 10.1328125 C-11.45273437 10.93847656 -11.49140625 11.74414062 -11.53125 12.57421875 C-11.5621875 13.41597656 -11.593125 14.25773438 -11.625 15.125 C-11.66367187 15.97449219 -11.70234375 16.82398438 -11.7421875 17.69921875 C-11.83656494 19.79911684 -11.91937586 21.89952891 -12 24 C-13.32 24 -14.64 24 -16 24 C-16 16.08 -16 8.16 -16 0 C-14.68 0 -13.36 0 -12 0 C-11.67 0.66 -11.34 1.32 -11 2 C-10.484375 1.484375 -9.96875 0.96875 -9.4375 0.4375 C-5.95573432 -1.61584899 -3.8368404 -0.97665028 0 0 Z " fill="#6E6832" transform="translate(426,237)"/>
<path d="M0 0 C2.475 0.495 2.475 0.495 5 1 C5.67220351 2.93558599 6.33758077 4.87354372 7 6.8125 C7.556875 8.43091797 7.556875 8.43091797 8.125 10.08203125 C9 13 9 13 9 16 C9.66 16 10.32 16 11 16 C11.12117187 15.43152344 11.24234375 14.86304688 11.3671875 14.27734375 C12.41322054 9.45754536 13.59204484 4.7267066 15 0 C16.65 0 18.3 0 20 0 C18.66466868 4.20438603 17.31335276 8.40319151 15.94726562 12.59765625 C15.48519954 14.0239779 15.02745987 15.45170892 14.57421875 16.88085938 C13.92030981 18.94009894 13.25078428 20.99369513 12.578125 23.046875 C12.18012695 24.28276367 11.78212891 25.51865234 11.37207031 26.79199219 C9.97496234 30.05854 8.7771061 31.81635028 6 34 C3.25 34.25 3.25 34.25 1 34 C1 32.68 1 31.36 1 30 C2.65 29.34 4.3 28.68 6 28 C7.60816489 21.50582592 6.04558316 17.27128755 3.5625 11.1875 C2.89469323 9.49445084 2.22920891 7.80048319 1.56640625 6.10546875 C1.26677979 5.36449951 0.96715332 4.62353027 0.65844727 3.86010742 C0 2 0 2 0 0 Z " fill="#6D6831" transform="translate(148,237)"/>
<path d="M0 0 C2.475 0.495 2.475 0.495 5 1 C5.67220351 2.93558599 6.33758077 4.87354372 7 6.8125 C7.556875 8.43091797 7.556875 8.43091797 8.125 10.08203125 C9 13 9 13 9 16 C9.66 16 10.32 16 11 16 C11.12117188 15.43152344 11.24234375 14.86304688 11.3671875 14.27734375 C12.41322054 9.45754536 13.59204484 4.7267066 15 0 C16.65 0 18.3 0 20 0 C18.80337239 3.73926976 17.59446272 7.47432711 16.37451172 11.20605469 C15.76020783 13.09363428 15.1554115 14.98429954 14.55078125 16.875 C14.15761719 18.07382813 13.76445313 19.27265625 13.359375 20.5078125 C13.00327148 21.60754395 12.64716797 22.70727539 12.28027344 23.84033203 C10.76837066 27.57165273 8.87643985 31.12356015 6 34 C4.33382885 34.04063832 2.66611905 34.042721 1 34 C1 32.68 1 31.36 1 30 C2.65 29.34 4.3 28.68 6 28 C7.60816489 21.50582592 6.04558316 17.27128755 3.5625 11.1875 C2.89469323 9.49445084 2.22920891 7.80048319 1.56640625 6.10546875 C1.26677979 5.36449951 0.96715332 4.62353027 0.65844727 3.86010742 C0 2 0 2 0 0 Z " fill="#6D6831" transform="translate(77,237)"/>
<path d="M0 0 C2.1875 1.8125 2.1875 1.8125 3 4.5 C3.061875 5.263125 3.12375 6.02625 3.1875 6.8125 C1.8675 6.8125 0.5475 6.8125 -0.8125 6.8125 C-1.4725 5.8225 -2.1325 4.8325 -2.8125 3.8125 C-6.39607241 3.56234127 -6.39607241 3.56234127 -9.8125 3.8125 C-9.8125 5.1325 -9.8125 6.4525 -9.8125 7.8125 C-8.65621094 8.21082031 -8.65621094 8.21082031 -7.4765625 8.6171875 C-6.47367187 8.97039062 -5.47078125 9.32359375 -4.4375 9.6875 C-2.94089844 10.20957031 -2.94089844 10.20957031 -1.4140625 10.7421875 C1.1875 11.8125 1.1875 11.8125 3.1875 13.8125 C3.63685048 17.25752033 3.56528761 19.15995776 1.8125 22.1875 C-2.2382503 24.69510733 -6.17728556 24.59016887 -10.8125 23.8125 C-13.4375 22 -13.4375 22 -14.8125 19.8125 C-14.8125 18.8225 -14.8125 17.8325 -14.8125 16.8125 C-13.4925 16.8125 -12.1725 16.8125 -10.8125 16.8125 C-10.8125 17.8025 -10.8125 18.7925 -10.8125 19.8125 C-7.5125 19.8125 -4.2125 19.8125 -0.8125 19.8125 C-1.1425 18.1625 -1.4725 16.5125 -1.8125 14.8125 C-2.49957031 14.64234375 -3.18664062 14.4721875 -3.89453125 14.296875 C-4.79558594 14.05453125 -5.69664062 13.8121875 -6.625 13.5625 C-7.96498047 13.21445313 -7.96498047 13.21445313 -9.33203125 12.859375 C-12.23859615 11.63266729 -13.27262117 10.53926219 -14.8125 7.8125 C-14.8125 4.75 -14.8125 4.75 -13.8125 1.8125 C-9.43839331 -1.9367343 -5.22554419 -2.20634088 0 0 Z " fill="#6F6A33" transform="translate(277.8125,237.1875)"/>
<path d="M0 0 C3.4375 0.5625 3.4375 0.5625 5.375 2 C6.98466406 5.88213097 7.0925201 9.42630567 6.4375 13.5625 C4.8125 16.625 4.8125 16.625 2.4375 18.5625 C-0.5625 19.1875 -0.5625 19.1875 -3.5625 18.5625 C-6.05619699 16.46254464 -7.30595547 14.86092946 -7.9453125 11.625 C-8.15377287 7.95609754 -7.71940079 5.86374951 -6 2.5625 C-3.5625 0.5625 -3.5625 0.5625 0 0 Z " fill="#F6EFBB" transform="translate(333.5625,239.4375)"/>
<path d="M0 0 C3.5 0.5625 3.5 0.5625 5.4375 2.5625 C6.78486382 6.36682137 7.12099396 9.570396 6.5 13.5625 C5.34367254 15.92543002 4.35016245 17.71233755 2.5 19.5625 C0.1875 19.9375 0.1875 19.9375 -2.5 19.5625 C-5.22684711 17.35154288 -6.34363569 15.637939 -6.8515625 12.14453125 C-7.06599647 5.54581327 -7.06599647 5.54581327 -5.19140625 2.2890625 C-3.5 0.5625 -3.5 0.5625 0 0 Z " fill="#CCCECD" transform="translate(519.5,467.4375)"/>
<path d="M0 0 C4.66666667 0 9.33333333 0 14 0 C14 1.65 14 3.3 14 5 C13.030625 5.309375 12.06125 5.61875 11.0625 5.9375 C8.15934208 6.69523342 8.15934208 6.69523342 7 8 C6.84379445 9.41327947 6.74943827 10.8335459 6.68359375 12.25390625 C6.64169922 13.10791016 6.59980469 13.96191406 6.55664062 14.84179688 C6.49766602 16.18854492 6.49766602 16.18854492 6.4375 17.5625 C6.39431641 18.46419922 6.35113281 19.36589844 6.30664062 20.29492188 C6.20021858 22.52978485 6.09820012 24.76476308 6 27 C4.02 27 2.04 27 0 27 C0 18.09 0 9.18 0 0 Z " fill="#FAFAFA" transform="translate(157,67)"/>
<path d="M0 0 C1.17949219 0.10183594 2.35898437 0.20367188 3.57421875 0.30859375 C4.47785156 0.39238281 5.38148438 0.47617187 6.3125 0.5625 C6.3125 1.5525 6.3125 2.5425 6.3125 3.5625 C2.3525 3.5625 -1.6075 3.5625 -5.6875 3.5625 C-5.6875 5.8725 -5.6875 8.1825 -5.6875 10.5625 C-2.3875 10.5625 0.9125 10.5625 4.3125 10.5625 C4.3125 11.5525 4.3125 12.5425 4.3125 13.5625 C1.0125 13.5625 -2.2875 13.5625 -5.6875 13.5625 C-5.6875 16.5325 -5.6875 19.5025 -5.6875 22.5625 C-1.7275 22.5625 2.2325 22.5625 6.3125 22.5625 C6.3125 23.5525 6.3125 24.5425 6.3125 25.5625 C1.0325 25.5625 -4.2475 25.5625 -9.6875 25.5625 C-9.6875 17.3125 -9.6875 9.0625 -9.6875 0.5625 C-6.14075997 -0.61974668 -3.71227005 -0.33079634 0 0 Z " fill="#1F1F1F" transform="translate(592.6875,586.4375)"/>
<path d="M0 0 C1.17949219 0.10183594 2.35898437 0.20367188 3.57421875 0.30859375 C4.47785156 0.39238281 5.38148438 0.47617187 6.3125 0.5625 C6.3125 1.5525 6.3125 2.5425 6.3125 3.5625 C2.3525 3.5625 -1.6075 3.5625 -5.6875 3.5625 C-5.6875 5.8725 -5.6875 8.1825 -5.6875 10.5625 C-2.3875 10.5625 0.9125 10.5625 4.3125 10.5625 C4.3125 11.5525 4.3125 12.5425 4.3125 13.5625 C1.0125 13.5625 -2.2875 13.5625 -5.6875 13.5625 C-5.6875 16.5325 -5.6875 19.5025 -5.6875 22.5625 C-1.7275 22.5625 2.2325 22.5625 6.3125 22.5625 C6.3125 23.5525 6.3125 24.5425 6.3125 25.5625 C1.0325 25.5625 -4.2475 25.5625 -9.6875 25.5625 C-9.6875 17.3125 -9.6875 9.0625 -9.6875 0.5625 C-6.14075997 -0.61974668 -3.71227005 -0.33079634 0 0 Z " fill="#1F1F1F" transform="translate(493.6875,586.4375)"/>
<path d="M0 0 C3.5 0.5 3.5 0.5 5.19140625 1.65625 C7.05798883 4.28618128 6.933584 6.30454411 6.9375 9.5 C6.95683594 10.551875 6.97617187 11.60375 6.99609375 12.6875 C6.5 15.5 6.5 15.5 4.62890625 17.34375 C1.92201547 18.81391453 0.53310824 19.10662165 -2.5 18.5 C-4.92644949 16.40144909 -6.26952914 14.7701505 -6.8515625 11.5625 C-6.99212519 8.18899548 -6.57033127 5.6985824 -5.4375 2.5 C-3.5 0.5 -3.5 0.5 0 0 Z " fill="#F3ECB7" transform="translate(479.5,239.5)"/>
<path d="M0 0 C2.03667615 1.54506466 2.86073078 2.72146156 4 5 C4.37924138 10.02494826 4.00366502 12.91501557 1 17 C0 18 0 18 -2.875 18.25 C-6 18 -6 18 -7.671875 16.859375 C-9.56019301 14.21572979 -9.39865866 12.21757729 -9.375 9 C-9.38273437 7.948125 -9.39046875 6.89625 -9.3984375 5.8125 C-9 3 -9 3 -7.6640625 1.1484375 C-5.06673946 -0.64408122 -3.06229826 -0.38278728 0 0 Z " fill="#F4EDB8" transform="translate(362,240)"/>
<path d="M0 0 C5.94 0 11.88 0 18 0 C16.875 5.625 16.875 5.625 14.49609375 8.76953125 C14.00302734 9.43017578 13.50996094 10.09082031 13.00195312 10.77148438 C12.48568359 11.44501953 11.96941406 12.11855469 11.4375 12.8125 C10.91736328 13.50537109 10.39722656 14.19824219 9.86132812 14.91210938 C8.58200846 16.61395663 7.29203986 18.30778964 6 20 C10.29 20.33 14.58 20.66 19 21 C19 21.99 19 22.98 19 24 C12.73 24 6.46 24 0 24 C1.02981524 18.85092381 2.74769488 16.29403125 5.9375 12.375 C9.60146502 7.78699252 9.60146502 7.78699252 13 3 C8.71 3 4.42 3 0 3 C0 2.01 0 1.02 0 0 Z " fill="#68632C" transform="translate(434,237)"/>
<path d="M0 0 C2.31 0 4.62 0 7 0 C7 8.91 7 17.82 7 27 C4.69 27 2.38 27 0 27 C0 18.09 0 9.18 0 0 Z " fill="#E6E6E6" transform="translate(100,67)"/>
<path d="M0 0 C2 2 2 2 2.265625 4.96875 C2.26046875 6.1340625 2.2553125 7.299375 2.25 8.5 C2.25515625 9.6653125 2.2603125 10.830625 2.265625 12.03125 C2 15 2 15 0 17 C-6.1026878 17.66574776 -6.1026878 17.66574776 -8.9375 15.5625 C-10.54136452 11.69435616 -10.537354 8.12475961 -10 4 C-7.96745006 -0.90203221 -4.91059819 -0.53570162 0 0 Z " fill="#2C2C2C" transform="translate(345,72)"/>
<path d="M0 0 C0.99 0.33 1.98 0.66 3 1 C2.27087654 1.49056633 2.27087654 1.49056633 1.52702332 1.99104309 C-0.83047998 5.0925822 -0.43922835 8.39807975 -0.43237305 12.14331055 C-0.4425647 12.97280212 -0.45275635 13.8022937 -0.46325684 14.65692139 C-0.49346498 17.40025518 -0.50266462 20.14324026 -0.51171875 22.88671875 C-0.52855965 24.78816394 -0.54670909 26.68959795 -0.56611633 28.59101868 C-0.61368642 33.59689849 -0.64345041 38.60273301 -0.66955566 43.60876465 C-0.69932587 48.71648099 -0.74586831 53.82404115 -0.79101562 58.93164062 C-0.87712845 68.95434551 -0.94443821 78.97708247 -1 89 C-1.66 89 -2.32 89 -3 89 C-3.04634725 78.26451606 -3.0818814 67.52905594 -3.10362434 56.79349232 C-3.11406003 51.80849994 -3.12821539 46.82357602 -3.15087891 41.83862305 C-3.17261483 37.02757278 -3.18457025 32.21658836 -3.18975449 27.40549278 C-3.19344888 25.5702886 -3.20066309 23.73508802 -3.21146011 21.89991188 C-3.22598494 19.32878464 -3.22797752 16.75792927 -3.22705078 14.18676758 C-3.23424133 13.42863266 -3.24143188 12.67049774 -3.24884033 11.88938904 C-3.23225613 7.63526681 -3.1917318 3.1917318 0 0 Z " fill="#E1E2E1" transform="translate(52,552)"/>
<path d="M0 0 C0.99 0.33 1.98 0.66 3 1 C2.27087654 1.49056633 2.27087654 1.49056633 1.52702332 1.99104309 C-0.83047998 5.0925822 -0.43922835 8.39807975 -0.43237305 12.14331055 C-0.4425647 12.97280212 -0.45275635 13.8022937 -0.46325684 14.65692139 C-0.49346498 17.40025518 -0.50266462 20.14324026 -0.51171875 22.88671875 C-0.52855965 24.78816394 -0.54670909 26.68959795 -0.56611633 28.59101868 C-0.61368642 33.59689849 -0.64345041 38.60273301 -0.66955566 43.60876465 C-0.69932587 48.71648099 -0.74586831 53.82404115 -0.79101562 58.93164062 C-0.87712845 68.95434551 -0.94443821 78.97708247 -1 89 C-3.52431526 86.47568474 -3.2475634 84.89793853 -3.28216553 81.45373535 C-3.27968811 80.680177 -3.27721069 79.90661865 -3.2746582 79.10961914 C-3.27976913 78.29484604 -3.28488007 77.48007294 -3.29014587 76.64060974 C-3.30408215 73.93871785 -3.30308207 71.23707988 -3.30078125 68.53515625 C-3.30466603 66.66189987 -3.30900024 64.78864436 -3.31376648 62.91539001 C-3.32123742 58.98531237 -3.32093115 55.05532454 -3.31567383 51.12524414 C-3.30987871 46.08318335 -3.32680697 41.04148983 -3.3500185 35.99948978 C-3.36473435 32.12965232 -3.36563047 28.25990374 -3.36250877 24.39004326 C-3.36302309 22.53086049 -3.36828146 20.6716729 -3.37832069 18.81251717 C-3.39062602 16.21469229 -3.38392921 13.6175883 -3.37231445 11.01977539 C-3.37995819 10.24824127 -3.38760193 9.47670715 -3.39547729 8.68179321 C-3.34366122 3.45149405 -3.34366122 3.45149405 -1.47673035 0.99876404 C-0.74574883 0.50437584 -0.74574883 0.50437584 0 0 Z " fill="#E1E1E1" transform="translate(52,430)"/>
<path d="M0 0 C2.475 0.495 2.475 0.495 5 1 C5.33 0.67 5.66 0.34 6 0 C12.21376487 -0.46027888 12.21376487 -0.46027888 14.71484375 1.00390625 C16.75871851 4.17843513 16.3115892 7.54436827 16.1875 11.1875 C16.16719727 12.31188477 16.16719727 12.31188477 16.14648438 13.45898438 C16.11118539 15.30629767 16.05737917 17.15324066 16 19 C14.68 19 13.36 19 12 19 C11.67 14.38 11.34 9.76 11 5 C9.35 4.67 7.7 4.34 6 4 C4.58365167 6.83269666 4.6536995 9.47466438 4.4375 12.625 C4.35371094 13.81351563 4.26992188 15.00203125 4.18359375 16.2265625 C4.12300781 17.14179687 4.06242188 18.05703125 4 19 C2.68 19 1.36 19 0 19 C0 12.73 0 6.46 0 0 Z " fill="#D8D8D8" transform="translate(626,1960)"/>
<path d="M0 0 C2.475 0.495 2.475 0.495 5 1 C5.33 0.67 5.66 0.34 6 0 C12.21376487 -0.46027888 12.21376487 -0.46027888 14.71484375 1.00390625 C16.75871851 4.17843513 16.3115892 7.54436827 16.1875 11.1875 C16.16719727 12.31188477 16.16719727 12.31188477 16.14648438 13.45898438 C16.11118539 15.30629767 16.05737917 17.15324066 16 19 C14.68 19 13.36 19 12 19 C11.67 14.38 11.34 9.76 11 5 C9.35 4.67 7.7 4.34 6 4 C4.58365167 6.83269666 4.6536995 9.47466438 4.4375 12.625 C4.35371094 13.81351563 4.26992188 15.00203125 4.18359375 16.2265625 C4.12300781 17.14179687 4.06242188 18.05703125 4 19 C2.68 19 1.36 19 0 19 C0 12.73 0 6.46 0 0 Z " fill="#D8D8D8" transform="translate(508,1960)"/>
<path d="M0 0 C1.32 0 2.64 0 4 0 C4.33 4.62 4.66 9.24 5 14 C6.65 14.33 8.3 14.66 10 15 C11.41634833 12.16730334 11.3463005 9.52533562 11.5625 6.375 C11.64628906 5.18648437 11.73007812 3.99796875 11.81640625 2.7734375 C11.87699219 1.85820313 11.93757813 0.94296875 12 0 C13.32 0 14.64 0 16 0 C16 6.27 16 12.54 16 19 C3.6966325 19.36544656 3.6966325 19.36544656 1.09375 18 C-0.67520732 14.76533518 -0.30953066 11.39519494 -0.1875 7.8125 C-0.17396484 7.06291016 -0.16042969 6.31332031 -0.14648438 5.54101562 C-0.11118539 3.69370233 -0.05737917 1.84675934 0 0 Z " fill="#D9D9D9" transform="translate(439,1960)"/>
<path d="M0 0 C1.7325 0.1546875 1.7325 0.1546875 3.5 0.3125 C5.73465229 3.66447843 5.77108649 4.89041246 5.75 8.8125 C5.75515625 9.7715625 5.7603125 10.730625 5.765625 11.71875 C5.5 14.3125 5.5 14.3125 3.5 17.3125 C0 17.625 0 17.625 -3.5 17.3125 C-5.5 15.3125 -5.5 15.3125 -5.765625 12.34375 C-5.76046875 11.1784375 -5.7553125 10.013125 -5.75 8.8125 C-5.75515625 7.6471875 -5.7603125 6.481875 -5.765625 5.28125 C-5.36866944 0.84468784 -4.38498483 0.3915165 0 0 Z " fill="#272727" transform="translate(458.5,71.6875)"/>
<path d="M0 0 C1.7325 0.1546875 1.7325 0.1546875 3.5 0.3125 C5.73465229 3.66447843 5.77108649 4.89041246 5.75 8.8125 C5.75515625 9.7715625 5.7603125 10.730625 5.765625 11.71875 C5.5 14.3125 5.5 14.3125 3.5 17.3125 C0 17.625 0 17.625 -3.5 17.3125 C-5.5 15.3125 -5.5 15.3125 -5.765625 12.34375 C-5.76046875 11.1784375 -5.7553125 10.013125 -5.75 8.8125 C-5.75515625 7.6471875 -5.7603125 6.481875 -5.765625 5.28125 C-5.36866944 0.84468784 -4.38498483 0.3915165 0 0 Z " fill="#272727" transform="translate(429.5,71.6875)"/>
<path d="M0 0 C6.6 0 13.2 0 20 0 C20 1.32 20 2.64 20 4 C17.36 4 14.72 4 12 4 C12 11.26 12 18.52 12 26 C10.68 26 9.36 26 8 26 C8 18.74 8 11.48 8 4 C5.36 4 2.72 4 0 4 C0 2.68 0 1.36 0 0 Z " fill="#272727" transform="translate(559,586)"/>
<path d="M0 0 C2.5 1.8125 2.5 1.8125 4 4 C4 4.99 4 5.98 4 7 C2.35 7 0.7 7 -1 7 C-1.33 6.01 -1.66 5.02 -2 4 C-3.65 4.33 -5.3 4.66 -7 5 C-7 7.97 -7 10.94 -7 14 C-5.35 14.33 -3.7 14.66 -2 15 C-1.67 14.34 -1.34 13.68 -1 13 C0.32 13 1.64 13 3 13 C2.42655063 15.86724686 2.1385485 16.8614515 0 19 C-7.10601719 19.68767908 -7.10601719 19.68767908 -10.4375 17.125 C-13.25370672 13.29495887 -13.32273441 10.76033254 -13 6 C-10.08448464 -0.09607756 -6.584418 -0.9629386 0 0 Z " fill="#D0D0D0" transform="translate(560,1960)"/>
<path d="M0 0 C4.95 0 9.9 0 15 0 C15 3.3 15 6.6 15 10 C10.05 10 5.1 10 0 10 C0 6.7 0 3.4 0 0 Z " fill="#BBD596" transform="translate(347,1949)"/>
<path d="M0 0 C1.65 0 3.3 0 5 0 C5 1.65 5 3.3 5 5 C5.99 5 6.98 5 8 5 C8 5.99 8 6.98 8 8 C7.01 8 6.02 8 5 8 C5 12.29 5 16.58 5 21 C5.99 21 6.98 21 8 21 C8 21.99 8 22.98 8 24 C5.125 24.125 5.125 24.125 2 24 C0 22 0 22 -0.1953125 18.7421875 C-0.17210937 17.46601562 -0.14890625 16.18984375 -0.125 14.875 C-0.10695313 13.59367187 -0.08890625 12.31234375 -0.0703125 10.9921875 C-0.04710937 10.00476562 -0.02390625 9.01734375 0 8 C-0.99 8 -1.98 8 -3 8 C-3 7.01 -3 6.02 -3 5 C-2.01 5 -1.02 5 0 5 C0 3.35 0 1.7 0 0 Z " fill="#CDCDCD" transform="translate(586,1955)"/>
<path d="M0 0 C1.65 0 3.3 0 5 0 C5 1.65 5 3.3 5 5 C5.99 5 6.98 5 8 5 C8 5.99 8 6.98 8 8 C7.01 8 6.02 8 5 8 C5 12.29 5 16.58 5 21 C5.99 21 6.98 21 8 21 C8 21.99 8 22.98 8 24 C5.125 24.125 5.125 24.125 2 24 C0 22 0 22 -0.1953125 18.7421875 C-0.17210937 17.46601562 -0.14890625 16.18984375 -0.125 14.875 C-0.10695313 13.59367187 -0.08890625 12.31234375 -0.0703125 10.9921875 C-0.04710937 10.00476562 -0.02390625 9.01734375 0 8 C-0.99 8 -1.98 8 -3 8 C-3 7.01 -3 6.02 -3 5 C-2.01 5 -1.02 5 0 5 C0 3.35 0 1.7 0 0 Z " fill="#CDCDCD" transform="translate(528,1955)"/>
<path d="M0 0 C1.65 0 3.3 0 5 0 C5 1.65 5 3.3 5 5 C5.99 5 6.98 5 8 5 C8 5.99 8 6.98 8 8 C7.01 8 6.02 8 5 8 C5 12.29 5 16.58 5 21 C5.99 21 6.98 21 8 21 C8 21.99 8 22.98 8 24 C5.125 24.125 5.125 24.125 2 24 C0 22 0 22 -0.1953125 18.7421875 C-0.17210937 17.46601562 -0.14890625 16.18984375 -0.125 14.875 C-0.10695313 13.59367187 -0.08890625 12.31234375 -0.0703125 10.9921875 C-0.04710937 10.00476562 -0.02390625 9.01734375 0 8 C-0.99 8 -1.98 8 -3 8 C-3 7.01 -3 6.02 -3 5 C-2.01 5 -1.02 5 0 5 C0 3.35 0 1.7 0 0 Z " fill="#CDCDCD" transform="translate(459,1955)"/>
<path d="M0 0 C1.670625 0.061875 1.670625 0.061875 3.375 0.125 C3.375 1.115 3.375 2.105 3.375 3.125 C2.055 3.455 0.735 3.785 -0.625 4.125 C-0.955 5.445 -1.285 6.765 -1.625 8.125 C-0.305 8.125 1.015 8.125 2.375 8.125 C2.375 9.115 2.375 10.105 2.375 11.125 C1.055 11.125 -0.265 11.125 -1.625 11.125 C-1.625 16.405 -1.625 21.685 -1.625 27.125 C-2.945 27.125 -4.265 27.125 -5.625 27.125 C-5.625 21.845 -5.625 16.565 -5.625 11.125 C-6.615 11.125 -7.605 11.125 -8.625 11.125 C-8.625 10.135 -8.625 9.145 -8.625 8.125 C-7.635 8.125 -6.645 8.125 -5.625 8.125 C-5.686875 6.701875 -5.686875 6.701875 -5.75 5.25 C-5.56379584 0.59489612 -4.59761607 0.15853849 0 0 Z " fill="#D9D9D9" transform="translate(661.625,1951.875)"/>
<path d="M0 0 C1.32 0 2.64 0 4 0 C4 11.55 4 23.1 4 35 C2.68 35 1.36 35 0 35 C0 23.45 0 11.9 0 0 Z " fill="#757039" transform="translate(376,226)"/>
<path d="M0 0 C1.65 0 3.3 0 5 0 C5 8.91 5 17.82 5 27 C3.35 27 1.7 27 0 27 C0 18.09 0 9.18 0 0 Z " fill="#C8C8C8" transform="translate(694,1952)"/>
<path d="M0 0 C1.32 0 2.64 0 4 0 C4 7.26 4 14.52 4 22 C7.63 22 11.26 22 15 22 C15 22.99 15 23.98 15 25 C10.05 25 5.1 25 0 25 C0 16.75 0 8.5 0 0 Z " fill="#1B1C1B" transform="translate(492,465)"/>
<path d="M0 0 C1.65 0 3.3 0 5 0 C5 0.66 5 1.32 5 2 C5.99 2 6.98 2 8 2 C9.32368621 8.25742574 9.32368621 8.25742574 7.9375 11.4375 C5.2289863 13.62178524 3.38793318 13.36041842 0 13 C-2 12 -2 12 -3.25 9.1875 C-4 6 -4 6 -3.125 3.625 C-2.75375 3.08875 -2.3825 2.5525 -2 2 C-1.34 2 -0.68 2 0 2 C0 1.34 0 0.68 0 0 Z " fill="#CAC3C7" transform="translate(352,1963)"/>
<path d="M0 0 C1.11375 0.1546875 1.11375 0.1546875 2.25 0.3125 C2.62952295 6.51137485 2.0852113 10.7602112 -0.75 16.3125 C-2.41611905 16.355221 -4.08382885 16.35313832 -5.75 16.3125 C-7.39037395 14.67212605 -6.99911331 12.81773159 -7.0625 10.5625 C-7.02109894 6.95025766 -6.82023891 5.44257206 -5.0625 2.1875 C-2.75 0.3125 -2.75 0.3125 0 0 Z " fill="#F5EEBA" transform="translate(216.75,241.6875)"/>
<path d="M0 0 C1.32 0 2.64 0 4 0 C4.89191731 9.15244374 4.98753178 17.85393643 4 27 C2.68 27 1.36 27 0 27 C0 18.09 0 9.18 0 0 Z " fill="#D9D9D9" transform="translate(470,1952)"/>
<path d="M0 0 C0.99 0.495 0.99 0.495 2 1 C2 6.61 2 12.22 2 18 C9.59 18 17.18 18 25 18 C25 12.39 25 6.78 25 1 C25.33 1 25.66 1 26 1 C26.02683987 3.97922593 26.04676037 6.95821295 26.0625 9.9375 C26.07087891 10.78763672 26.07925781 11.63777344 26.08789062 12.51367188 C26.09272461 13.72700195 26.09272461 13.72700195 26.09765625 14.96484375 C26.10551147 16.08814087 26.10551147 16.08814087 26.11352539 17.23413086 C26 19 26 19 25 20 C23.14630389 20.08737645 21.28932459 20.10698153 19.43359375 20.09765625 C18.30888672 20.09443359 17.18417969 20.09121094 16.02539062 20.08789062 C14.84138672 20.07951172 13.65738281 20.07113281 12.4375 20.0625 C11.24962891 20.05798828 10.06175781 20.05347656 8.83789062 20.04882812 C5.89190588 20.03699686 2.94594684 20.01906076 0 20 C0 13.4 0 6.8 0 0 Z " fill="#A5A52E" transform="translate(342,1960)"/>
<path d="M0 0 C1.32 0 2.64 0 4 0 C4 8.25 4 16.5 4 25 C2.68 25 1.36 25 0 25 C0 16.75 0 8.5 0 0 Z " fill="#1B1C1C" transform="translate(529,587)"/>
<path d="M0 0 C1.32 0 2.64 0 4 0 C4 8.25 4 16.5 4 25 C2.68 25 1.36 25 0 25 C0 16.75 0 8.5 0 0 Z " fill="#1B1C1C" transform="translate(560,465)"/>
<path d="M0 0 C3.29714793 0.32971479 4.6226839 0.6226839 7 3 C7.38080215 6.50337981 7.40245078 8.36278626 5.5 11.375 C5.005 11.91125 4.51 12.4475 4 13 C1.5625 12.625 1.5625 12.625 -1 12 C-2.11445498 9.77109005 -2.16480286 8.46944894 -2.1875 6 C-2.20167969 5.29875 -2.21585938 4.5975 -2.23046875 3.875 C-2 2 -2 2 0 0 Z " fill="#2F2F2F" transform="translate(612,1963)"/>
<path d="M0 0 C1.65 0 3.3 0 5 0 C5 6.27 5 12.54 5 19 C3.35 19 1.7 19 0 19 C0 12.73 0 6.46 0 0 Z " fill="#C8C8C8" transform="translate(685,1960)"/>
<path d="M0 0 C1.65 0 3.3 0 5 0 C5 6.27 5 12.54 5 19 C3.35 19 1.7 19 0 19 C0 12.73 0 6.46 0 0 Z " fill="#C8C8C8" transform="translate(597,1960)"/>
<path d="M0 0 C1.65 0 3.3 0 5 0 C5 6.27 5 12.54 5 19 C3.35 19 1.7 19 0 19 C0 12.73 0 6.46 0 0 Z " fill="#C8C8C8" transform="translate(539,1960)"/>
<path d="M0 0 C4.55555556 0.55555556 4.55555556 0.55555556 6 2 C6.16796875 3.99609375 6.16796875 3.99609375 6.1875 6.4375 C6.20167969 7.24058594 6.21585938 8.04367187 6.23046875 8.87109375 C6 11 6 11 4 13 C1.4375 12.75 1.4375 12.75 -1 12 C-2.11445498 9.77109005 -2.16480286 8.46944894 -2.1875 6 C-2.20167969 5.29875 -2.21585938 4.5975 -2.23046875 3.875 C-2 2 -2 2 0 0 Z " fill="#333333" transform="translate(728,1963)"/>
<path d="M0 0 C1.16273438 -0.04898437 2.32546875 -0.09796875 3.5234375 -0.1484375 C6.625 0.375 6.625 0.375 8.51953125 2.671875 C9.92452764 6.10741388 9.96573887 8.69502024 9.625 12.375 C8.635 13.86 8.635 13.86 7.625 15.375 C6.965 15.045 6.305 14.715 5.625 14.375 C6.285 13.385 6.945 12.395 7.625 11.375 C7.70405064 9.04300612 7.71298769 6.70667378 7.625 4.375 C6.635 4.375 5.645 4.375 4.625 4.375 C4.625 3.715 4.625 3.055 4.625 2.375 C3.635 2.705 2.645 3.035 1.625 3.375 C0.965 3.045 0.305 2.715 -0.375 2.375 C-0.375 3.035 -0.375 3.695 -0.375 4.375 C-1.035 4.375 -1.695 4.375 -2.375 4.375 C-3.12426071 8.03805234 -3.6130014 10.79855152 -2.375 14.375 C-3.365 14.045 -4.355 13.715 -5.375 13.375 C-5.375 11.395 -5.375 9.415 -5.375 7.375 C-6.035 7.375 -6.695 7.375 -7.375 7.375 C-7.41754356 5.37545254 -7.41580783 3.37458364 -7.375 1.375 C-5.49599272 -0.50400728 -2.51676175 0.07222495 0 0 Z " fill="#C27D38" transform="translate(352.375,1960.625)"/>
<path d="M0 0 C1.8871875 0.061875 1.8871875 0.061875 3.8125 0.125 C4.0625 2.9375 4.0625 2.9375 3.8125 6.125 C1.66160944 8.5148784 0.374805 9.05805893 -2.8125 9.4375 C-5.1875 9.125 -5.1875 9.125 -7.1875 7.125 C-7.5 4.625 -7.5 4.625 -7.1875 2.125 C-4.09861478 0.06574319 -3.47814073 -0.1140374 0 0 Z " fill="#EFE9B4" transform="translate(183.1875,248.875)"/>
<path d="M0 0 C1.8871875 0.061875 1.8871875 0.061875 3.8125 0.125 C4.0625 2.9375 4.0625 2.9375 3.8125 6.125 C1.66160944 8.5148784 0.374805 9.05805893 -2.8125 9.4375 C-5.1875 9.125 -5.1875 9.125 -7.1875 7.125 C-7.5 4.625 -7.5 4.625 -7.1875 2.125 C-4.09861478 0.06574319 -3.47814073 -0.1140374 0 0 Z " fill="#EFE9B4" transform="translate(111.1875,248.875)"/>
<path d="M0 0 C1.8871875 0.061875 1.8871875 0.061875 3.8125 0.125 C4.0625 2.9375 4.0625 2.9375 3.8125 6.125 C1.66160944 8.5148784 0.374805 9.05805893 -2.8125 9.4375 C-5.1875 9.125 -5.1875 9.125 -7.1875 7.125 C-7.5 4.625 -7.5 4.625 -7.1875 2.125 C-4.09861478 0.06574319 -3.47814073 -0.1140374 0 0 Z " fill="#EFE9B4" transform="translate(65.1875,248.875)"/>
<path d="M0 0 C1.27875 -0.061875 2.5575 -0.12375 3.875 -0.1875 C4.95394531 -0.23970703 4.95394531 -0.23970703 6.0546875 -0.29296875 C6.69664062 -0.19628906 7.33859375 -0.09960938 8 0 C10 3 10 3 9.75 5.0625 C9 7 9 7 7 9 C3.375 9.125 3.375 9.125 0 9 C0 6.03 0 3.06 0 0 Z " fill="#CACCCB" transform="translate(607,590)"/>
<path d="M0 0 C1.27875 -0.061875 2.5575 -0.12375 3.875 -0.1875 C4.95394531 -0.23970703 4.95394531 -0.23970703 6.0546875 -0.29296875 C6.69664062 -0.19628906 7.33859375 -0.09960938 8 0 C10 3 10 3 9.75 5.0625 C9 7 9 7 7 9 C3.375 9.125 3.375 9.125 0 9 C0 6.03 0 3.06 0 0 Z " fill="#CACCCB" transform="translate(465,590)"/>
<path d="M0 0 C1 1 1 1 1.1875 3.9375 C1 7 1 7 -1 9 C-3.5 9.25 -3.5 9.25 -6 9 C-6.66 8.34 -7.32 7.68 -8 7 C-7.75 3.4375 -7.75 3.4375 -7 0 C-4.31633121 -1.3418344 -2.84719317 -0.73004953 0 0 Z " fill="#343434" transform="translate(94,354)"/>
<path d="M0 0 C1 1 1 1 1.1875 3.9375 C1 7 1 7 -1 9 C-3.5 9.25 -3.5 9.25 -6 9 C-6.66 8.34 -7.32 7.68 -8 7 C-7.75 3.4375 -7.75 3.4375 -7 0 C-4.31633121 -1.3418344 -2.84719317 -0.73004953 0 0 Z " fill="#343434" transform="translate(78,354)"/>
<path d="M0 0 C1 1 1 1 1.1875 3.9375 C1 7 1 7 -1 9 C-3.5 9.25 -3.5 9.25 -6 9 C-6.66 8.34 -7.32 7.68 -8 7 C-7.75 3.4375 -7.75 3.4375 -7 0 C-4.31633121 -1.3418344 -2.84719317 -0.73004953 0 0 Z " fill="#343434" transform="translate(62,354)"/>
<path d="M0 0 C3.625 0.3125 3.625 0.3125 5.5625 2.125 C6.625 4.3125 6.625 4.3125 6.625 7.3125 C2.335 7.3125 -1.955 7.3125 -6.375 7.3125 C-4.06289809 0.37619427 -4.06289809 0.37619427 0 0 Z " fill="#ECE5B0" transform="translate(505.375,239.6875)"/>
<path d="M0 0 C3.625 0.3125 3.625 0.3125 5.5625 2.125 C6.625 4.3125 6.625 4.3125 6.625 7.3125 C2.335 7.3125 -1.955 7.3125 -6.375 7.3125 C-4.06289809 0.37619427 -4.06289809 0.37619427 0 0 Z " fill="#ECE5B0" transform="translate(395.375,239.6875)"/>
<path d="M0 0 C0.66 0 1.32 0 2 0 C5.42857143 8.42857143 5.42857143 8.42857143 5 13 C2.03 13 -0.94 13 -4 13 C-3.52343588 11.20763933 -3.04366502 9.41613103 -2.5625 7.625 C-2.29566406 6.62726563 -2.02882813 5.62953125 -1.75390625 4.6015625 C-1 2 -1 2 0 0 Z " fill="#313131" transform="translate(398,67)"/>
<path d="M0 0 C0 2.64 0 5.28 0 8 C-3.3 8 -6.6 8 -10 8 C-10.33 7.01 -10.66 6.02 -11 5 C-11.66 5 -12.32 5 -13 5 C-13 3.68 -13 2.36 -13 1 C-11.02087544 0.83283412 -9.04169915 0.66628044 -7.0625 0.5 C-5.40927734 0.36078125 -5.40927734 0.36078125 -3.72265625 0.21875 C-1 0 -1 0 0 0 Z " fill="#A9B4AE" transform="translate(362,1950)"/>
<path d="M0 0 C0.125 2.875 0.125 2.875 0 6 C-2 8 -2 8 -5.625 8.125 C-6.73875 8.08375 -7.8525 8.0425 -9 8 C-9.33 6.35 -9.66 4.7 -10 3 C-6.68152292 -0.06320961 -4.44849969 -0.3033068 0 0 Z " fill="#323232" transform="translate(209,81)"/>
<path d="M0 0 C1.65 0 3.3 0 5 0 C4.67 1.98 4.34 3.96 4 6 C4.99 6.33 5.98 6.66 7 7 C1.58461538 10.07692308 1.58461538 10.07692308 -1.375 9.6875 C-1.91125 9.460625 -2.4475 9.23375 -3 9 C-3.625 7.1875 -3.625 7.1875 -4 5 C-3.34 4.01 -2.68 3.02 -2 2 C-1.34 2 -0.68 2 0 2 C0 1.34 0 0.68 0 0 Z " fill="#B4AAB0" transform="translate(352,1963)"/>
<path d="M0 0 C0.33 0 0.66 0 1 0 C1.16276042 1.953125 1.32552083 3.90625 1.48828125 5.859375 C1.97365631 8.51703845 1.97365631 8.51703845 5 12 C-2.92 12 -10.84 12 -19 12 C-17.68 10.68 -16.36 9.36 -15 8 C-15 8.66 -15 9.32 -15 10 C-10.05 10 -5.1 10 0 10 C0 6.7 0 3.4 0 0 Z " fill="#C7B450" transform="translate(362,1949)"/>
<path d="M0 0 C1.175625 0.0825 2.35125 0.165 3.5625 0.25 C5.5625 3.25 5.5625 3.25 5.5625 6.25 C1.9325 6.25 -1.6975 6.25 -5.4375 6.25 C-4.24930812 0.30904059 -4.24930812 0.30904059 0 0 Z " fill="#2A2A2A" transform="translate(141.4375,71.75)"/>
<path d="M0 0 C1.175625 0.0825 2.35125 0.165 3.5625 0.25 C5.5625 3.25 5.5625 3.25 5.5625 6.25 C1.9325 6.25 -1.6975 6.25 -5.4375 6.25 C-4.24930812 0.30904059 -4.24930812 0.30904059 0 0 Z " fill="#2A2A2A" transform="translate(84.4375,71.75)"/>
<path d="M0 0 C0.99 0.495 0.99 0.495 2 1 C1.67 2.98 1.34 4.96 1 7 C1.66 7 2.32 7 3 7 C3 8.98 3 10.96 3 13 C4.32 13.66 5.64 14.32 7 15 C7 15.66 7 16.32 7 17 C4.69 17 2.38 17 0 17 C0 11.39 0 5.78 0 0 Z " fill="#D08B2A" transform="translate(344,1961)"/>
<path d="M0 0 C3.63 0 7.26 0 11 0 C11 1.32 11 2.64 11 4 C7.37 4 3.74 4 0 4 C0 2.68 0 1.36 0 0 Z " fill="#857F49" transform="translate(285,245)"/>
<path d="M0 0 C1.2065625 0.0309375 1.2065625 0.0309375 2.4375 0.0625 C2.81968767 1.71864657 3.15145102 3.38707024 3.4375 5.0625 C2.4375 6.0625 2.4375 6.0625 -0.125 6.125 C-1.3315625 6.0940625 -1.3315625 6.0940625 -2.5625 6.0625 C-2.94468767 4.40635343 -3.27645102 2.73792976 -3.5625 1.0625 C-2.5625 0.0625 -2.5625 0.0625 0 0 Z " fill="#EBEBEB" transform="translate(103.5625,56.9375)"/>
<path d="M0 0 C0.66 0 1.32 0 2 0 C2.66 2.97 3.32 5.94 4 9 C2.02 9 0.04 9 -2 9 C-1.34 6.03 -0.68 3.06 0 0 Z " fill="#343434" transform="translate(425,1960)"/>
<path d="M0 0 C0.78375 0.04125 1.5675 0.0825 2.375 0.125 C2.045 1.775 1.715 3.425 1.375 5.125 C-0.275 5.455 -1.925 5.785 -3.625 6.125 C-4.25 4.25 -4.25 4.25 -4.625 2.125 C-2.625 0.125 -2.625 0.125 0 0 Z " fill="#333333" transform="translate(674.625,1969.875)"/>
<path d="M0 0 C0.78375 0.04125 1.5675 0.0825 2.375 0.125 C2.045 1.775 1.715 3.425 1.375 5.125 C-0.275 5.455 -1.925 5.785 -3.625 6.125 C-4.25 4.25 -4.25 4.25 -4.625 2.125 C-2.625 0.125 -2.625 0.125 0 0 Z " fill="#333333" transform="translate(574.625,1969.875)"/>
<path d="M0 0 C1.67542976 0.28604898 3.34385343 0.61781233 5 1 C5.33 2.32 5.66 3.64 6 5 C3.36 5 0.72 5 -2 5 C-1.125 1.125 -1.125 1.125 0 0 Z " fill="#454545" transform="translate(709,1963)"/>
<path d="M0 0 C1.67542976 0.28604898 3.34385343 0.61781233 5 1 C5.33 2.32 5.66 3.64 6 5 C3.36 5 0.72 5 -2 5 C-1.125 1.125 -1.125 1.125 0 0 Z " fill="#444444" transform="translate(495,1963)"/>
<path d="M0 0 C4.29 0 8.58 0 13 0 C13 0.33 13 0.66 13 1 C9.04 1 5.08 1 1 1 C1 2.32 1 3.64 1 5 C1.99 4.67 2.98 4.34 4 4 C6.26171875 4.12109375 6.26171875 4.12109375 8.6875 4.4375 C9.49574219 4.53933594 10.30398438 4.64117188 11.13671875 4.74609375 C11.75160156 4.82988281 12.36648438 4.91367188 13 5 C13 5.33 13 5.66 13 6 C11.37585622 6.19477739 9.75063577 6.38059458 8.125 6.5625 C7.22007812 6.66691406 6.31515625 6.77132813 5.3828125 6.87890625 C3 7 3 7 1 6 C0.67 6.66 0.34 7.32 0 8 C0 5.36 0 2.72 0 0 Z " fill="#C8D3C9" transform="translate(348,1950)"/>
<path d="M0 0 C0.33 1.32 0.66 2.64 1 4 C-1.31 4.33 -3.62 4.66 -6 5 C-6 4.34 -6 3.68 -6 3 C-7.32 2.67 -8.64 2.34 -10 2 C-6.49223216 0.39644899 -3.85645121 -0.22036864 0 0 Z " fill="#434343" transform="translate(676,1963)"/>
<path d="M0 0 C6.40096618 -0.48309179 6.40096618 -0.48309179 8.9375 1.5625 C10.38073056 4.87344069 10.32494847 7.42556678 10 11 C9.01 12.485 9.01 12.485 8 14 C7.34 13.67 6.68 13.34 6 13 C6.66 12.01 7.32 11.02 8 10 C8.07905064 7.66800612 8.08798769 5.33167378 8 3 C7.01 3 6.02 3 5 3 C5 2.34 5 1.68 5 1 C4.01 1.33 3.02 1.66 2 2 C1.34 1.34 0.68 0.68 0 0 Z " fill="#AB6A55" transform="translate(352,1962)"/>
<path d="M0 0 C3.63 0 7.26 0 11 0 C11 0.33 11 0.66 11 1 C8.69 1 6.38 1 4 1 C4 1.66 4 2.32 4 3 C6.31 3 8.62 3 11 3 C11 3.33 11 3.66 11 4 C7.37 4 3.74 4 0 4 C0 2.68 0 1.36 0 0 Z " fill="#868F92" transform="translate(349,1951)"/>
<path d="M0 0 C1.65 0 3.3 0 5 0 C5.33 1.32 5.66 2.64 6 4 C3.69 4.33 1.38 4.66 -1 5 C-0.67 3.35 -0.34 1.7 0 0 Z " fill="#373737" transform="translate(571,1963)"/>
<path d="M0 0 C3 1 3 1 5 3 C1.66666667 4.33333333 -1.66666667 5.66666667 -5 7 C-3.70700306 4.11562221 -2.34058637 2.12780579 0 0 Z " fill="#757039" transform="translate(213,239)"/>
<path d="M0 0 C0.99 0.33 1.98 0.66 3 1 C3 2.32 3 3.64 3 5 C1.35 4.67 -0.3 4.34 -2 4 C-1.34 2.68 -0.68 1.36 0 0 Z " fill="#C7C7C7" transform="translate(744,1974)"/>
<path d="M0 0 C4.29 0.66 8.58 1.32 13 2 C13 2.33 13 2.66 13 3 C8.05 3 3.1 3 -2 3 C-1.34 2.67 -0.68 2.34 0 2 C0 1.34 0 0.68 0 0 Z " fill="#C6C199" transform="translate(349,1956)"/>
<path d="M0 0 C-0.33 0.99 -0.66 1.98 -1 3 C-3.0625 3.6875 -3.0625 3.6875 -5 4 C-5 3.34 -5 2.68 -5 2 C-6.98 2 -8.96 2 -11 2 C-11 1.67 -11 1.34 -11 1 C-3.375 0 -3.375 0 0 0 Z " fill="#847F48" transform="translate(222,267)"/>
<path d="M0 0 C1.32 0 2.64 0 4 0 C3.67 1.32 3.34 2.64 3 4 C1.68 3.67 0.36 3.34 -1 3 C-0.67 2.01 -0.34 1.02 0 0 Z " fill="#D2D2D2" transform="translate(686,1953)"/>
<path d="M0 0 C1.32 0 2.64 0 4 0 C3.67 1.32 3.34 2.64 3 4 C1.68 3.67 0.36 3.34 -1 3 C-0.67 2.01 -0.34 1.02 0 0 Z " fill="#D1D1D1" transform="translate(598,1953)"/>
<path d="M0 0 C1.32 0 2.64 0 4 0 C3.67 1.32 3.34 2.64 3 4 C1.68 3.67 0.36 3.34 -1 3 C-0.67 2.01 -0.34 1.02 0 0 Z " fill="#D1D1D1" transform="translate(540,1953)"/>
</svg>
